<?xml version="1.0" encoding="UTF-8" standalone="no"?>
<!-- Created with Inkscape (http://www.inkscape.org/) -->

<svg
   width="210mm"
   height="297mm"
   viewBox="0 0 210 297"
   version="1.1"
   id="svg5"
   inkscape:version="1.2.2 (732a01da63, 2022-12-09)"
   sodipodi:docname="pokusaj.svg"
   xmlns:inkscape="http://www.inkscape.org/namespaces/inkscape"
   xmlns:sodipodi="http://sodipodi.sourceforge.net/DTD/sodipodi-0.dtd"
   xmlns="http://www.w3.org/2000/svg"
   xmlns:svg="http://www.w3.org/2000/svg">
  <sodipodi:namedview
     id="namedview7"
     pagecolor="#ffffff"
     bordercolor="#000000"
     borderopacity="0.25"
     inkscape:showpageshadow="2"
     inkscape:pageopacity="0.0"
     inkscape:pagecheckerboard="0"
     inkscape:deskcolor="#d1d1d1"
     inkscape:document-units="mm"
     showgrid="false"
     inkscape:zoom="0.88638134"
     inkscape:cx="339.01887"
     inkscape:cy="492.4517"
     inkscape:window-width="1920"
     inkscape:window-height="991"
     inkscape:window-x="-9"
     inkscape:window-y="-9"
     inkscape:window-maximized="1"
     inkscape:current-layer="layer1" />
  <defs
     id="defs2">
    <inkscape:path-effect
       effect="bspline"
       id="path-effect9164"
       is_visible="true"
       lpeversion="1"
       weight="33.333333"
       steps="2"
       helper_size="0"
       apply_no_weight="true"
       apply_with_weight="true"
       only_selected="false" />
    <inkscape:path-effect
       effect="bspline"
       id="path-effect7012"
       is_visible="true"
       lpeversion="1"
       weight="33.333333"
       steps="2"
       helper_size="0"
       apply_no_weight="true"
       apply_with_weight="true"
       only_selected="false" />
    <inkscape:path-effect
       effect="bspline"
       id="path-effect5974"
       is_visible="true"
       lpeversion="1"
       weight="33.333333"
       steps="2"
       helper_size="0"
       apply_no_weight="true"
       apply_with_weight="true"
       only_selected="false" />
    <inkscape:path-effect
       effect="bspline"
       id="path-effect375"
       is_visible="true"
       lpeversion="1"
       weight="33.333333"
       steps="2"
       helper_size="0"
       apply_no_weight="true"
       apply_with_weight="true"
       only_selected="false" />
    <inkscape:path-effect
       effect="bspline"
       id="path-effect7012-9"
       is_visible="true"
       lpeversion="1"
       weight="33.333333"
       steps="2"
       helper_size="0"
       apply_no_weight="true"
       apply_with_weight="true"
       only_selected="false" />
    <inkscape:path-effect
       effect="bspline"
       id="path-effect7012-2"
       is_visible="true"
       lpeversion="1"
       weight="33.333333"
       steps="2"
       helper_size="0"
       apply_no_weight="true"
       apply_with_weight="true"
       only_selected="false" />
    <inkscape:path-effect
       effect="bspline"
       id="path-effect7012-7"
       is_visible="true"
       lpeversion="1"
       weight="33.333333"
       steps="2"
       helper_size="0"
       apply_no_weight="true"
       apply_with_weight="true"
       only_selected="false" />
    <inkscape:path-effect
       effect="bspline"
       id="path-effect9164-6"
       is_visible="true"
       lpeversion="1"
       weight="33.333333"
       steps="2"
       helper_size="0"
       apply_no_weight="true"
       apply_with_weight="true"
       only_selected="false" />
    <inkscape:path-effect
       effect="bspline"
       id="path-effect7012-3"
       is_visible="true"
       lpeversion="1"
       weight="33.333333"
       steps="2"
       helper_size="0"
       apply_no_weight="true"
       apply_with_weight="true"
       only_selected="false" />
    <inkscape:path-effect
       effect="bspline"
       id="path-effect9164-8"
       is_visible="true"
       lpeversion="1"
       weight="33.333333"
       steps="2"
       helper_size="0"
       apply_no_weight="true"
       apply_with_weight="true"
       only_selected="false" />
    <inkscape:path-effect
       effect="bspline"
       id="path-effect7012-8"
       is_visible="true"
       lpeversion="1"
       weight="33.333333"
       steps="2"
       helper_size="0"
       apply_no_weight="true"
       apply_with_weight="true"
       only_selected="false" />
    <inkscape:path-effect
       effect="bspline"
       id="path-effect9164-2"
       is_visible="true"
       lpeversion="1"
       weight="33.333333"
       steps="2"
       helper_size="0"
       apply_no_weight="true"
       apply_with_weight="true"
       only_selected="false" />
    <inkscape:path-effect
       effect="bspline"
       id="path-effect7012-81"
       is_visible="true"
       lpeversion="1"
       weight="33.333333"
       steps="2"
       helper_size="0"
       apply_no_weight="true"
       apply_with_weight="true"
       only_selected="false" />
    <inkscape:path-effect
       effect="bspline"
       id="path-effect9164-4"
       is_visible="true"
       lpeversion="1"
       weight="33.333333"
       steps="2"
       helper_size="0"
       apply_no_weight="true"
       apply_with_weight="true"
       only_selected="false" />
    <inkscape:path-effect
       effect="bspline"
       id="path-effect7012-4"
       is_visible="true"
       lpeversion="1"
       weight="33.333333"
       steps="2"
       helper_size="0"
       apply_no_weight="true"
       apply_with_weight="true"
       only_selected="false" />
    <inkscape:path-effect
       effect="bspline"
       id="path-effect9164-5"
       is_visible="true"
       lpeversion="1"
       weight="33.333333"
       steps="2"
       helper_size="0"
       apply_no_weight="true"
       apply_with_weight="true"
       only_selected="false" />
    <inkscape:path-effect
       effect="bspline"
       id="path-effect9164-3"
       is_visible="true"
       lpeversion="1"
       weight="33.333333"
       steps="2"
       helper_size="0"
       apply_no_weight="true"
       apply_with_weight="true"
       only_selected="false" />
    <inkscape:path-effect
       effect="bspline"
       id="path-effect9164-7"
       is_visible="true"
       lpeversion="1"
       weight="33.333333"
       steps="2"
       helper_size="0"
       apply_no_weight="true"
       apply_with_weight="true"
       only_selected="false" />
    <inkscape:path-effect
       effect="bspline"
       id="path-effect9164-0"
       is_visible="true"
       lpeversion="1"
       weight="33.333333"
       steps="2"
       helper_size="0"
       apply_no_weight="true"
       apply_with_weight="true"
       only_selected="false" />
    <inkscape:path-effect
       effect="bspline"
       id="path-effect9164-86"
       is_visible="true"
       lpeversion="1"
       weight="33.333333"
       steps="2"
       helper_size="0"
       apply_no_weight="true"
       apply_with_weight="true"
       only_selected="false" />
    <inkscape:path-effect
       effect="bspline"
       id="path-effect9164-52"
       is_visible="true"
       lpeversion="1"
       weight="33.333333"
       steps="2"
       helper_size="0"
       apply_no_weight="true"
       apply_with_weight="true"
       only_selected="false" />
    <inkscape:path-effect
       effect="bspline"
       id="path-effect9164-1"
       is_visible="true"
       lpeversion="1"
       weight="33.333333"
       steps="2"
       helper_size="0"
       apply_no_weight="true"
       apply_with_weight="true"
       only_selected="false" />
    <inkscape:path-effect
       effect="bspline"
       id="path-effect9164-7-7"
       is_visible="true"
       lpeversion="1"
       weight="33.333333"
       steps="2"
       helper_size="0"
       apply_no_weight="true"
       apply_with_weight="true"
       only_selected="false" />
    <inkscape:path-effect
       effect="bspline"
       id="path-effect9164-86-8"
       is_visible="true"
       lpeversion="1"
       weight="33.333333"
       steps="2"
       helper_size="0"
       apply_no_weight="true"
       apply_with_weight="true"
       only_selected="false" />
    <inkscape:path-effect
       effect="bspline"
       id="path-effect9164-86-6"
       is_visible="true"
       lpeversion="1"
       weight="33.333333"
       steps="2"
       helper_size="0"
       apply_no_weight="true"
       apply_with_weight="true"
       only_selected="false" />
  </defs>
  <g
     inkscape:label="Layer 1"
     inkscape:groupmode="layer"
     id="layer1">
    <path
       id="path7010"
       style="fill:#009500;fill-opacity:1;stroke:#131313;stroke-width:0.22639;stroke-linecap:round;paint-order:stroke fill markers"
       d="m 84.139567,89.578512 c -1.069001,0.0082 -2.124568,0.122264 -3.049943,0.362251 -2.467674,0.639999 -4.009506,2.175852 -4.883423,4.159953 -0.873918,1.9841 -1.079801,4.416456 -1.028361,6.720524 0.05144,2.30391 0.360149,4.48001 -0.410827,5.3759 -0.770989,0.89577 -2.622056,0.51167 -5.089612,0.57567 -2.467569,0.064 -5.551981,0.57594 -7.813994,1.66398 -2.262,1.08804 -3.701254,2.75175 -4.523754,4.92787 -0.822512,2.17598 -1.02785,4.86427 -0.925009,7.80831 0.10284,2.94391 0.513657,6.14391 -0.360184,7.80779 -0.873841,1.66388 -3.032514,1.79201 -4.266407,2.944 -1.233881,1.15212 -1.542365,3.32806 -1.902209,7.10396 -0.359844,3.77602 -0.771317,9.15225 0.976684,12.80026 1.748013,3.64789 5.654743,5.56774 9.458855,7.35975 3.804098,1.792 7.505478,3.45625 10.744047,4.35219 3.238555,0.89594 6.014637,1.02401 9.870198,1.72806 3.85556,0.70404 8.790809,1.98385 15.01097,2.36782 6.220122,0.38396 13.725332,-0.12814 19.637042,-0.96015 5.91184,-0.83202 10.23008,-1.98412 13.31444,-3.84008 3.08424,-1.85595 4.93473,-4.41595 5.8601,-7.03988 0.92539,-2.62393 0.92523,-5.31145 0.0517,-7.55148 -0.87379,-2.23991 -2.62132,-4.0325 -5.14026,-5.12061 -2.51881,-1.08811 -5.80928,-1.47208 -6.88898,-2.1761 -1.07969,-0.70402 0.0517,-1.72803 1.4397,-2.87992 1.38801,-1.15201 3.03289,-2.43172 4.11242,-3.90364 1.0794,-1.47192 1.59342,-3.13627 1.74769,-5.1201 0.15427,-1.98396 -0.0512,-4.28793 -0.92501,-6.27197 -0.87381,-1.98404 -2.41594,-3.648 -5.08909,-5.1201 -2.67316,-1.4721 -6.47757,-2.75188 -7.76283,-4.41575 -1.28539,-1.664 -0.0516,-3.7121 0.4625,-5.88802 0.51415,-2.17579 0.30915,-4.47991 -0.0512,-6.65592 -0.35982,-2.17599 -0.87392,-4.224081 -3.13573,-5.632216 -2.26169,-1.408122 -6.27137,-2.17615 -9.25318,-0.960148 -2.98181,1.216001 -4.935584,4.415976 -6.683311,4.672066 -1.747707,0.256103 -3.289725,-2.43175 -4.472079,-4.415751 -1.182341,-1.984001 -2.00477,-3.263658 -4.11241,-4.031795 -1.317278,-0.480094 -3.136898,-0.760463 -4.918563,-0.746724 z" />
    <path
       id="path7010-5"
       style="fill:#36b40f;fill-opacity:1;stroke:#131313;stroke-width:0.178769;stroke-linecap:round;paint-order:stroke fill markers"
       d="m 87.529024,100.14014 c -0.672194,-0.002 -1.390737,0.0442 -2.10168,0.0496 0,0 -1.695452,0.0961 -2.43396,0.2837 -1.969366,0.50005 -3.199997,1.69983 -3.897437,3.24993 -0.697438,1.55027 -0.861681,3.45063 -0.820621,5.25085 0.041,1.80009 0.287659,3.50026 -0.327629,4.20026 -0.615288,0.69999 -2.092642,0.39962 -4.061768,0.44958 -1.969286,0.05 -4.431085,0.45006 -6.236311,1.30018 -1.805228,0.85012 -2.953708,2.1508 -3.610116,3.85093 -0.656408,1.70028 -0.820008,3.80012 -0.73794,6.1004 0.0821,2.30013 0.409551,4.80102 -0.287837,6.10092 -0.69724,1.30005 -2.419716,2.48202 -3.404444,3.38222 -0.984728,0.90019 -1.427962,2.30516 -1.71514,5.2555 -0.28718,2.95031 -0.418699,6.36361 0.976167,9.2139 0.56017,1.14447 3.853513,2.18371 4.974891,1.8371 1.055778,-0.34138 4.063505,-0.72463 5.114933,-1.07848 0.29289,-0.10446 0.586616,-0.21151 0.879016,-0.32143 0.10873,-0.0707 0.216775,-0.14275 0.328145,-0.20981 0.70478,-0.43591 2.891592,-1.57337 3.201872,-1.84175 0.741488,-0.67352 1.447865,-1.38164 2.185913,-2.05879 0.680228,-0.6131 1.419878,-1.16473 2.041736,-1.83761 0.479968,-0.47062 0.902205,-0.98692 1.347205,-1.48828 0.405548,-0.42887 0.765437,-0.89401 1.183907,-1.31052 0.548968,-0.59676 1.110787,-1.18124 1.661397,-1.77663 0.720948,-0.77058 1.516451,-1.46899 2.236039,-2.24069 0.53242,-0.5993 1.015017,-1.23747 1.508435,-1.86759 0.43568,-0.63386 0.886856,-1.25435 1.265556,-1.92391 0.40131,-0.63896 0.655688,-1.35731 0.889868,-2.06809 0.2239,-0.69126 0.511651,-1.35392 0.780831,-2.02779 0.29876,-0.82261 2.272769,-5.51811 2.373499,-5.81101 0.143248,-0.41656 0.211217,-0.86065 0.375687,-1.27176 0.20178,-0.67455 0.433261,-1.341 0.621151,-2.01848 0.1498,-0.79568 0.297797,-1.59024 0.444417,-2.38642 0.1742,-0.82224 0.346121,-1.64592 0.480591,-2.4753 0.12453,-0.66424 0.23119,-1.33098 0.37052,-1.99264 0.16187,-0.75311 0.218506,-1.52833 0.435116,-2.2717 0.18486,-0.81736 -0.139454,-2.43723 -0.03566,-3.26698 0.0755,-0.58768 -0.562687,-2.47939 -0.998905,-3.19619 -0.9436,-1.55018 -1.501749,-2.94379 -3.183785,-3.54397 -0.52556,-0.18755 -1.151466,-0.2374 -1.823662,-0.23926 z m 38.698926,47.12994 c -0.0106,0.008 -0.0208,0.0156 -0.0315,0.0232 0.0225,0.0463 0.043,0.0935 0.0651,0.14005 -0.01,-0.055 -0.0227,-0.10872 -0.0336,-0.1633 z m -17.88418,12.01167 c -0.0243,0.006 -0.0487,0.0131 -0.0729,0.0196 0.0169,0.0378 0.0313,0.0758 0.0444,0.11369 0.008,-2.6e-4 0.0159,-0.001 0.0238,-0.001 0.002,-0.0441 0.003,-0.0882 0.005,-0.13229 z" />
    <path
       id="path7010-0"
       style="fill:#007700;fill-opacity:1;stroke:#131313;stroke-width:0.22639;stroke-linecap:round;paint-order:stroke fill markers"
       d="m 108.03519,93.233277 v 5.16e-4 c -1.10164,0.0192 -2.19039,0.204067 -3.1688,0.603064 -2.28866,0.933347 -4.02358,2.926437 -5.472683,3.968964 0.0648,0.0712 1.412403,-0.369505 2.379853,-0.428095 0.16598,-0.0101 0.3309,-0.01587 0.49506,-0.01757 1.14912,-0.0116 2.25583,0.182486 3.34553,0.578776 1.15975,0.507507 2.08395,1.348509 2.9099,2.286168 0.61495,0.83933 1.20637,1.69678 1.68775,2.62051 0.46973,0.98922 0.86091,2.01318 1.14722,3.0701 0.24882,1.00334 0.35923,2.03217 0.43563,3.0608 0.0551,0.83182 0.0714,1.66623 0.0827,2.49958 0.0126,0.20638 0.0129,0.41213 0.006,0.61754 0.10336,0.0368 0.20516,0.0786 0.30592,0.1235 0.21046,0.10224 0.40755,0.22836 0.59015,0.37414 0.10777,0.0783 0.20365,0.16994 0.29765,0.26355 0.0179,0.0129 0.0358,0.0259 0.0538,0.0388 0.22748,0.16208 0.44386,0.33975 0.6568,0.52038 0.17973,0.14588 0.35571,0.29489 0.52142,0.45682 0.18007,0.17643 0.36059,0.35269 0.53123,0.53847 0.0711,0.079 0.14195,0.15843 0.21291,0.23771 0.20338,0.15685 0.40031,0.32196 0.58911,0.49609 0.18368,0.15921 0.362,0.32307 0.53123,0.49765 0.14279,0.14333 0.28436,0.28809 0.4129,0.44442 0.11251,0.12195 0.21934,0.24875 0.32918,0.3731 0.0199,0.0232 0.0394,0.0469 0.0584,0.0708 0.0744,0.0666 0.14884,0.13374 0.22169,0.20205 0.15489,0.15715 0.30645,0.31792 0.45269,0.48318 0.17349,0.17337 0.31072,0.37604 0.4532,0.57412 0.12125,0.15645 0.2271,0.32411 0.33952,0.48679 0.10293,0.15646 0.22087,0.30207 0.31987,0.46096 0.078,0.13546 0.16158,0.2685 0.25528,0.39377 0.11681,0.16229 0.22636,0.32918 0.32815,0.50126 0.16546,0.26085 0.32174,0.52648 0.4625,0.8015 0.0988,0.19749 0.19683,0.39498 0.29249,0.59377 0.13126,0.1824 0.22912,0.38561 0.33797,0.58136 0.11334,0.18996 0.22173,0.3821 0.32969,0.57515 0.10766,0.19163 0.19997,0.39118 0.29507,0.58912 0.083,0.16939 0.16463,0.33905 0.24443,0.51004 0.0738,0.1835 0.17525,0.35358 0.26355,0.5302 0.0997,0.20703 0.19581,0.41603 0.28371,0.62839 0.0597,0.15039 0.118,0.30026 0.17105,0.45268 0.29451,0.56534 0.5315,1.16226 0.75447,1.75804 0.28469,0.80027 0.39151,1.64327 0.46561,2.4846 0.0616,0.8063 0.0732,1.6154 0.0842,2.42362 6.3e-4,0.061 0.20767,1.61757 0.01,2.08308 4.6e-4,0.18053 -0.25769,2.38032 -0.5742,3.36148 -0.37788,0.90017 -0.79849,1.85073 -1.44893,2.56529 -0.45757,0.5085 -0.97436,0.95718 -1.44436,1.45366 -0.14322,0.13585 -1.50798,0.91331 -1.55701,0.95963 0.0446,0.30954 3.22034,1.54891 4.00544,2.1978 0.91194,0.78382 2.17854,1.96781 2.86546,2.94245 0.51785,0.8397 1.4804,3.6454 1.711,4.4943 0.26219,0.9445 0.46369,1.89772 0.60203,2.86805 0.13926,1.03529 0.18866,2.0792 0.22686,3.12229 0.10155,1.27907 -0.15629,2.34491 -0.79065,3.45457 -0.66183,1.11336 -1.90453,2.41473 -3.01118,3.0117 -0.8335,0.36452 -4.35499,1.90951 -4.35699,1.97455 3.27028,-0.72596 7.81199,-2.23568 9.87293,-3.47575 3.08433,-1.85595 4.93535,-4.41624 5.86062,-7.03988 0.92539,-2.62393 0.92452,-5.31145 0.0517,-7.55148 -0.87364,-2.23995 -2.62187,-4.03199 -5.14077,-5.1201 -2.51879,-1.08811 -5.80877,-1.47208 -6.88847,-2.1761 -1.07954,-0.70389 0.0512,-1.72842 1.43919,-2.88044 1.38801,-1.15192 3.03303,-2.43172 4.11241,-3.90364 1.07953,-1.47192 1.59343,-3.13623 1.7477,-5.1201 0.15427,-1.98396 -0.0512,-4.28793 -0.92501,-6.27197 -0.87381,-1.98391 -2.41601,-3.648 -5.0891,-5.1201 -2.67303,-1.4721 -6.47695,-2.75184 -7.76231,-4.41575 -1.28535,-1.664 -0.0521,-3.71225 0.46198,-5.88801 0.51415,-2.17593 0.30947,-4.47995 -0.0517,-6.65593 -0.35979,-2.175974 -0.87455,-4.224079 -3.13624,-5.632216 -1.41363,-0.880087 -3.50966,-1.509781 -5.61103,-1.561661 h -0.001 c -0.15743,-0.004 -0.31511,-0.0041 -0.47232,-0.0021 z"
       sodipodi:nodetypes="ccsccccccccccccccccccccccccccccccccccccccccccccccccccccccccsccsccscscsccsssc" />
    <path
       style="fill:#2b1100;fill-opacity:1;stroke:#131313;stroke-width:0.243;stroke-linecap:round;paint-order:stroke fill markers"
       d="m 83.485073,165.86194 c 0,5.91071 0,11.82116 -0.18472,16.25401 -0.184719,4.43284 -0.554114,7.388 -1.539217,10.65105 -0.985103,3.26304 -2.58582,6.83387 0.677484,8.68082 3.263303,1.84696 11.390007,1.97009 14.83769,0.61574 3.44768,-1.35434 2.216366,-4.18638 1.354372,-7.38792 -0.861995,-3.20154 -1.354522,-6.77236 -1.723936,-10.03545 -0.369414,-3.2631 -0.615679,-6.21827 -0.738825,-8.98882 -0.123146,-2.77056 -0.123146,-5.35633 -0.123146,-7.94242"
       id="path9162"
       inkscape:path-effect="#path-effect9164"
       inkscape:original-d="m 83.485073,165.86194 c 2.65e-4,5.91071 2.65e-4,11.82116 0,17.73134 -0.369146,2.95555 -0.738542,5.91071 -1.108209,8.86567 -1.600513,3.57123 -3.201229,7.14206 -4.802238,10.71269 8.127293,0.1234 16.253997,0.24653 24.380594,0.3694 -1.2311,-2.83188 -2.462418,-5.66391 -3.694027,-8.49627 -0.492282,-3.5707 -0.984811,-7.14152 -1.477611,-10.71268 -0.24601,-2.95502 -0.492273,-5.91019 -0.738807,-8.86567 2.65e-4,-2.58561 2.65e-4,-5.17138 0,-7.75747" />
    <path
       id="path7010-57"
       style="fill:#009500;fill-opacity:1;stroke:#131313;stroke-width:0.22639;stroke-linecap:round;paint-order:stroke fill markers"
       d="m 151.05257,147.472 c -1.06901,0.008 -2.12457,0.12226 -3.04995,0.36225 -2.46767,0.64 -4.0095,2.17585 -4.88342,4.15995 -0.87392,1.9841 -1.0798,4.41646 -1.02836,6.72053 0.0514,2.30391 0.36015,4.48001 -0.41083,5.3759 -0.77099,0.89577 -2.62205,0.51167 -5.08961,0.57567 -2.46757,0.064 -5.55198,0.57594 -7.81399,1.66398 -2.262,1.08804 -3.70126,2.75175 -4.52376,4.92787 -0.82251,2.17598 -1.02785,4.86427 -0.92501,7.80831 0.10284,2.94391 0.51366,6.14391 -0.36018,7.80779 -0.87384,1.66388 -3.03252,1.79201 -4.26641,2.944 -1.23388,1.15212 -1.54236,3.32806 -1.90221,7.10396 -0.35984,3.77602 -0.77131,9.15225 0.97669,12.80026 1.74801,3.64789 5.65474,5.56774 9.45885,7.35975 3.8041,1.792 7.50548,3.45625 10.74405,4.35219 3.23855,0.89594 6.01464,1.02401 9.8702,1.72806 3.85556,0.70404 8.79081,1.98385 15.01097,2.36782 6.22012,0.38396 13.72533,-0.12814 19.63704,-0.96015 5.91184,-0.83202 10.23008,-1.98412 13.31444,-3.84008 3.08424,-1.85595 4.93473,-4.41595 5.8601,-7.03988 0.92539,-2.62393 0.92523,-5.31145 0.0517,-7.55148 -0.87379,-2.23991 -2.62132,-4.0325 -5.14026,-5.12061 -2.51881,-1.08811 -5.80928,-1.47208 -6.88898,-2.1761 -1.07969,-0.70402 0.0517,-1.72803 1.4397,-2.87992 1.38801,-1.15201 3.03289,-2.43172 4.11242,-3.90364 1.0794,-1.47192 1.59342,-3.13627 1.74769,-5.1201 0.15427,-1.98396 -0.0512,-4.28793 -0.92501,-6.27197 -0.87381,-1.98404 -2.41594,-3.648 -5.08909,-5.1201 -2.67316,-1.4721 -6.47757,-2.75188 -7.76283,-4.41575 -1.28539,-1.664 -0.0516,-3.7121 0.4625,-5.88802 0.51415,-2.17579 0.30915,-4.47991 -0.0512,-6.65592 -0.35982,-2.17599 -0.87392,-4.22408 -3.13573,-5.63222 -2.26169,-1.40812 -6.27137,-2.17615 -9.25318,-0.96015 -2.98181,1.216 -4.93559,4.41598 -6.68331,4.67207 -1.74771,0.2561 -3.28973,-2.43175 -4.47208,-4.41575 -1.18234,-1.984 -2.00477,-3.26366 -4.11241,-4.0318 -1.31728,-0.48009 -3.1369,-0.76046 -4.91856,-0.74672 z" />
    <path
       id="path7010-5-3"
       style="fill:#36b40f;fill-opacity:1;stroke:#131313;stroke-width:0.178769;stroke-linecap:round;paint-order:stroke fill markers"
       d="m 154.44202,158.03363 c -0.67219,-0.002 -1.39073,0.0442 -2.10168,0.0496 0,0 -1.69545,0.0961 -2.43396,0.2837 -1.96936,0.50005 -3.19999,1.69983 -3.89743,3.24993 -0.69744,1.55027 -0.86168,3.45063 -0.82063,5.25085 0.041,1.80009 0.28766,3.50026 -0.32762,4.20026 -0.61529,0.69999 -2.09265,0.39962 -4.06177,0.44958 -1.96929,0.05 -4.43109,0.45006 -6.23631,1.30018 -1.80523,0.85012 -2.95371,2.1508 -3.61012,3.85093 -0.65641,1.70028 -0.82001,3.80012 -0.73794,6.1004 0.0821,2.30013 0.40955,4.80102 -0.28784,6.10092 -0.69724,1.30005 -2.41971,2.48202 -3.40444,3.38222 -0.98473,0.90019 -1.42796,2.30516 -1.71514,5.2555 -0.28718,2.95031 -0.4187,6.36361 0.97617,9.2139 0.56017,1.14447 3.85351,2.18371 4.97489,1.8371 1.05578,-0.34138 4.0635,-0.72463 5.11493,-1.07848 0.29289,-0.10446 0.58662,-0.21151 0.87902,-0.32143 0.10873,-0.0707 0.21677,-0.14275 0.32814,-0.20981 0.70478,-0.43591 2.89159,-1.57337 3.20187,-1.84175 0.74149,-0.67352 1.44787,-1.38164 2.18592,-2.05879 0.68022,-0.6131 1.41987,-1.16473 2.04173,-1.83761 0.47997,-0.47062 0.90221,-0.98692 1.34721,-1.48828 0.40555,-0.42887 0.76543,-0.89401 1.1839,-1.31052 0.54897,-0.59676 1.11079,-1.18124 1.6614,-1.77663 0.72095,-0.77058 1.51645,-1.46899 2.23604,-2.24069 0.53242,-0.5993 1.01502,-1.23747 1.50844,-1.86759 0.43568,-0.63386 0.88685,-1.25435 1.26555,-1.92391 0.40131,-0.63896 0.65569,-1.35731 0.88987,-2.06809 0.2239,-0.69126 0.51165,-1.35392 0.78083,-2.02779 0.29876,-0.82261 2.27277,-5.51811 2.3735,-5.81101 0.14325,-0.41656 0.21122,-0.86065 0.37569,-1.27176 0.20178,-0.67455 0.43326,-1.341 0.62115,-2.01848 0.1498,-0.79568 0.29779,-1.59024 0.44442,-2.38642 0.17419,-0.82224 0.34612,-1.64592 0.48059,-2.4753 0.12453,-0.66424 0.23119,-1.33098 0.37052,-1.99264 0.16187,-0.75311 0.2185,-1.52833 0.43511,-2.2717 0.18486,-0.81736 -0.13945,-2.43723 -0.0357,-3.26698 0.0755,-0.58768 -0.56268,-2.47939 -0.9989,-3.19619 -0.9436,-1.55018 -1.50175,-2.94379 -3.18379,-3.54397 -0.52556,-0.18755 -1.15146,-0.2374 -1.82366,-0.23926 z m 38.69893,47.12994 c -0.0106,0.008 -0.0208,0.0156 -0.0315,0.0232 0.0225,0.0463 0.043,0.0935 0.0651,0.14005 -0.01,-0.055 -0.0227,-0.10872 -0.0336,-0.1633 z m -17.88418,12.01167 c -0.0243,0.006 -0.0487,0.0131 -0.0729,0.0196 0.0169,0.0378 0.0313,0.0758 0.0444,0.11369 0.008,-2.6e-4 0.0159,-10e-4 0.0238,-10e-4 0.002,-0.0441 0.003,-0.0882 0.005,-0.13229 z" />
    <path
       id="path7010-0-9"
       style="fill:#007700;fill-opacity:1;stroke:#131313;stroke-width:0.22639;stroke-linecap:round;paint-order:stroke fill markers"
       d="m 174.94819,151.12676 v 5.2e-4 c -1.10164,0.0192 -2.19039,0.20407 -3.1688,0.60306 -2.28866,0.93335 -4.02358,2.92644 -5.47268,3.96897 0.0648,0.0712 1.4124,-0.36951 2.37985,-0.4281 0.16598,-0.0101 0.3309,-0.0159 0.49506,-0.0176 1.14912,-0.0116 2.25583,0.18249 3.34553,0.57878 1.15975,0.50751 2.08395,1.34851 2.9099,2.28617 0.61495,0.83933 1.20637,1.69678 1.68775,2.62051 0.46973,0.98922 0.86091,2.01318 1.14722,3.0701 0.24882,1.00334 0.35923,2.03217 0.43563,3.0608 0.0551,0.83182 0.0714,1.66623 0.0827,2.49958 0.0126,0.20638 0.0129,0.41213 0.006,0.61754 0.10336,0.0368 0.20516,0.0786 0.30592,0.1235 0.21046,0.10224 0.40755,0.22836 0.59015,0.37414 0.10777,0.0783 0.20365,0.16994 0.29765,0.26355 0.0179,0.0129 0.0358,0.0259 0.0538,0.0388 0.22748,0.16208 0.44386,0.33975 0.6568,0.52038 0.17973,0.14588 0.35571,0.29489 0.52142,0.45682 0.18007,0.17643 0.36059,0.35269 0.53123,0.53847 0.0711,0.079 0.14195,0.15843 0.21291,0.23771 0.20338,0.15685 0.40031,0.32196 0.58911,0.49609 0.18368,0.15921 0.362,0.32307 0.53123,0.49765 0.14279,0.14333 0.28436,0.28809 0.4129,0.44442 0.11251,0.12195 0.21934,0.24875 0.32918,0.3731 0.0199,0.0232 0.0394,0.0469 0.0584,0.0708 0.0744,0.0666 0.14884,0.13374 0.22169,0.20205 0.15489,0.15715 0.30645,0.31792 0.45269,0.48318 0.17349,0.17337 0.31072,0.37604 0.4532,0.57412 0.12125,0.15645 0.2271,0.32411 0.33952,0.48679 0.10293,0.15646 0.22087,0.30207 0.31987,0.46096 0.078,0.13546 0.16158,0.2685 0.25528,0.39377 0.11681,0.16229 0.22636,0.32918 0.32815,0.50126 0.16546,0.26085 0.32174,0.52648 0.4625,0.8015 0.0988,0.19749 0.19683,0.39498 0.29249,0.59377 0.13126,0.1824 0.22912,0.38561 0.33797,0.58136 0.11334,0.18996 0.22173,0.3821 0.32969,0.57515 0.10766,0.19163 0.19997,0.39118 0.29507,0.58912 0.083,0.16939 0.16463,0.33905 0.24443,0.51004 0.0738,0.1835 0.17525,0.35358 0.26355,0.5302 0.0997,0.20703 0.19581,0.41603 0.28371,0.62839 0.0597,0.15039 0.118,0.30026 0.17105,0.45268 0.29451,0.56534 0.5315,1.16226 0.75447,1.75804 0.28469,0.80027 0.39151,1.64327 0.46561,2.4846 0.0616,0.8063 0.0732,1.6154 0.0842,2.42362 6.3e-4,0.061 0.20767,1.61757 0.01,2.08308 4.6e-4,0.18053 -0.25769,2.38032 -0.5742,3.36148 -0.37788,0.90017 -0.79849,1.85073 -1.44893,2.56529 -0.45757,0.5085 -0.97436,0.95718 -1.44436,1.45366 -0.14322,0.13585 -1.50798,0.91331 -1.55701,0.95963 0.0446,0.30954 3.22034,1.54891 4.00544,2.1978 0.91194,0.78382 2.17854,1.96781 2.86546,2.94245 0.51785,0.8397 1.4804,3.6454 1.711,4.4943 0.26219,0.9445 0.46369,1.89772 0.60203,2.86805 0.13926,1.03529 0.18866,2.0792 0.22686,3.12229 0.10155,1.27907 -0.15629,2.34491 -0.79065,3.45457 -0.66183,1.11336 -1.90453,2.41473 -3.01118,3.0117 -0.8335,0.36452 -4.35499,1.90951 -4.35699,1.97455 3.27028,-0.72596 7.81199,-2.23568 9.87293,-3.47575 3.08433,-1.85595 4.93535,-4.41624 5.86062,-7.03988 0.92539,-2.62393 0.92452,-5.31145 0.0517,-7.55148 -0.87364,-2.23995 -2.62187,-4.03199 -5.14077,-5.1201 -2.51879,-1.08811 -5.80877,-1.47208 -6.88847,-2.1761 -1.07954,-0.70389 0.0512,-1.72842 1.43919,-2.88044 1.38801,-1.15192 3.03303,-2.43172 4.11241,-3.90364 1.07953,-1.47192 1.59343,-3.13623 1.7477,-5.1201 0.15427,-1.98396 -0.0512,-4.28793 -0.92501,-6.27197 -0.87381,-1.98391 -2.41601,-3.648 -5.0891,-5.1201 -2.67303,-1.4721 -6.47695,-2.75184 -7.76231,-4.41575 -1.28535,-1.664 -0.0521,-3.71225 0.46198,-5.88801 0.51415,-2.17593 0.30947,-4.47995 -0.0517,-6.65593 -0.35979,-2.17598 -0.87455,-4.22408 -3.13624,-5.63222 -1.41363,-0.88009 -3.50966,-1.50978 -5.61103,-1.56166 h -0.001 c -0.15743,-0.004 -0.31511,-0.004 -0.47232,-0.002 z"
       sodipodi:nodetypes="ccsccccccccccccccccccccccccccccccccccccccccccccccccccccccccsccsccscscsccsssc" />
    <path
       style="fill:#2b1100;fill-opacity:1;stroke:#131313;stroke-width:0.243;stroke-linecap:round;paint-order:stroke fill markers"
       d="m 150.39807,223.75543 c 0,5.91071 0,11.82116 -0.18472,16.25401 -0.18472,4.43284 -0.55411,7.388 -1.53922,10.65104 -0.9851,3.26305 -2.58582,6.83388 0.67749,8.68083 3.2633,1.84696 11.39,1.97009 14.83769,0.61574 3.44768,-1.35434 2.21636,-4.18638 1.35437,-7.38792 -0.862,-3.20154 -1.35452,-6.77236 -1.72394,-10.03545 -0.36941,-3.2631 -0.61568,-6.21827 -0.73882,-8.98882 -0.12315,-2.77056 -0.12315,-5.35633 -0.12315,-7.94242"
       id="path9162-8"
       inkscape:path-effect="#path-effect9164-3"
       inkscape:original-d="m 150.39807,223.75543 c 2.7e-4,5.91071 2.7e-4,11.82116 0,17.73134 -0.36914,2.95555 -0.73854,5.91071 -1.10821,8.86567 -1.60051,3.57123 -3.20123,7.14206 -4.80224,10.71269 8.1273,0.1234 16.254,0.24653 24.3806,0.3694 -1.2311,-2.83188 -2.46242,-5.66391 -3.69403,-8.49627 -0.49228,-3.5707 -0.98481,-7.14152 -1.47761,-10.71268 -0.24601,-2.95502 -0.49227,-5.91019 -0.73881,-8.86567 2.7e-4,-2.58561 2.7e-4,-5.17138 0,-7.75747" />
    <path
       id="path7010-7"
       style="fill:#009500;fill-opacity:1;stroke:#131313;stroke-width:0.169706;stroke-linecap:round;paint-order:stroke fill markers"
       d="m 155.46474,68.341618 c -0.87404,0.0055 -1.73709,0.08403 -2.4937,0.248962 -2.01763,0.43985 -3.27827,1.495393 -3.99281,2.858996 -0.71454,1.363603 -0.88288,3.035273 -0.84082,4.61878 0.042,1.583398 0.29447,3.078956 -0.3359,3.69467 -0.63038,0.615631 -2.14387,0.351653 -4.1614,0.395638 -2.01755,0.04399 -4.53944,0.395823 -6.38892,1.143596 -1.84947,0.74777 -3.02624,1.89118 -3.69874,3.38675 -0.6725,1.49548 -0.8404,3.34305 -0.75631,5.36638 0.0841,2.02325 0.41998,4.2225 -0.29449,5.36603 -0.71448,1.14352 -2.47947,1.23158 -3.48833,2.02331 -1.00885,0.79181 -1.26107,2.28726 -1.55529,4.8823 -0.29422,2.59513 -0.63066,6.29003 0.79856,8.79718 1.42922,2.50707 4.62346,3.82651 7.7338,5.0581 3.11033,1.23158 6.13667,2.37536 8.78461,2.99111 2.64792,0.61575 4.91772,0.70377 8.07013,1.18763 3.1524,0.48387 7.18758,1.36344 12.27335,1.62732 5.08573,0.26389 11.22219,-0.0881 16.05575,-0.65987 4.83367,-0.57182 8.36438,-1.36362 10.88623,-2.63916 2.52175,-1.27553 4.03476,-3.03493 4.79137,-4.83826 0.75662,-1.80334 0.75649,-3.65038 0.0423,-5.18987 -0.71444,-1.53941 -2.14326,-2.7714 -4.20281,-3.51922 -2.05944,-0.74782 -4.74982,-1.01171 -5.63261,-1.49556 -0.88278,-0.48385 0.0423,-1.18761 1.17714,-1.97927 1.13487,-0.79174 2.47977,-1.67124 3.36242,-2.68284 0.88254,-1.0116 1.30282,-2.15545 1.42895,-3.51886 0.12614,-1.36351 -0.0419,-2.94695 -0.75631,-4.31051 -0.71445,-1.36356 -1.97533,-2.50714 -4.16097,-3.51887 -2.18564,-1.01172 -5.29623,-1.89127 -6.34709,-3.03479 -1.05096,-1.14361 -0.0422,-2.5512 0.37816,-4.046631 0.42038,-1.495345 0.25276,-3.078887 -0.0419,-4.574383 -0.2942,-1.495482 -0.71454,-2.903063 -2.56385,-3.870829 -1.84922,-0.967752 -5.12763,-1.495592 -7.56564,-0.659871 -2.438,0.835715 -4.03546,3.034943 -5.46444,3.210945 -1.42898,0.176008 -2.68977,-1.671258 -3.65649,-3.034792 -0.96671,-1.363534 -1.63915,-2.243 -3.36241,-2.770909 -1.07704,-0.329956 -2.56481,-0.522645 -4.02154,-0.513202 z" />
    <path
       id="path7010-5-0"
       style="fill:#36b40f;fill-opacity:1;stroke:#131313;stroke-width:0.134008;stroke-linecap:round;paint-order:stroke fill markers"
       d="m 158.23605,75.60026 c -0.5496,-0.0014 -1.13709,0.03038 -1.71838,0.03409 0,0 -1.38625,0.06605 -1.99007,0.194977 -1.6102,0.343667 -2.6164,1.168234 -3.18665,2.233564 -0.57023,1.065447 -0.70453,2.371499 -0.67096,3.608729 0.0335,1.23714 0.2352,2.4056 -0.26788,2.88669 -0.50307,0.48108 -1.71099,0.27464 -3.321,0.30898 -1.61014,0.0344 -3.62297,0.30931 -5.09896,0.89357 -1.47601,0.58426 -2.41503,1.47817 -2.95173,2.64661 -0.5367,1.16854 -0.67046,2.61169 -0.60336,4.19259 0.0671,1.5808 0.33486,3.29958 -0.23534,4.19295 -0.57008,0.89348 -1.97842,1.70581 -2.78356,2.32449 -0.80514,0.61866 -1.16754,1.58425 -1.40234,3.61192 -0.23481,2.02765 -0.34234,4.37349 0.79814,6.3324 0.45801,0.78655 3.15073,1.50078 4.0676,1.26257 0.86322,-0.23462 3.32242,-0.49801 4.18209,-0.7412 0.23948,-0.0718 0.47964,-0.14537 0.71871,-0.22091 0.0889,-0.0486 0.17724,-0.0981 0.2683,-0.14419 0.57624,-0.29959 2.36424,-1.08133 2.61793,-1.26578 0.60626,-0.46288 1.18382,-0.94955 1.78726,-1.41493 0.55617,-0.42136 1.16093,-0.80048 1.66937,-1.26293 0.39244,-0.32344 0.73767,-0.67827 1.10152,-1.02284 0.33158,-0.29475 0.62583,-0.61442 0.96799,-0.90067 0.44885,-0.41014 0.90821,-0.81183 1.3584,-1.22102 0.58947,-0.52959 1.23989,-1.00959 1.82824,-1.53995 0.43532,-0.41188 0.82991,-0.85047 1.23334,-1.28353 0.35622,-0.43563 0.72511,-0.86207 1.03475,-1.32224 0.32812,-0.43913 0.53611,-0.93283 0.72758,-1.42132 0.18306,-0.47508 0.41834,-0.93051 0.63842,-1.39363 0.24428,-0.56536 1.85828,-3.79241 1.94064,-3.99371 0.11712,-0.28629 0.1727,-0.59149 0.30717,-0.87404 0.16498,-0.46359 0.35425,-0.92162 0.50787,-1.38723 0.12248,-0.54684 0.24348,-1.09291 0.36336,-1.6401 0.14243,-0.5651 0.28301,-1.13119 0.39295,-1.70119 0.10182,-0.45651 0.18902,-0.91474 0.30295,-1.36947 0.13234,-0.51759 0.17865,-1.05037 0.35576,-1.56126 0.15114,-0.56175 -0.11402,-1.67503 -0.0292,-2.245282 0.0617,-0.403892 -0.46007,-1.703999 -0.81673,-2.19663 -0.77151,-1.065385 -1.22787,-2.023165 -2.60315,-2.435648 -0.42971,-0.128897 -0.94146,-0.163157 -1.49107,-0.164435 z m 31.64124,32.39078 c -0.009,0.005 -0.017,0.0107 -0.0257,0.0159 0.0184,0.0318 0.0351,0.0643 0.0532,0.0962 -0.008,-0.0378 -0.0186,-0.0747 -0.0275,-0.11223 z m -14.62256,8.2552 c -0.0199,0.004 -0.0398,0.009 -0.0596,0.0135 0.0138,0.026 0.0256,0.0521 0.0363,0.0781 0.007,-1.7e-4 0.013,-6.8e-4 0.0195,-6.8e-4 0.002,-0.0303 0.002,-0.0606 0.004,-0.0909 z" />
    <path
       id="path7010-0-1"
       style="fill:#007700;fill-opacity:1;stroke:#131313;stroke-width:0.169706;stroke-linecap:round;paint-order:stroke fill markers"
       d="m 175.00242,70.853415 v 3.5e-4 c -0.90072,0.0132 -1.79091,0.14025 -2.59089,0.414469 -1.87126,0.641452 -3.28978,2.011234 -4.47461,2.727729 0.053,0.04893 1.15482,-0.253945 1.94584,-0.294212 0.1357,-0.0069 0.27055,-0.01093 0.40477,-0.0121 0.93955,-0.008 1.84442,0.125413 2.73539,0.397769 0.94824,0.348794 1.70389,0.926784 2.37921,1.571205 0.5028,0.576843 0.98636,1.166138 1.37995,1.800986 0.38406,0.679856 0.7039,1.383589 0.93799,2.109973 0.20344,0.689561 0.29372,1.396646 0.35619,2.103586 0.0451,0.57168 0.0584,1.14514 0.0676,1.71787 0.0103,0.14184 0.0105,0.28325 0.005,0.42442 0.0845,0.0253 0.16774,0.054 0.25013,0.0849 0.17207,0.0703 0.33322,0.15694 0.48252,0.25713 0.0881,0.0538 0.16651,0.11679 0.24336,0.18113 0.0146,0.009 0.0293,0.0178 0.044,0.0267 0.186,0.1114 0.36291,0.2335 0.53702,0.35764 0.14695,0.10026 0.29084,0.20267 0.42633,0.31396 0.14723,0.12125 0.29482,0.24239 0.43434,0.37007 0.0581,0.0543 0.11607,0.10888 0.17408,0.16337 0.16629,0.1078 0.32731,0.22127 0.48168,0.34095 0.15018,0.10942 0.29598,0.22203 0.43434,0.34201 0.11675,0.0985 0.2325,0.198 0.3376,0.30544 0.092,0.0838 0.17934,0.17096 0.26915,0.25642 0.0163,0.0159 0.0322,0.0322 0.0478,0.0487 0.0608,0.0458 0.12169,0.0919 0.18126,0.13886 0.12664,0.108 0.25056,0.21849 0.37013,0.33207 0.14185,0.11915 0.25405,0.25844 0.37054,0.39457 0.0991,0.10753 0.18569,0.22275 0.2776,0.33456 0.0842,0.10753 0.18059,0.2076 0.26154,0.3168 0.0638,0.0931 0.13211,0.18453 0.20872,0.27062 0.0955,0.11154 0.18508,0.22624 0.26831,0.3445 0.13528,0.17927 0.26306,0.36183 0.37815,0.55084 0.0808,0.13573 0.16093,0.27146 0.23914,0.40808 0.10733,0.12536 0.18734,0.26502 0.27634,0.39955 0.0927,0.13055 0.18129,0.2626 0.26956,0.39528 0.088,0.1317 0.1635,0.26885 0.24126,0.40488 0.0679,0.11642 0.1346,0.23302 0.19985,0.35054 0.0603,0.12611 0.14329,0.243 0.21548,0.36438 0.0815,0.14229 0.1601,0.28593 0.23197,0.43187 0.0488,0.10336 0.0965,0.20636 0.13986,0.31112 0.2408,0.38853 0.43457,0.79878 0.61687,1.20824 0.23277,0.54999 0.32011,1.12936 0.3807,1.70757 0.0504,0.55415 0.0599,1.11021 0.0688,1.66567 5.2e-4,0.0419 0.1698,1.1117 0.008,1.43163 3.7e-4,0.12408 -0.2107,1.63591 -0.46948,2.31023 -0.30897,0.61866 -0.65287,1.27195 -1.18469,1.76304 -0.37412,0.34947 -0.79666,0.65784 -1.18094,0.99905 -0.1171,0.0934 -1.23296,0.62769 -1.27305,0.65952 0.0365,0.21274 2.63303,1.06451 3.27495,1.51047 0.74562,0.53869 1.78123,1.35241 2.34287,2.02225 0.42341,0.57709 1.21041,2.50535 1.39896,3.08877 0.21437,0.64912 0.37912,1.30424 0.49223,1.97111 0.11387,0.71152 0.15426,1.42897 0.18549,2.14585 0.083,0.87906 -0.12779,1.61157 -0.64646,2.3742 -0.54112,0.76517 -1.55719,1.65956 -2.46201,2.06984 -0.68149,0.25052 -3.56075,1.31234 -3.56239,1.35704 2.67386,-0.49893 6.38728,-1.53651 8.07236,-2.38876 2.52183,-1.27553 4.03527,-3.03513 4.79179,-4.83827 0.75663,-1.80334 0.75592,-3.65038 0.0423,-5.18987 -0.71432,-1.53944 -2.14371,-2.77105 -4.20323,-3.51887 -2.05943,-0.74782 -4.7494,-1.01171 -5.63219,-1.49555 -0.88266,-0.48376 0.0419,-1.18789 1.17672,-1.97963 1.13487,-0.79168 2.47988,-1.67124 3.36241,-2.68284 0.88265,-1.0116 1.30283,-2.15542 1.42896,-3.51887 0.12614,-1.3635 -0.0419,-2.94694 -0.75631,-4.31051 -0.71445,-1.36347 -1.97539,-2.50714 -4.16098,-3.51886 -2.18553,-1.01173 -5.29572,-1.89125 -6.34666,-3.03479 -1.05093,-1.14361 -0.0426,-2.5513 0.37773,-4.046633 0.42038,-1.495441 0.25303,-3.078914 -0.0423,-4.57439 -0.29418,-1.495468 -0.71506,-2.903063 -2.56427,-3.870829 -1.15582,-0.604848 -2.86959,-1.037619 -4.58773,-1.073275 h -8.1e-4 c -0.12872,-0.0027 -0.25765,-0.0027 -0.38618,-0.0014 z"
       sodipodi:nodetypes="ccsccccccccccccccccccccccccccccccccccccccccccccccccccccccccsccsccscscsccsssc" />
    <path
       style="fill:#2b1100;fill-opacity:1;stroke:#131313;stroke-width:0.182157;stroke-linecap:round;paint-order:stroke fill markers"
       d="m 154.92962,120.76858 c 0,4.06222 0,8.12427 -0.15103,11.17081 -0.15103,3.04654 -0.45306,5.07751 -1.2585,7.32008 -0.80543,2.24256 -2.11422,4.69667 0.55393,5.96603 2.66815,1.26937 9.31275,1.35399 12.13167,0.4232 2.81892,-0.93079 1.81216,-2.87715 1.10737,-5.07746 -0.70479,-2.20031 -1.1075,-4.65441 -1.40954,-6.89702 -0.30204,-2.24261 -0.50339,-4.2736 -0.60408,-6.17771 -0.10069,-1.90411 -0.10069,-3.68122 -0.10069,-5.45855"
       id="path9162-6"
       inkscape:path-effect="#path-effect9164-7"
       inkscape:original-d="m 154.92962,120.76858 c 2.2e-4,4.06222 2.2e-4,8.12427 0,12.18613 -0.30183,2.03125 -0.60385,4.06223 -0.9061,6.09307 -1.30862,2.45438 -2.61741,4.90849 -3.92644,7.36246 6.64509,0.0848 13.28969,0.16943 19.93421,0.25387 -1.00658,-1.94625 -2.01334,-3.89261 -3.02034,-5.83919 -0.4025,-2.45402 -0.8052,-4.90812 -1.20813,-7.36245 -0.20114,-2.03088 -0.40249,-4.06187 -0.60407,-6.09307 2.2e-4,-1.777 2.2e-4,-3.55411 0,-5.33144" />
    <path
       id="path7010-87"
       style="fill:#009500;fill-opacity:1;stroke:#131313;stroke-width:0.10638;stroke-linecap:round;paint-order:stroke fill markers"
       d="m 93.2516,39.952381 c -0.520411,0.0037 -1.034284,0.05545 -1.484774,0.164303 -1.201318,0.290278 -1.951914,0.98688 -2.377351,1.886789 -0.425443,0.899909 -0.525675,2.003128 -0.500633,3.048162 0.02502,1.044962 0.175329,2.031954 -0.199995,2.438294 -0.375335,0.406286 -1.276474,0.232073 -2.477732,0.261101 -1.201264,0.02903 -2.702821,0.261224 -3.804017,0.754715 -1.101189,0.493492 -1.801848,1.248084 -2.202258,2.235086 -0.400416,0.986938 -0.500379,2.206239 -0.450314,3.541538 0.05007,1.335241 0.250059,2.786633 -0.175345,3.541303 -0.425404,0.75467 -1.476292,0.812784 -2.076977,1.335281 -0.600679,0.522556 -0.750856,1.509476 -0.926035,3.222074 -0.17518,1.712652 -0.375494,4.151096 0.47547,5.805688 0.85097,1.654537 2.752848,2.525305 4.60477,3.338089 1.851915,0.81278 3.653824,1.567618 5.230428,1.97398 1.576597,0.406363 2.928051,0.464451 4.805019,0.78378 1.876966,0.319324 4.27955,0.899795 7.307655,1.073948 3.028089,0.174149 6.681779,-0.05812 9.559719,-0.435485 2.87801,-0.377371 4.98022,-0.899918 6.48175,-1.741708 1.50148,-0.841785 2.40233,-2.002899 2.85282,-3.193009 0.4505,-1.19011 0.45042,-2.409062 0.0252,-3.425051 -0.42538,-1.015934 -1.27611,-1.828981 -2.50239,-2.322504 -1.2262,-0.493524 -2.82807,-0.667677 -3.3537,-0.986993 -0.52561,-0.319315 0.0252,-0.783765 0.70088,-1.306217 0.67571,-0.522506 1.47648,-1.102931 2.00201,-1.770535 0.52548,-0.667605 0.77571,-1.422488 0.85082,-2.322274 0.0751,-0.899845 -0.0249,-1.944834 -0.45032,-2.844716 -0.42539,-0.899881 -1.17613,-1.654587 -2.47747,-2.322273 -1.30136,-0.667686 -3.15342,-1.248143 -3.77911,-2.002809 -0.62576,-0.754724 -0.0251,-1.68366 0.22515,-2.670571 0.2503,-0.986852 0.1505,-2.031909 -0.0249,-3.01886 -0.17517,-0.986943 -0.42544,-1.915875 -1.52654,-2.554549 -1.10104,-0.638668 -3.05303,-0.987015 -4.50464,-0.435485 -1.45161,0.551529 -2.40274,2.002911 -3.253576,2.119063 -0.850817,0.116158 -1.601505,-1.102945 -2.177102,-2.002809 C 97.072524,41.219863 96.672147,40.639462 95.646104,40.291065 95.004829,40.073314 94.119,39.94615 93.251645,39.952381 Z" />
    <path
       id="path7010-5-38"
       style="fill:#36b40f;fill-opacity:1;stroke:#131313;stroke-width:0.0840029;stroke-linecap:round;paint-order:stroke fill markers"
       d="m 94.901661,44.742715 c -0.327242,-9.07e-4 -0.677042,0.02005 -1.023143,0.0225 0,0 -0.82538,0.04359 -1.184901,0.128675 -0.958731,0.226802 -1.557828,0.770975 -1.897356,1.474039 -0.339529,0.70314 -0.419484,1.565068 -0.399495,2.381576 0.01996,0.816449 0.140039,1.587579 -0.159497,1.905071 -0.299537,0.317487 -1.018742,0.181251 -1.977356,0.203911 -0.958688,0.02268 -2.157143,0.20413 -3.035965,0.58971 -0.878823,0.385581 -1.437928,0.975517 -1.757481,1.746629 -0.319553,0.771179 -0.399197,1.723583 -0.359245,2.766898 0.03997,1.043248 0.199379,2.177552 -0.140125,2.767135 -0.339431,0.589651 -1.177968,1.125745 -1.657355,1.53404 -0.479386,0.40829 -0.695161,1.045529 -0.834966,2.383685 -0.139805,1.338144 -0.203831,2.886281 0.475219,4.179059 0.272702,0.519086 1.875971,0.990444 2.421881,0.833235 0.513975,-0.154836 1.9782,-0.328663 2.490057,-0.489156 0.142585,-0.04738 0.285577,-0.09593 0.427924,-0.145787 0.05293,-0.03207 0.10553,-0.06475 0.159748,-0.09516 0.343101,-0.197711 1.407688,-0.713618 1.558739,-0.835344 0.360973,-0.305482 0.704849,-0.626657 1.064147,-0.933785 0.33115,-0.278078 0.691227,-0.528276 0.993962,-0.833467 0.233659,-0.213455 0.43921,-0.447628 0.655845,-0.675025 0.19743,-0.194518 0.372632,-0.405487 0.576352,-0.594399 0.267251,-0.270667 0.540756,-0.535764 0.808805,-0.805809 0.350973,-0.349504 0.73824,-0.666275 1.08855,-1.016288 0.259193,-0.271818 0.494128,-0.561267 0.734336,-0.847064 0.212098,-0.287494 0.431742,-0.568923 0.616101,-0.872609 0.195366,-0.289807 0.319204,-0.615622 0.433207,-0.938004 0.108999,-0.313528 0.249082,-0.614084 0.380125,-0.919724 0.145442,-0.373103 1.106432,-2.502795 1.155469,-2.635643 0.06973,-0.188935 0.102822,-0.390357 0.182889,-0.57682 0.09823,-0.305949 0.21092,-0.608224 0.302389,-0.915502 0.07293,-0.360889 0.144976,-0.721269 0.216353,-1.082385 0.0848,-0.372935 0.168499,-0.746524 0.233962,-1.122698 0.06062,-0.301272 0.112548,-0.603679 0.180376,-0.903782 0.0788,-0.34158 0.106376,-0.693189 0.211826,-1.030352 0.08999,-0.370722 -0.06789,-1.105431 -0.01738,-1.481772 0.03675,-0.266549 -0.27393,-1.124553 -0.486291,-1.449665 -0.459364,-0.7031 -0.731083,-1.335186 -1.549931,-1.607404 -0.255854,-0.08507 -0.56056,-0.107675 -0.887796,-0.108519 z m 18.839449,21.376264 c -0.005,0.0036 -0.0101,0.0071 -0.0153,0.01052 0.011,0.021 0.0209,0.04241 0.0317,0.06352 -0.005,-0.02495 -0.011,-0.04931 -0.0163,-0.07407 z m -8.7064,5.448015 c -0.0118,0.0027 -0.0237,0.0059 -0.0355,0.0089 0.008,0.01714 0.0152,0.03438 0.0216,0.05157 0.004,-1.18e-4 0.008,-4.54e-4 0.0116,-4.54e-4 9.8e-4,-0.02 0.001,-0.04 0.002,-0.06 z" />
    <path
       id="path7010-0-2"
       style="fill:#007700;fill-opacity:1;stroke:#131313;stroke-width:0.10638;stroke-linecap:round;paint-order:stroke fill markers"
       d="m 104.88449,41.610037 v 2.34e-4 c -0.5363,0.0087 -1.06633,0.09256 -1.54264,0.273526 -1.11417,0.423329 -1.95876,1.327315 -2.66421,1.800164 0.0316,0.03229 0.68758,-0.167593 1.15856,-0.194167 0.0808,-0.0046 0.16109,-0.0072 0.241,-0.008 0.55942,-0.0053 1.09819,0.08277 1.62868,0.26251 0.56459,0.230185 1.01451,0.61163 1.4166,1.036915 0.29937,0.380686 0.58728,0.769591 0.82163,1.188559 0.22867,0.44867 0.41911,0.913098 0.55849,1.392475 0.12113,0.455075 0.17488,0.921711 0.21208,1.388257 0.0268,0.37728 0.0348,0.755735 0.0403,1.13371 0.006,0.0936 0.006,0.186925 0.003,0.280091 0.0503,0.01669 0.0999,0.03565 0.14892,0.05602 0.10246,0.04637 0.19841,0.103575 0.2873,0.169695 0.0525,0.03551 0.0991,0.07708 0.1449,0.119536 0.009,0.0059 0.0174,0.01175 0.0262,0.0176 0.11074,0.07351 0.21608,0.154097 0.31975,0.236024 0.0875,0.06616 0.17316,0.13375 0.25383,0.207195 0.0877,0.08002 0.17555,0.159966 0.25862,0.244228 0.0346,0.03583 0.0691,0.07186 0.10365,0.107816 0.099,0.07114 0.19488,0.146028 0.28679,0.225007 0.0894,0.07221 0.17623,0.146532 0.25861,0.225714 0.0695,0.06501 0.13843,0.130666 0.20101,0.201571 0.0548,0.05531 0.10678,0.112823 0.16025,0.169224 0.01,0.01052 0.0192,0.02127 0.0284,0.03211 0.0362,0.03021 0.0725,0.06066 0.10792,0.09164 0.0754,0.07128 0.14919,0.144195 0.22038,0.219151 0.0845,0.07863 0.15127,0.170556 0.22063,0.260398 0.059,0.07096 0.11056,0.147003 0.16529,0.220788 0.0501,0.07096 0.10752,0.137007 0.15572,0.209073 0.038,0.06144 0.0787,0.121781 0.12427,0.178599 0.0569,0.07361 0.1102,0.149303 0.15975,0.227351 0.0806,0.118311 0.15663,0.238791 0.22516,0.363529 0.0481,0.08957 0.0958,0.179147 0.14239,0.26931 0.0639,0.08273 0.11154,0.174898 0.16453,0.263682 0.0552,0.08616 0.10794,0.173305 0.1605,0.260865 0.0524,0.08692 0.0974,0.177424 0.14365,0.267201 0.0404,0.07683 0.0801,0.15378 0.11899,0.231334 0.0359,0.08323 0.0853,0.16037 0.1283,0.240478 0.0485,0.0939 0.0953,0.188695 0.13812,0.285013 0.0291,0.06821 0.0574,0.136186 0.0833,0.205317 0.14337,0.256416 0.25874,0.527155 0.36729,0.797377 0.13859,0.362971 0.1906,0.745322 0.22667,1.126916 0.03,0.365705 0.0356,0.732681 0.041,1.099257 3.1e-4,0.02767 0.1011,0.733666 0.005,0.944802 2.2e-4,0.08188 -0.12545,1.079619 -0.27953,1.524634 -0.18396,0.408281 -0.38873,0.839417 -0.70537,1.163513 -0.22276,0.230636 -0.47434,0.434139 -0.70315,0.659323 -0.0697,0.06162 -0.73412,0.414241 -0.75799,0.43525 0.0217,0.140395 1.56774,0.702523 1.94994,0.996834 0.44395,0.35551 1.06056,0.89252 1.39496,1.334578 0.25211,0.380855 0.72069,1.653409 0.83296,2.038436 0.12764,0.428387 0.22573,0.86073 0.29308,1.300833 0.0678,0.469566 0.0918,0.943042 0.11044,1.416147 0.0494,0.580135 -0.0761,1.063557 -0.38491,1.566855 -0.32219,0.504976 -0.92716,1.095225 -1.4659,1.365987 -0.40577,0.165332 -2.1201,0.866078 -2.12108,0.895577 1.59204,-0.329266 3.80304,-1.014015 4.80635,-1.576461 1.50152,-0.841785 2.40263,-2.003031 2.85307,-3.19301 0.4505,-1.19011 0.45008,-2.409062 0.0252,-3.42505 -0.4253,-1.015952 -1.27638,-1.82875 -2.50263,-2.322274 -1.2262,-0.493523 -2.82783,-0.667677 -3.35345,-0.986992 -0.52555,-0.319257 0.0249,-0.783943 0.70062,-1.306453 0.67572,-0.522465 1.47655,-1.102931 2.00201,-1.770536 0.52554,-0.667604 0.77572,-1.422469 0.85082,-2.322273 0.0751,-0.899845 -0.0249,-1.944834 -0.45032,-2.844716 -0.42538,-0.899823 -1.17616,-1.654588 -2.47748,-2.322273 -1.30128,-0.667686 -3.15312,-1.248126 -3.77886,-2.002809 -0.62573,-0.754724 -0.0254,-1.683729 0.22491,-2.670567 0.2503,-0.986915 0.15065,-2.031927 -0.0252,-3.018865 -0.17516,-0.986935 -0.42575,-1.915874 -1.52679,-2.554549 -0.68819,-0.399172 -1.70858,-0.684776 -2.73157,-0.708307 h -4.8e-4 c -0.0766,-0.0018 -0.15341,-0.0019 -0.22994,-9.52e-4 z"
       sodipodi:nodetypes="ccsccccccccccccccccccccccccccccccccccccccccccccccccccccccccsccsccscscsccsssc" />
    <path
       style="fill:#2b1100;fill-opacity:1;stroke:#131313;stroke-width:0.114185;stroke-linecap:round;paint-order:stroke fill markers"
       d="m 92.932982,74.551507 c 0,2.680862 0,5.361606 -0.08992,7.37217 -0.08993,2.010564 -0.269755,3.350904 -0.749323,4.830887 -0.479568,1.479984 -1.258828,3.099564 0.329813,3.937275 1.58864,0.837711 5.544893,0.893556 7.223296,0.279278 1.678407,-0.614278 1.078977,-1.89877 0.659337,-3.350861 -0.419632,-1.452091 -0.659406,-3.07167 -0.839245,-4.551683 -0.17984,-1.480013 -0.299727,-2.82036 -0.359678,-4.076973 -0.05995,-1.256613 -0.05995,-2.429416 -0.05995,-3.602363"
       id="path9162-0"
       inkscape:path-effect="#path-effect9164-86"
       inkscape:original-d="m 92.932982,74.551507 c 1.26e-4,2.680862 1.26e-4,5.361606 0,8.042233 -0.17971,1.34052 -0.359537,2.68086 -0.5395,4.02111 -0.779167,1.61977 -1.558426,3.23935 -2.337832,4.85885 3.956535,0.056 7.912788,0.11181 11.86898,0.16754 -0.59932,-1.28443 -1.19875,-2.56892 -1.79832,-3.85357 -0.239661,-1.61952 -0.47943,-3.2391 -0.719335,-4.85884 -0.119763,-1.34028 -0.239652,-2.680627 -0.359668,-4.021115 1.26e-4,-1.172728 1.26e-4,-2.345531 0,-3.518478" />
    <path
       id="path7010-87-9"
       style="fill:#009500;fill-opacity:1;stroke:#131313;stroke-width:0.10638;stroke-linecap:round;paint-order:stroke fill markers"
       d="m 41.760541,60.250204 c -0.52041,0.0037 -1.03428,0.05545 -1.48477,0.164303 -1.20132,0.290278 -1.95192,0.98688 -2.37735,1.886789 -0.42545,0.899909 -0.52568,2.003128 -0.50064,3.048162 0.025,1.044962 0.17533,2.031954 -0.19999,2.438294 -0.37534,0.406286 -1.276475,0.232073 -2.477733,0.261101 -1.201264,0.02903 -2.702821,0.261224 -3.804017,0.754715 -1.101189,0.493492 -1.801848,1.248084 -2.202258,2.235086 -0.400416,0.986938 -0.500379,2.206239 -0.450314,3.541538 0.05007,1.335241 0.250059,2.786633 -0.175345,3.541303 -0.425404,0.75467 -1.476292,0.812784 -2.076977,1.335281 -0.600679,0.522556 -0.750856,1.509476 -0.926035,3.222074 -0.17518,1.712652 -0.375494,4.151096 0.47547,5.805688 0.85097,1.654537 2.752848,2.525305 4.60477,3.338089 1.851915,0.81278 3.653824,1.567618 5.230428,1.97398 1.576601,0.406363 2.928051,0.464451 4.805021,0.78378 1.87696,0.319324 4.27955,0.899795 7.30765,1.073948 3.02809,0.174149 6.68178,-0.05812 9.55972,-0.435485 2.87801,-0.377371 4.98022,-0.899918 6.48175,-1.741708 1.50148,-0.841785 2.40233,-2.002899 2.85282,-3.193009 0.4505,-1.19011 0.45042,-2.409062 0.0252,-3.425051 -0.42538,-1.015934 -1.27611,-1.828981 -2.50239,-2.322504 -1.2262,-0.493524 -2.82807,-0.667677 -3.3537,-0.986993 -0.52561,-0.319315 0.0252,-0.783765 0.70088,-1.306217 0.67571,-0.522506 1.47648,-1.102931 2.00201,-1.770535 0.52548,-0.667605 0.77571,-1.422488 0.85082,-2.322274 0.0751,-0.899845 -0.0249,-1.944834 -0.45032,-2.844716 -0.42539,-0.899881 -1.17613,-1.654587 -2.47747,-2.322273 -1.30136,-0.667686 -3.15342,-1.248143 -3.77911,-2.002809 -0.62576,-0.754724 -0.0251,-1.68366 0.22515,-2.670571 0.2503,-0.986852 0.1505,-2.031909 -0.0249,-3.01886 -0.17517,-0.986943 -0.42544,-1.915875 -1.52654,-2.554549 -1.10104,-0.638668 -3.05303,-0.987015 -4.50464,-0.435485 -1.45161,0.551529 -2.40274,2.002911 -3.25357,2.119063 -0.85082,0.116158 -1.60151,-1.102945 -2.17711,-2.002809 -0.57558,-0.899864 -0.97596,-1.480265 -2.002,-1.828662 -0.64128,-0.217751 -1.52711,-0.344915 -2.39446,-0.338684 z" />
    <path
       id="path7010-5-38-8"
       style="fill:#36b40f;fill-opacity:1;stroke:#131313;stroke-width:0.0840029;stroke-linecap:round;paint-order:stroke fill markers"
       d="m 43.410601,65.040538 c -0.32724,-9.07e-4 -0.67704,0.02005 -1.02314,0.0225 0,0 -0.82538,0.04359 -1.1849,0.128675 -0.95873,0.226802 -1.55783,0.770975 -1.89736,1.474039 -0.33953,0.70314 -0.41948,1.565068 -0.39949,2.381576 0.02,0.816449 0.14004,1.587579 -0.1595,1.905071 -0.29954,0.317487 -1.01874,0.181251 -1.97736,0.203911 -0.958683,0.02268 -2.157138,0.20413 -3.03596,0.58971 -0.878823,0.385581 -1.437928,0.975517 -1.757481,1.746629 -0.319553,0.771179 -0.399197,1.723583 -0.359245,2.766898 0.03997,1.043248 0.199379,2.177552 -0.140125,2.767135 -0.339431,0.589651 -1.177968,1.125745 -1.657355,1.53404 -0.479386,0.40829 -0.695161,1.045529 -0.834966,2.383685 -0.139805,1.338144 -0.203831,2.886281 0.475219,4.179059 0.272702,0.519086 1.875971,0.990444 2.421881,0.833235 0.513975,-0.154836 1.9782,-0.328663 2.490057,-0.489156 0.142585,-0.04738 0.285577,-0.09593 0.427924,-0.145787 0.05293,-0.03207 0.10553,-0.06475 0.159748,-0.09516 0.343101,-0.197711 1.407683,-0.713618 1.558743,-0.835344 0.36097,-0.305482 0.70484,-0.626657 1.06414,-0.933785 0.33115,-0.278078 0.69123,-0.528276 0.99396,-0.833467 0.23366,-0.213455 0.43921,-0.447628 0.65585,-0.675025 0.19743,-0.194518 0.37263,-0.405487 0.57635,-0.594399 0.26725,-0.270667 0.54076,-0.535764 0.80881,-0.805809 0.35097,-0.349504 0.73824,-0.666275 1.08855,-1.016288 0.25919,-0.271818 0.49412,-0.561267 0.73433,-0.847064 0.2121,-0.287494 0.43174,-0.568923 0.6161,-0.872609 0.19537,-0.289807 0.31921,-0.615622 0.43321,-0.938004 0.109,-0.313528 0.24908,-0.614084 0.38013,-0.919724 0.14544,-0.373103 1.10643,-2.502795 1.15546,-2.635643 0.0697,-0.188935 0.10283,-0.390357 0.18289,-0.57682 0.0982,-0.305949 0.21092,-0.608224 0.30239,-0.915502 0.0729,-0.360889 0.14498,-0.721269 0.21636,-1.082385 0.0848,-0.372935 0.16849,-0.746524 0.23396,-1.122698 0.0606,-0.301272 0.11255,-0.603679 0.18037,-0.903782 0.0788,-0.34158 0.10638,-0.693189 0.21183,-1.030352 0.09,-0.370722 -0.0679,-1.105431 -0.0174,-1.481772 0.0367,-0.266549 -0.27393,-1.124553 -0.48629,-1.449665 -0.45936,-0.7031 -0.73108,-1.335186 -1.54993,-1.607404 -0.25586,-0.08507 -0.56056,-0.107675 -0.8878,-0.108519 z m 18.83945,21.376264 c -0.005,0.0036 -0.0101,0.0071 -0.0153,0.01052 0.011,0.021 0.0209,0.04241 0.0317,0.06352 -0.005,-0.02495 -0.011,-0.04931 -0.0163,-0.07407 z m -8.7064,5.448015 c -0.0118,0.0027 -0.0237,0.0059 -0.0355,0.0089 0.008,0.01714 0.0152,0.03438 0.0216,0.05157 0.004,-1.18e-4 0.008,-4.54e-4 0.0116,-4.54e-4 9.8e-4,-0.02 10e-4,-0.04 0.002,-0.06 z" />
    <path
       id="path7010-0-2-1"
       style="fill:#007700;fill-opacity:1;stroke:#131313;stroke-width:0.10638;stroke-linecap:round;paint-order:stroke fill markers"
       d="m 53.393431,61.90786 v 2.34e-4 c -0.5363,0.0087 -1.06633,0.09256 -1.54264,0.273526 -1.11417,0.423329 -1.95876,1.327315 -2.66421,1.800164 0.0316,0.03229 0.68758,-0.167593 1.15856,-0.194167 0.0808,-0.0046 0.16109,-0.0072 0.241,-0.008 0.55942,-0.0053 1.09819,0.08277 1.62868,0.26251 0.56459,0.230185 1.01451,0.61163 1.4166,1.036915 0.29937,0.380686 0.58728,0.769591 0.82163,1.188559 0.22867,0.44867 0.41911,0.913098 0.55849,1.392475 0.12113,0.455075 0.17488,0.921711 0.21208,1.388257 0.0268,0.37728 0.0348,0.755735 0.0403,1.13371 0.006,0.0936 0.006,0.186925 0.003,0.280091 0.0503,0.01669 0.0999,0.03565 0.14892,0.05602 0.10246,0.04637 0.19841,0.103575 0.2873,0.169695 0.0525,0.03551 0.0991,0.07708 0.1449,0.119536 0.009,0.0059 0.0174,0.01175 0.0262,0.0176 0.11074,0.07351 0.21608,0.154097 0.31975,0.236024 0.0875,0.06616 0.17316,0.13375 0.25383,0.207195 0.0877,0.08002 0.17555,0.159966 0.25862,0.244228 0.0346,0.03583 0.0691,0.07186 0.10365,0.107816 0.099,0.07114 0.19488,0.146028 0.28679,0.225007 0.0894,0.07221 0.17623,0.146532 0.25861,0.225714 0.0695,0.06501 0.13843,0.130666 0.20101,0.201571 0.0548,0.05531 0.10678,0.112823 0.16025,0.169224 0.01,0.01052 0.0192,0.02127 0.0284,0.03211 0.0362,0.03021 0.0725,0.06066 0.10792,0.09164 0.0754,0.07128 0.14919,0.144195 0.22038,0.219151 0.0845,0.07863 0.15127,0.170556 0.22063,0.260398 0.059,0.07096 0.11056,0.147003 0.16529,0.220788 0.0501,0.07096 0.10752,0.137007 0.15572,0.209073 0.038,0.06144 0.0787,0.121781 0.12427,0.178599 0.0569,0.07361 0.1102,0.149303 0.15975,0.227351 0.0806,0.118311 0.15663,0.238791 0.22516,0.363529 0.0481,0.08957 0.0958,0.179147 0.14239,0.26931 0.0639,0.08273 0.11154,0.174898 0.16453,0.263682 0.0552,0.08616 0.10794,0.173305 0.1605,0.260865 0.0524,0.08692 0.0974,0.177424 0.14365,0.267201 0.0404,0.07683 0.0801,0.15378 0.11899,0.231334 0.0359,0.08323 0.0853,0.16037 0.1283,0.240478 0.0485,0.0939 0.0953,0.188695 0.13812,0.285013 0.0291,0.06821 0.0574,0.136186 0.0833,0.205317 0.14337,0.256416 0.25874,0.527155 0.36729,0.797377 0.13859,0.362971 0.1906,0.745322 0.22667,1.126916 0.03,0.365705 0.0356,0.732681 0.041,1.099257 3.1e-4,0.02767 0.1011,0.733666 0.005,0.944802 2.2e-4,0.08188 -0.12545,1.079619 -0.27953,1.524634 -0.18396,0.408281 -0.38873,0.839417 -0.70537,1.163513 -0.22276,0.230636 -0.47434,0.434139 -0.70315,0.659323 -0.0697,0.06162 -0.73412,0.414241 -0.75799,0.43525 0.0217,0.140395 1.56774,0.702523 1.94994,0.996834 0.44395,0.35551 1.06056,0.89252 1.39496,1.334578 0.25211,0.380855 0.72069,1.653409 0.83296,2.038436 0.12764,0.428387 0.22573,0.86073 0.29308,1.300833 0.0678,0.469566 0.0918,0.943042 0.11044,1.416147 0.0494,0.580135 -0.0761,1.063557 -0.38491,1.566855 -0.32219,0.504976 -0.92716,1.095225 -1.4659,1.365987 -0.40577,0.165332 -2.1201,0.866078 -2.12108,0.895577 1.59204,-0.329266 3.80304,-1.014015 4.80635,-1.576461 1.50152,-0.841785 2.40263,-2.003031 2.85307,-3.19301 0.4505,-1.19011 0.45008,-2.409062 0.0252,-3.42505 -0.4253,-1.015952 -1.27638,-1.82875 -2.50263,-2.322274 -1.2262,-0.493523 -2.82783,-0.667677 -3.35345,-0.986992 -0.52555,-0.319257 0.0249,-0.783943 0.70062,-1.306453 0.67572,-0.522465 1.47655,-1.102931 2.00201,-1.770536 0.52554,-0.667604 0.77572,-1.422469 0.85082,-2.322273 0.0751,-0.899845 -0.0249,-1.944834 -0.45032,-2.844716 -0.42538,-0.899823 -1.17616,-1.654588 -2.47748,-2.322273 -1.30128,-0.667686 -3.15312,-1.248126 -3.77886,-2.002809 -0.62573,-0.754724 -0.0254,-1.683729 0.22491,-2.670567 0.2503,-0.986915 0.15065,-2.031927 -0.0252,-3.018865 -0.17516,-0.986935 -0.42575,-1.915874 -1.52679,-2.554549 -0.68819,-0.399172 -1.70858,-0.684776 -2.73157,-0.708307 h -4.8e-4 c -0.0766,-0.0018 -0.15341,-0.0019 -0.22994,-9.52e-4 z"
       sodipodi:nodetypes="ccsccccccccccccccccccccccccccccccccccccccccccccccccccccccccsccsccscscsccsssc" />
    <path
       style="fill:#2b1100;fill-opacity:1;stroke:#131313;stroke-width:0.114185;stroke-linecap:round;paint-order:stroke fill markers"
       d="m 41.441921,94.84933 c 0,2.680862 0,5.36161 -0.08993,7.37218 -0.08993,2.01056 -0.269755,3.3509 -0.749322,4.83088 -0.479568,1.47999 -1.258827,3.09957 0.329816,3.93728 1.588643,0.83771 5.544893,0.89356 7.223295,0.27928 1.678403,-0.61428 1.078978,-1.89877 0.659342,-3.35086 -0.419637,-1.4521 -0.659408,-3.07167 -0.839247,-4.55169 -0.17984,-1.48001 -0.299727,-2.82036 -0.359678,-4.076975 -0.05995,-1.256615 -0.05995,-2.429418 -0.05995,-3.602365"
       id="path9162-0-7"
       inkscape:path-effect="#path-effect9164-86-8"
       inkscape:original-d="m 41.441921,94.84933 c 1.3e-4,2.680862 1.3e-4,5.36161 0,8.04224 -0.17971,1.34052 -0.35953,2.68086 -0.5395,4.02111 -0.77916,1.61977 -1.55842,3.23935 -2.33783,4.85885 3.95654,0.056 7.91279,0.11181 11.86898,0.16754 -0.59932,-1.28443 -1.19875,-2.56892 -1.79832,-3.85357 -0.23966,-1.61952 -0.47943,-3.2391 -0.71933,-4.85884 -0.11977,-1.34028 -0.23966,-2.68063 -0.35967,-4.021125 1.2e-4,-1.172725 1.2e-4,-2.345528 0,-3.518475" />
    <path
       id="path7010-01"
       style="fill:#009500;fill-opacity:1;stroke:#131313;stroke-width:0.0774833;stroke-linecap:round;paint-order:stroke fill markers"
       d="m 131.39689,29.490386 c -0.36202,0.0028 -0.71949,0.04229 -1.03287,0.125301 -0.83569,0.221373 -1.35784,0.752618 -1.65379,1.43891 -0.29596,0.686292 -0.36568,1.527634 -0.34826,2.324601 0.0174,0.796913 0.12196,1.549617 -0.13913,1.859502 -0.2611,0.309843 -0.88797,0.176984 -1.72362,0.199122 -0.83565,0.02214 -1.8802,0.199215 -2.64624,0.575563 -0.76604,0.376349 -1.25345,0.951815 -1.53199,1.704525 -0.27855,0.75267 -0.34809,1.68254 -0.31326,2.70087 0.0348,1.01828 0.17395,2.12515 -0.12198,2.70068 -0.29593,0.57553 -1.02697,0.61985 -1.44483,1.01832 -0.41786,0.39851 -0.52233,1.15116 -0.6442,2.45723 -0.12186,1.30611 -0.26121,3.16572 0.33076,4.42755 0.59197,1.26179 1.91501,1.92586 3.20329,2.54571 1.28827,0.61984 2.54176,1.1955 3.63851,1.5054 1.09675,0.3099 2.03688,0.3542 3.34259,0.59773 1.3057,0.24353 2.97704,0.68621 5.08353,0.81902 2.10647,0.13281 4.64815,-0.0443 6.65017,-0.33211 2.00208,-0.28779 3.46447,-0.6863 4.509,-1.32827 1.04449,-0.64196 1.67117,-1.52746 1.98455,-2.43506 0.31339,-0.90761 0.31333,-1.83721 0.0175,-2.61203 -0.29592,-0.77477 -0.88772,-1.39482 -1.74078,-1.7712 -0.853,-0.37637 -1.96733,-0.50918 -2.33298,-0.7527 -0.36564,-0.24352 0.0175,-0.59772 0.48756,-0.99615 0.47006,-0.39848 1.0271,-0.84112 1.39269,-1.35026 0.36554,-0.50913 0.53962,-1.08482 0.59186,-1.77102 0.0523,-0.68624 -0.0173,-1.48317 -0.31325,-2.16944 -0.29592,-0.68628 -0.81817,-1.26183 -1.72345,-1.77103 -0.90528,-0.50919 -2.19366,-0.95186 -2.62892,-1.52739 -0.4353,-0.57557 -0.0175,-1.283995 0.15663,-2.036637 0.17412,-0.752596 0.1047,-1.549582 -0.0173,-2.302255 -0.12185,-0.752665 -0.29595,-1.461092 -1.06193,-1.94816 -0.76593,-0.487063 -2.12382,-0.752721 -3.13363,-0.332111 -1.0098,0.42061 -1.67146,1.527468 -2.26333,1.616048 -0.59187,0.08859 -1.11408,-0.841132 -1.51449,-1.527389 -0.4004,-0.686258 -0.67892,-1.128886 -1.39269,-1.394581 -0.4461,-0.166063 -1.06232,-0.263041 -1.66569,-0.258289 z" />
    <path
       id="path7010-5-9"
       style="fill:#36b40f;fill-opacity:1;stroke:#131313;stroke-width:0.0611848;stroke-linecap:round;paint-order:stroke fill markers"
       d="m 132.54475,33.143609 c -0.22764,-6.92e-4 -0.47098,0.01529 -0.71174,0.01716 0,0 -0.57417,0.03324 -0.82427,0.09813 -0.66694,0.172965 -1.0837,0.587964 -1.31989,1.124137 -0.23619,0.536232 -0.29181,1.193558 -0.27791,1.816247 0.0139,0.622637 0.0974,1.210727 -0.11095,1.452847 -0.20837,0.24213 -0.70868,0.13823 -1.37553,0.15551 -0.66691,0.0173 -1.50061,0.15567 -2.11196,0.44973 -0.61134,0.29405 -1.00028,0.74395 -1.22258,1.33202 -0.22229,0.58812 -0.2777,1.31444 -0.2499,2.1101 0.0278,0.79561 0.13869,1.66065 -0.0975,2.11028 -0.23613,0.44968 -0.81945,0.85852 -1.15293,1.1699 -0.33349,0.31137 -0.48359,0.79734 -0.58084,1.81785 -0.0973,1.0205 -0.1418,2.20115 0.33058,3.18705 0.18971,0.39587 1.30501,0.75534 1.68477,0.63545 0.35754,-0.11808 1.37612,-0.25065 1.73219,-0.37304 0.0992,-0.0361 0.19866,-0.0732 0.29769,-0.11118 0.0368,-0.0245 0.0734,-0.0494 0.11112,-0.0726 0.23868,-0.15078 0.97925,-0.54422 1.08433,-0.63705 0.25111,-0.23297 0.49033,-0.4779 0.74027,-0.71213 0.23036,-0.21207 0.48085,-0.40287 0.69144,-0.63562 0.16255,-0.16278 0.30554,-0.34137 0.45624,-0.51479 0.13734,-0.14834 0.25922,-0.30923 0.40094,-0.4533 0.18591,-0.20642 0.37617,-0.40859 0.56264,-0.61453 0.24415,-0.26654 0.51355,-0.50812 0.75724,-0.77505 0.18031,-0.20729 0.34374,-0.42803 0.51084,-0.64599 0.14755,-0.21925 0.30034,-0.43387 0.42858,-0.66547 0.13591,-0.22101 0.22206,-0.46949 0.30136,-0.71534 0.0758,-0.23911 0.17328,-0.46832 0.26443,-0.70141 0.10118,-0.28454 0.76969,-1.90869 0.8038,-2.01 0.0485,-0.14409 0.0715,-0.2977 0.12723,-0.4399 0.0683,-0.23332 0.14673,-0.46384 0.21036,-0.69818 0.0507,-0.27522 0.10084,-0.55006 0.1505,-0.82545 0.059,-0.28441 0.11722,-0.56932 0.16275,-0.8562 0.0422,-0.22976 0.0783,-0.46038 0.12548,-0.68925 0.0548,-0.26049 0.074,-0.52864 0.14735,-0.78577 0.0626,-0.282716 -0.0472,-0.843023 -0.0121,-1.13003 0.0256,-0.203276 -0.19055,-0.85761 -0.33828,-1.105548 -0.31955,-0.536201 -0.50857,-1.018245 -1.0782,-1.225845 -0.17799,-0.06487 -0.38995,-0.08212 -0.61759,-0.08276 z m 13.10557,16.302051 c -0.004,0.003 -0.007,0.005 -0.0107,0.008 0.008,0.016 0.0146,0.0323 0.022,0.0484 -0.003,-0.019 -0.008,-0.0376 -0.0114,-0.0565 z m -6.05656,4.15478 c -0.008,0.002 -0.0165,0.005 -0.0247,0.007 0.006,0.0131 0.0106,0.0262 0.015,0.0393 0.003,-9e-5 0.005,-3.5e-4 0.008,-3.5e-4 6.8e-4,-0.0152 0.001,-0.0305 0.002,-0.0458 z" />
    <path
       id="path7010-0-8"
       style="fill:#007700;fill-opacity:1;stroke:#131313;stroke-width:0.0774833;stroke-linecap:round;paint-order:stroke fill markers"
       d="m 139.48926,30.754554 v 1.78e-4 c -0.37308,0.0066 -0.74179,0.07059 -1.07313,0.208598 -0.77507,0.32284 -1.3626,1.012242 -1.85335,1.372848 0.0219,0.02463 0.47832,-0.127811 0.80595,-0.148077 0.0562,-0.0035 0.11206,-0.0055 0.16765,-0.0061 0.38916,-0.004 0.76395,0.06312 1.13298,0.200196 0.39276,0.175545 0.70574,0.466444 0.98545,0.790776 0.20826,0.290321 0.40854,0.586909 0.57157,0.906423 0.15907,0.342168 0.29155,0.696351 0.38851,1.061935 0.0843,0.347051 0.12165,0.702919 0.14753,1.058718 0.0187,0.287731 0.0242,0.576341 0.028,0.864601 0.004,0.0714 0.004,0.14255 0.002,0.2136 0.035,0.0127 0.0695,0.0272 0.10361,0.0427 0.0713,0.0354 0.13801,0.079 0.19985,0.12941 0.0365,0.0271 0.069,0.0588 0.1008,0.0912 0.006,0.004 0.0121,0.009 0.0182,0.0134 0.077,0.0561 0.15032,0.11752 0.22243,0.18 0.0609,0.0505 0.12046,0.102 0.17658,0.15801 0.061,0.061 0.12212,0.122 0.17991,0.18626 0.0241,0.0273 0.0481,0.0548 0.0721,0.0822 0.0689,0.0543 0.13557,0.11137 0.1995,0.1716 0.0622,0.0551 0.1226,0.11174 0.17991,0.17213 0.0483,0.0496 0.0963,0.0996 0.13983,0.15372 0.0381,0.0422 0.0743,0.0861 0.11148,0.12906 0.007,0.008 0.0133,0.0162 0.0198,0.0245 0.0252,0.023 0.0504,0.0463 0.0751,0.0699 0.0524,0.0543 0.10378,0.10996 0.1533,0.16713 0.0588,0.06 0.10523,0.13007 0.15348,0.19858 0.0411,0.0541 0.0769,0.11211 0.11498,0.16838 0.0349,0.0541 0.0748,0.10448 0.10833,0.15944 0.0264,0.0469 0.0547,0.0929 0.0864,0.13621 0.0396,0.0561 0.0767,0.11386 0.11113,0.17338 0.056,0.0902 0.10896,0.18211 0.15663,0.27724 0.0335,0.0683 0.0666,0.13662 0.0991,0.20538 0.0444,0.0631 0.0776,0.13338 0.11446,0.20109 0.0384,0.0657 0.0751,0.13217 0.11165,0.19894 0.0365,0.0663 0.0677,0.13531 0.0999,0.20378 0.0281,0.0586 0.0558,0.11727 0.0828,0.17642 0.025,0.0635 0.0593,0.1223 0.0892,0.18339 0.0338,0.0716 0.0663,0.1439 0.0961,0.21736 0.0202,0.052 0.04,0.10386 0.0579,0.15658 0.0997,0.19555 0.17999,0.40202 0.2555,0.6081 0.0964,0.27681 0.13259,0.5684 0.15768,0.85941 0.0209,0.27889 0.0248,0.55876 0.0285,0.83832 2.1e-4,0.0211 0.0703,0.55951 0.003,0.72053 1.5e-4,0.0624 -0.0873,0.82334 -0.19446,1.16272 -0.12797,0.31136 -0.27041,0.64016 -0.49069,0.88732 -0.15495,0.17589 -0.32997,0.33109 -0.48913,0.50282 -0.0485,0.047 -0.51069,0.31591 -0.52729,0.33193 0.0151,0.10707 1.09058,0.53576 1.35646,0.76021 0.30883,0.27112 0.73777,0.68066 0.9704,1.01778 0.17537,0.29045 0.50134,1.26093 0.57944,1.55456 0.0888,0.3267 0.15703,0.65641 0.20388,0.99205 0.0472,0.3581 0.0639,0.71918 0.0768,1.07998 0.0344,0.44243 -0.0529,0.8111 -0.26775,1.19492 -0.22414,0.38511 -0.64498,0.83525 -1.01975,1.04174 -0.28227,0.12609 -1.47484,0.66049 -1.47552,0.68299 1.1075,-0.25111 2.64557,-0.77331 3.34351,-1.20225 1.04453,-0.64196 1.67138,-1.52756 1.98473,-2.43506 0.31339,-0.90761 0.31309,-1.83721 0.0175,-2.61203 -0.29586,-0.77479 -0.88791,-1.39465 -1.74095,-1.77102 -0.853,-0.37637 -1.96716,-0.50919 -2.33281,-0.7527 -0.36559,-0.24348 0.0173,-0.59786 0.48739,-0.99634 0.47006,-0.39844 1.02715,-0.84112 1.39269,-1.35025 0.36558,-0.50913 0.53962,-1.08481 0.59186,-1.77102 0.0523,-0.68624 -0.0173,-1.48318 -0.31326,-2.16945 -0.29592,-0.68623 -0.81819,-1.26183 -1.72344,-1.77102 -0.90524,-0.50919 -2.19345,-0.95185 -2.62874,-1.52739 -0.43529,-0.57557 -0.0177,-1.284054 0.15645,-2.036641 0.17412,-0.752645 0.1048,-1.549595 -0.0175,-2.302258 -0.12185,-0.75266 -0.29617,-1.461091 -1.0621,-1.94816 -0.47874,-0.304418 -1.18857,-0.522227 -1.9002,-0.540172 h -3.4e-4 c -0.0533,-0.0014 -0.10672,-0.0014 -0.15996,-7.26e-4 z"
       sodipodi:nodetypes="ccsccccccccccccccccccccccccccccccccccccccccccccccccccccccccsccsccscscsccsssc" />
    <path
       style="fill:#2b1100;fill-opacity:1;stroke:#131313;stroke-width:0.0831682;stroke-linecap:round;paint-order:stroke fill markers"
       d="m 131.17525,55.8765 c 0,2.04449 0,4.08889 -0.0626,5.622194 -0.0625,1.533305 -0.18765,2.555484 -0.52126,3.684156 -0.33361,1.128672 -0.8757,2.363811 0.22944,3.002663 1.10513,0.638853 3.85727,0.681445 5.02484,0.21298 1.16758,-0.468465 0.75059,-1.448046 0.45867,-2.555449 -0.29192,-1.107403 -0.45872,-2.342534 -0.58382,-3.471225 -0.1251,-1.128691 -0.2085,-2.150872 -0.25021,-3.109196 -0.0417,-0.958323 -0.0417,-1.852733 -0.0417,-2.747243"
       id="path9162-2"
       inkscape:path-effect="#path-effect9164-52"
       inkscape:original-d="m 131.17525,55.8765 c 9e-5,2.04449 9e-5,4.08889 0,6.1332 -0.12502,1.02231 -0.25011,2.04449 -0.3753,3.0666 -0.54202,1.23527 -1.08411,2.47041 -1.6263,3.70547 2.75235,0.0427 5.50449,0.0853 8.2566,0.12778 -0.41692,-0.97954 -0.83391,-1.95912 -1.251,-2.93883 -0.16671,-1.23509 -0.33351,-2.47022 -0.5004,-3.70547 -0.0833,-1.02213 -0.16671,-2.04431 -0.2502,-3.0666 9e-5,-0.89435 9e-5,-1.78876 0,-2.68327" />
    <path
       id="path7010-51"
       style="fill:#009500;fill-opacity:1;stroke:#131313;stroke-width:0.22639;stroke-linecap:round;paint-order:stroke fill markers"
       d="m 35.533724,167.17289 c -1.069,0.008 -2.12457,0.12226 -3.04995,0.36225 -2.46767,0.64 -4.0095,2.17585 -4.88342,4.15996 -0.87392,1.98409 -1.0798,4.41645 -1.02836,6.72052 0.0514,2.30391 0.36015,4.48001 -0.41083,5.3759 -0.77099,0.89577 -2.62205,0.51167 -5.08961,0.57567 -2.46757,0.064 -5.55198,0.57594 -7.81399,1.66398 -2.262,1.08804 -3.7012603,2.75175 -4.5237603,4.92787 -0.82251,2.17598 -1.02785,4.86427 -0.92501,7.80831 0.10284,2.94391 0.51366,6.14391 -0.36018,7.80779 -0.87384,1.66388 -3.03251,1.79201 -4.26641,2.944 -1.23388,1.15212 -1.54236,3.32806 -1.90221,7.10396 -0.35983998,3.77602 -0.77130998,9.15225 0.97669,12.80026 1.74801,3.64789 5.65474,5.56774 9.4588503,7.35975 3.8041,1.792 7.50548,3.45625 10.74405,4.35219 3.23856,0.89594 6.01464,1.02401 9.8702,1.72806 3.85556,0.70404 8.79081,1.98385 15.01097,2.36782 6.22012,0.38396 13.72533,-0.12814 19.63704,-0.96015 5.91184,-0.83202 10.23008,-1.98412 13.31444,-3.84008 3.08424,-1.85595 4.93473,-4.41595 5.8601,-7.03988 0.92539,-2.62393 0.92523,-5.31145 0.0517,-7.55148 -0.87379,-2.23991 -2.62132,-4.0325 -5.14026,-5.12061 -2.51881,-1.08811 -5.80928,-1.47208 -6.88898,-2.1761 -1.07969,-0.70402 0.0517,-1.72803 1.4397,-2.87992 1.38801,-1.15201 3.03289,-2.43172 4.11242,-3.90364 1.0794,-1.47192 1.59342,-3.13627 1.74769,-5.1201 0.15427,-1.98396 -0.0512,-4.28793 -0.92501,-6.27197 -0.87381,-1.98404 -2.41594,-3.648 -5.08909,-5.1201 -2.67316,-1.4721 -6.47757,-2.75188 -7.76283,-4.41575 -1.28539,-1.664 -0.0516,-3.7121 0.4625,-5.88802 0.51415,-2.17579 0.30915,-4.47991 -0.0512,-6.65592 -0.35982,-2.17599 -0.87392,-4.22408 -3.13573,-5.63222 -2.26169,-1.40812 -6.27137,-2.17615 -9.25318,-0.96014 -2.98181,1.216 -4.93558,4.41597 -6.68331,4.67206 -1.74771,0.2561 -3.28972,-2.43175 -4.47208,-4.41575 -1.18234,-1.984 -2.00477,-3.26366 -4.11241,-4.0318 -1.31728,-0.48009 -3.1369,-0.76046 -4.91856,-0.74672 z" />
    <path
       id="path7010-5-8"
       style="fill:#36b40f;fill-opacity:1;stroke:#131313;stroke-width:0.178769;stroke-linecap:round;paint-order:stroke fill markers"
       d="m 38.923184,177.73452 c -0.6722,-0.002 -1.39074,0.0442 -2.10169,0.0496 0,0 -1.69545,0.0961 -2.43395,0.2837 -1.96937,0.50005 -3.2,1.69983 -3.89744,3.24993 -0.69744,1.55027 -0.86168,3.45063 -0.82062,5.25085 0.041,1.80009 0.28766,3.50026 -0.32763,4.20026 -0.61529,0.69999 -2.09264,0.39962 -4.06177,0.44958 -1.96929,0.05 -4.43109,0.45006 -6.23631,1.30018 -1.80523,0.85012 -2.95371,2.1508 -3.61012,3.85093 -0.65641,1.70028 -0.82001,3.80012 -0.73794,6.1004 0.0821,2.30013 0.40955,4.80102 -0.28783,6.10092 -0.69724,1.30005 -2.41972,2.48202 -3.40445,3.38222 -0.98473,0.90019 -1.4279603,2.30516 -1.7151403,5.2555 -0.28718,2.95031 -0.4187,6.36361 0.9761703,9.2139 0.56017,1.14447 3.85351,2.18371 4.97489,1.8371 1.05578,-0.34138 4.0635,-0.72463 5.11493,-1.07848 0.29289,-0.10446 0.58662,-0.21151 0.87902,-0.32143 0.10873,-0.0707 0.21677,-0.14275 0.32814,-0.20981 0.70478,-0.43591 2.8916,-1.57337 3.20188,-1.84175 0.74148,-0.67352 1.44786,-1.38164 2.18591,-2.05879 0.68023,-0.6131 1.41988,-1.16473 2.04173,-1.83761 0.47997,-0.47062 0.90221,-0.98692 1.34721,-1.48828 0.40555,-0.42887 0.76544,-0.89401 1.18391,-1.31052 0.54896,-0.59676 1.11078,-1.18124 1.66139,-1.77663 0.72095,-0.77058 1.51646,-1.46899 2.23604,-2.24069 0.53242,-0.5993 1.01502,-1.23747 1.50844,-1.86759 0.43568,-0.63386 0.88685,-1.25435 1.26555,-1.92391 0.40131,-0.63896 0.65569,-1.35731 0.88987,-2.06809 0.2239,-0.69126 0.51165,-1.35392 0.78083,-2.02779 0.29876,-0.82261 2.27277,-5.51811 2.3735,-5.81101 0.14325,-0.41656 0.21122,-0.86065 0.37569,-1.27176 0.20178,-0.67455 0.43326,-1.341 0.62115,-2.01848 0.1498,-0.79568 0.2978,-1.59024 0.44442,-2.38642 0.1742,-0.82224 0.34612,-1.64592 0.48059,-2.4753 0.12453,-0.66424 0.23119,-1.33098 0.37052,-1.99264 0.16187,-0.75311 0.2185,-1.52833 0.43511,-2.2717 0.18486,-0.81736 -0.13945,-2.43723 -0.0357,-3.26698 0.0755,-0.58768 -0.56268,-2.47939 -0.9989,-3.19619 -0.9436,-1.55018 -1.50175,-2.94379 -3.18379,-3.54397 -0.52556,-0.18755 -1.15146,-0.2374 -1.82366,-0.23926 z m 38.69892,47.12994 c -0.0106,0.008 -0.0208,0.0156 -0.0315,0.0232 0.0225,0.0463 0.043,0.0935 0.0651,0.14005 -0.01,-0.055 -0.0227,-0.10872 -0.0336,-0.1633 z m -17.88418,12.01167 c -0.0243,0.006 -0.0487,0.0131 -0.0729,0.0196 0.0169,0.0378 0.0313,0.0758 0.0444,0.11369 0.008,-2.6e-4 0.0159,-0.001 0.0238,-0.001 0.002,-0.0441 0.003,-0.0882 0.005,-0.13229 z" />
    <path
       id="path7010-0-4"
       style="fill:#007700;fill-opacity:1;stroke:#131313;stroke-width:0.22639;stroke-linecap:round;paint-order:stroke fill markers"
       d="m 59.429344,170.82766 v 5.1e-4 c -1.10164,0.0192 -2.19039,0.20407 -3.1688,0.60307 -2.28866,0.93334 -4.02358,2.92643 -5.47268,3.96896 0.0648,0.0712 1.4124,-0.3695 2.37985,-0.4281 0.16598,-0.0101 0.3309,-0.0159 0.49506,-0.0176 1.14912,-0.0116 2.25583,0.18249 3.34553,0.57878 1.15975,0.50751 2.08395,1.34851 2.9099,2.28617 0.61495,0.83933 1.20637,1.69678 1.68775,2.62051 0.46973,0.98922 0.86091,2.01318 1.14722,3.0701 0.24882,1.00334 0.35923,2.03217 0.43563,3.0608 0.0551,0.83182 0.0714,1.66623 0.0827,2.49958 0.0126,0.20638 0.0129,0.41213 0.006,0.61754 0.10336,0.0368 0.20516,0.0786 0.30592,0.1235 0.21046,0.10224 0.40755,0.22836 0.59015,0.37414 0.10777,0.0783 0.20365,0.16994 0.29765,0.26355 0.0179,0.0129 0.0358,0.0259 0.0538,0.0388 0.22748,0.16208 0.44386,0.33975 0.6568,0.52038 0.17973,0.14588 0.35571,0.29489 0.52142,0.45682 0.18007,0.17643 0.36059,0.35269 0.53123,0.53847 0.0711,0.079 0.14195,0.15843 0.21291,0.23771 0.20338,0.15685 0.40031,0.32196 0.58911,0.49609 0.18368,0.15921 0.362,0.32307 0.53123,0.49765 0.14279,0.14333 0.28436,0.28809 0.4129,0.44442 0.11251,0.12195 0.21934,0.24875 0.32918,0.3731 0.0199,0.0232 0.0394,0.0469 0.0584,0.0708 0.0744,0.0666 0.14884,0.13374 0.22169,0.20205 0.15489,0.15715 0.30645,0.31792 0.45269,0.48318 0.17349,0.17337 0.31072,0.37604 0.4532,0.57412 0.12125,0.15645 0.2271,0.32411 0.33952,0.48679 0.10293,0.15646 0.22087,0.30207 0.31987,0.46096 0.078,0.13546 0.16158,0.2685 0.25528,0.39377 0.11681,0.16229 0.22636,0.32918 0.32815,0.50126 0.16546,0.26085 0.32174,0.52648 0.4625,0.8015 0.0988,0.19749 0.19683,0.39498 0.29249,0.59377 0.13126,0.1824 0.22912,0.38561 0.33797,0.58136 0.11334,0.18996 0.22173,0.3821 0.32969,0.57515 0.10766,0.19163 0.19997,0.39118 0.29507,0.58912 0.083,0.16939 0.16463,0.33905 0.24443,0.51004 0.0738,0.1835 0.17525,0.35358 0.26355,0.5302 0.0997,0.20703 0.19581,0.41603 0.28371,0.62839 0.0597,0.15039 0.118,0.30026 0.17105,0.45268 0.29451,0.56534 0.5315,1.16226 0.75447,1.75804 0.28469,0.80027 0.39151,1.64327 0.46561,2.4846 0.0616,0.8063 0.0732,1.6154 0.0842,2.42362 6.3e-4,0.061 0.20767,1.61757 0.01,2.08308 4.6e-4,0.18053 -0.25769,2.38032 -0.5742,3.36148 -0.37788,0.90017 -0.79849,1.85073 -1.44893,2.56529 -0.45757,0.5085 -0.97436,0.95718 -1.44436,1.45366 -0.14322,0.13585 -1.50798,0.91331 -1.55701,0.95963 0.0446,0.30954 3.22034,1.54891 4.00544,2.1978 0.91194,0.78382 2.17854,1.96781 2.86546,2.94245 0.51785,0.8397 1.4804,3.6454 1.711,4.4943 0.26219,0.9445 0.46369,1.89772 0.60203,2.86805 0.13926,1.03529 0.18866,2.0792 0.22686,3.12229 0.10155,1.27907 -0.15629,2.34491 -0.79065,3.45457 -0.66183,1.11336 -1.90453,2.41473 -3.01118,3.0117 -0.8335,0.36452 -4.35499,1.90951 -4.35699,1.97455 3.27028,-0.72596 7.81199,-2.23568 9.87293,-3.47575 3.08433,-1.85595 4.93535,-4.41624 5.86062,-7.03988 0.92539,-2.62393 0.92452,-5.31145 0.0517,-7.55148 -0.87364,-2.23995 -2.62187,-4.03199 -5.14077,-5.1201 -2.51879,-1.08811 -5.80877,-1.47208 -6.88847,-2.1761 -1.07954,-0.70389 0.0512,-1.72842 1.43919,-2.88044 1.38801,-1.15192 3.03303,-2.43172 4.11241,-3.90364 1.07953,-1.47192 1.59343,-3.13623 1.7477,-5.1201 0.15427,-1.98396 -0.0512,-4.28793 -0.92501,-6.27197 -0.87381,-1.98391 -2.41601,-3.648 -5.0891,-5.1201 -2.67303,-1.4721 -6.47695,-2.75184 -7.76231,-4.41575 -1.28535,-1.664 -0.0521,-3.71225 0.46198,-5.88801 0.51415,-2.17593 0.30947,-4.47995 -0.0517,-6.65593 -0.35979,-2.17598 -0.87455,-4.22408 -3.13624,-5.63222 -1.41363,-0.88008 -3.50966,-1.50978 -5.61103,-1.56166 h -0.001 c -0.15743,-0.004 -0.31511,-0.004 -0.47232,-0.002 z"
       sodipodi:nodetypes="ccsccccccccccccccccccccccccccccccccccccccccccccccccccccccccsccsccscscsccsssc" />
    <path
       style="fill:#2b1100;fill-opacity:1;stroke:#131313;stroke-width:0.243;stroke-linecap:round;paint-order:stroke fill markers"
       d="m 34.879224,243.45632 c 0,5.91071 0,11.82116 -0.18472,16.25401 -0.184719,4.43284 -0.554115,7.388 -1.539217,10.65105 -0.985102,3.26304 -2.585815,6.83387 0.677488,8.68082 3.263303,1.84696 11.390003,1.97009 14.837687,0.61574 3.447684,-1.35434 2.216366,-4.18638 1.354371,-7.38792 -0.861995,-3.20154 -1.354521,-6.77236 -1.723934,-10.03545 -0.369413,-3.2631 -0.615675,-6.21827 -0.73882,-8.98882 -0.123145,-2.77056 -0.123145,-5.35633 -0.123145,-7.94242"
       id="path9162-62"
       inkscape:path-effect="#path-effect9164-1"
       inkscape:original-d="m 34.879224,243.45632 c 2.7e-4,5.91071 2.7e-4,11.82116 0,17.73134 -0.36914,2.95555 -0.73854,5.91071 -1.10821,8.86567 -1.60051,3.57123 -3.20122,7.14206 -4.80223,10.71269 8.12729,0.1234 16.25399,0.24653 24.38059,0.3694 -1.2311,-2.83188 -2.46242,-5.66391 -3.69403,-8.49627 -0.49228,-3.5707 -0.98481,-7.14152 -1.47761,-10.71268 -0.24601,-2.95502 -0.49227,-5.91019 -0.7388,-8.86567 2.6e-4,-2.58561 2.6e-4,-5.17138 0,-7.75747" />
  </g>
</svg>
