<?xml version="1.0" encoding="UTF-8" standalone="no"?>
<!-- Created with Inkscape (http://www.inkscape.org/) -->

<svg
   width="210mm"
   height="297mm"
   viewBox="0 0 210 297"
   version="1.1"
   id="svg5"
   inkscape:version="1.2.2 (732a01da63, 2022-12-09)"
   sodipodi:docname="historijski objekti.svg"
   inkscape:export-filename="historija.png"
   inkscape:export-xdpi="103.05143"
   inkscape:export-ydpi="103.05143"
   xml:space="preserve"
   xmlns:inkscape="http://www.inkscape.org/namespaces/inkscape"
   xmlns:sodipodi="http://sodipodi.sourceforge.net/DTD/sodipodi-0.dtd"
   xmlns="http://www.w3.org/2000/svg"
   xmlns:svg="http://www.w3.org/2000/svg"><sodipodi:namedview
     id="namedview7"
     pagecolor="#ffffff"
     bordercolor="#000000"
     borderopacity="0.25"
     inkscape:showpageshadow="2"
     inkscape:pageopacity="0.0"
     inkscape:pagecheckerboard="0"
     inkscape:deskcolor="#d1d1d1"
     inkscape:document-units="mm"
     showgrid="false"
     inkscape:zoom="0.76095916"
     inkscape:cx="34.824471"
     inkscape:cy="511.85401"
     inkscape:window-width="1920"
     inkscape:window-height="991"
     inkscape:window-x="-9"
     inkscape:window-y="-9"
     inkscape:window-maximized="1"
     inkscape:current-layer="layer1" /><defs
     id="defs2" /><g
     inkscape:label="Layer 1"
     inkscape:groupmode="layer"
     id="layer1"><g
       id="g325"
       transform="translate(3.0728625,-0.46080279)"><path
         id="path796-9-4"
         style="fill:#666666;fill-opacity:0.336864;stroke:#000000;stroke-width:0.241228;stroke-opacity:0"
         d="m 182.98054,222.46652 c -17.09149,9.37104 -78.41552,7.84221 -78.41552,7.84221 0,0 15.49562,-42.64691 32.58711,-52.01796 17.09149,-9.37104 40.96654,-7.30947 53.96457,5.21984 12.99803,12.52928 8.95533,29.58485 -8.13616,38.95591 z"
         sodipodi:nodetypes="scsss" /></g><path
       id="path796-9"
       style="fill:#666666;stroke:#000000;stroke-width:0.536659"
       d="m 181.36147,98.400619 c 0,40.606831 -73.22736,131.076361 -73.22736,131.076361 0,0 -71.141771,-90.46953 -71.141771,-131.076361 0,-40.606839 31.56399,-73.525192 72.510521,-73.52519 40.94651,4e-6 71.85861,32.918351 71.85861,73.52519 z"
       sodipodi:nodetypes="scsss" /><ellipse
       style="fill:#ffffff;stroke:#000000;stroke-width:0.67811"
       id="path3193"
       cx="108.99927"
       cy="98.123878"
       rx="63.131382"
       ry="65.261703" /><path
       id="rect548"
       style="stroke:#131313;stroke-width:0.243;stroke-linecap:round;paint-order:stroke fill markers"
       d="M 81.092633,94.816402 C 106.45265,87.709389 156.54497,74.774949 156.54497,74.774949 l 2.44885,8.307382 c 0,0 -43.41468,16.559458 -71.708207,28.683289 -8.08918,3.46623 -14.66706,-14.574401 -6.19298,-16.949218 z"
       sodipodi:nodetypes="sccss" /><path
       id="path814"
       style="fill:#000000;stroke:#131313;stroke-width:0.234508;stroke-linecap:round;paint-order:stroke fill markers"
       d="m 126.11155,97.416692 c 0,0 5.23416,15.336888 -6.51473,19.891398 -11.60698,4.49949 -19.887005,1.7728 -19.887005,-10.11301 26.984175,-10.415883 2.639965,-1.13852 26.401735,-9.778388 z"
       sodipodi:nodetypes="cscc" /><path
       id="path1581"
       style="stroke:#131313;stroke-width:0.203842;stroke-linecap:round;paint-order:stroke fill markers"
       inkscape:transform-center-x="-1.647212"
       inkscape:transform-center-y="-0.0397151"
       d="m 83.863866,116.67279 c 0,0 -22.738371,7.49387 -22.941971,6.47213 -0.74708,-3.74911 6.875121,-3.30777 46.849745,-17.67879 4.37936,-1.5744 0.5597,10.71657 -3.20213,13.24766 -5.13617,3.45581 -9.17893,3.33517 -13.44476,2.25664 -6.70963,-1.6964 -3.849319,-5.68696 -7.260884,-4.29764 z"
       sodipodi:nodetypes="ssssss" /><circle
       style="fill:#ffffff;stroke:#131313;stroke-width:0.263114;stroke-linecap:round;paint-order:stroke fill markers"
       id="path1606"
       cx="105.16873"
       cy="114.78556"
       r="16.881054" /><ellipse
       style="fill:#000000;stroke:#131313;stroke-width:0.243;stroke-linecap:round;paint-order:stroke fill markers"
       id="path1610"
       cx="105.16873"
       cy="114.66228"
       rx="15.658183"
       ry="15.288304" /><ellipse
       style="fill:#ffffff;stroke:#131313;stroke-width:0.259143;stroke-linecap:round;paint-order:stroke fill markers"
       id="path1612"
       cx="104.61324"
       cy="115.09448"
       rx="11.891704"
       ry="11.769757" /><ellipse
       style="fill:#000000;stroke:#131313;stroke-width:0.243;stroke-linecap:round;paint-order:stroke fill markers"
       id="path1614"
       cx="104.55228"
       cy="114.90887"
       rx="2.9590268"
       ry="3.2056122" /><path
       style="fill:#000000;stroke:#131313;stroke-width:0.243;stroke-linecap:round;paint-order:stroke fill markers"
       d="m 95.428611,107.75789 19.233669,13.80879"
       id="path1618" /><path
       style="fill:#000000;stroke:#131313;stroke-width:0.243;stroke-linecap:round;paint-order:stroke fill markers"
       d="m 91.236656,116.63497 26.138074,-3.20561"
       id="path1622" /><path
       style="fill:#000000;stroke:#131313;stroke-width:0.243;stroke-linecap:round;paint-order:stroke fill markers"
       d="m 103.56593,101.83984 1.97269,24.90514"
       id="path1626" /><path
       style="fill:#000000;stroke:#131313;stroke-width:0.243;stroke-linecap:round;paint-order:stroke fill markers"
       d="M 96.908124,126.00522 111.94984,104.79886"
       id="path1634" /><ellipse
       style="fill:#000000;stroke:#131313;stroke-width:0.243;stroke-linecap:round;paint-order:stroke fill markers"
       id="path1638"
       cx="104.0591"
       cy="115.40069"
       rx="4.43854"
       ry="4.3152475" /></g></svg>
