<?xml version="1.0" encoding="UTF-8" standalone="no"?>
<!-- Created with Inkscape (http://www.inkscape.org/) -->

<svg
   width="210mm"
   height="297mm"
   viewBox="0 0 210 297"
   version="1.1"
   id="svg575"
   inkscape:version="1.2.2 (732a01da63, 2022-12-09)"
   sodipodi:docname="mješovita.svg"
   xmlns:inkscape="http://www.inkscape.org/namespaces/inkscape"
   xmlns:sodipodi="http://sodipodi.sourceforge.net/DTD/sodipodi-0.dtd"
   xmlns="http://www.w3.org/2000/svg"
   xmlns:svg="http://www.w3.org/2000/svg">
  <sodipodi:namedview
     id="namedview577"
     pagecolor="#ffffff"
     bordercolor="#000000"
     borderopacity="0.25"
     inkscape:showpageshadow="2"
     inkscape:pageopacity="0.0"
     inkscape:pagecheckerboard="0"
     inkscape:deskcolor="#d1d1d1"
     inkscape:document-units="mm"
     showgrid="false"
     inkscape:zoom="0.71624579"
     inkscape:cx="233.85827"
     inkscape:cy="338.57092"
     inkscape:window-width="1920"
     inkscape:window-height="991"
     inkscape:window-x="-9"
     inkscape:window-y="-9"
     inkscape:window-maximized="1"
     inkscape:current-layer="layer1" />
  <defs
     id="defs572">
    <inkscape:path-effect
       effect="bspline"
       id="path-effect382-8"
       is_visible="true"
       lpeversion="1"
       weight="33.333333"
       steps="2"
       helper_size="0"
       apply_no_weight="true"
       apply_with_weight="true"
       only_selected="false" />
    <inkscape:path-effect
       effect="bspline"
       id="path-effect382-5"
       is_visible="true"
       lpeversion="1"
       weight="33.333333"
       steps="2"
       helper_size="0"
       apply_no_weight="true"
       apply_with_weight="true"
       only_selected="false" />
    <inkscape:path-effect
       effect="bspline"
       id="path-effect386-0"
       is_visible="true"
       lpeversion="1"
       weight="33.333333"
       steps="2"
       helper_size="0"
       apply_no_weight="true"
       apply_with_weight="true"
       only_selected="false" />
    <inkscape:path-effect
       effect="bspline"
       id="path-effect453-05"
       is_visible="true"
       lpeversion="1"
       weight="33.333333"
       steps="2"
       helper_size="0"
       apply_no_weight="true"
       apply_with_weight="true"
       only_selected="false" />
    <inkscape:path-effect
       effect="bspline"
       id="path-effect1075-5"
       is_visible="true"
       lpeversion="1"
       weight="33.333333"
       steps="2"
       helper_size="0"
       apply_no_weight="true"
       apply_with_weight="true"
       only_selected="false" />
    <inkscape:path-effect
       effect="bspline"
       id="path-effect453-0-94"
       is_visible="true"
       lpeversion="1"
       weight="33.333333"
       steps="2"
       helper_size="0"
       apply_no_weight="true"
       apply_with_weight="true"
       only_selected="false" />
    <inkscape:path-effect
       effect="bspline"
       id="path-effect386-2-0"
       is_visible="true"
       lpeversion="1"
       weight="33.333333"
       steps="2"
       helper_size="0"
       apply_no_weight="true"
       apply_with_weight="true"
       only_selected="false" />
    <inkscape:path-effect
       effect="bspline"
       id="path-effect453-6-3"
       is_visible="true"
       lpeversion="1"
       weight="33.333333"
       steps="2"
       helper_size="0"
       apply_no_weight="true"
       apply_with_weight="true"
       only_selected="false" />
    <inkscape:path-effect
       effect="bspline"
       id="path-effect2293-0"
       is_visible="true"
       lpeversion="1"
       weight="33.333333"
       steps="2"
       helper_size="0"
       apply_no_weight="true"
       apply_with_weight="true"
       only_selected="false" />
    <inkscape:path-effect
       effect="bspline"
       id="path-effect9164-1"
       is_visible="true"
       lpeversion="1"
       weight="33.333333"
       steps="2"
       helper_size="0"
       apply_no_weight="true"
       apply_with_weight="true"
       only_selected="false" />
    <inkscape:path-effect
       effect="bspline"
       id="path-effect9164-1-3"
       is_visible="true"
       lpeversion="1"
       weight="33.333333"
       steps="2"
       helper_size="0"
       apply_no_weight="true"
       apply_with_weight="true"
       only_selected="false" />
    <inkscape:path-effect
       effect="bspline"
       id="path-effect382-5-1"
       is_visible="true"
       lpeversion="1"
       weight="33.333333"
       steps="2"
       helper_size="0"
       apply_no_weight="true"
       apply_with_weight="true"
       only_selected="false" />
    <inkscape:path-effect
       effect="bspline"
       id="path-effect386-0-8"
       is_visible="true"
       lpeversion="1"
       weight="33.333333"
       steps="2"
       helper_size="0"
       apply_no_weight="true"
       apply_with_weight="true"
       only_selected="false" />
    <inkscape:path-effect
       effect="bspline"
       id="path-effect453-05-7"
       is_visible="true"
       lpeversion="1"
       weight="33.333333"
       steps="2"
       helper_size="0"
       apply_no_weight="true"
       apply_with_weight="true"
       only_selected="false" />
    <inkscape:path-effect
       effect="bspline"
       id="path-effect1075-5-2"
       is_visible="true"
       lpeversion="1"
       weight="33.333333"
       steps="2"
       helper_size="0"
       apply_no_weight="true"
       apply_with_weight="true"
       only_selected="false" />
    <inkscape:path-effect
       effect="bspline"
       id="path-effect453-0-94-0"
       is_visible="true"
       lpeversion="1"
       weight="33.333333"
       steps="2"
       helper_size="0"
       apply_no_weight="true"
       apply_with_weight="true"
       only_selected="false" />
    <inkscape:path-effect
       effect="bspline"
       id="path-effect386-2-0-9"
       is_visible="true"
       lpeversion="1"
       weight="33.333333"
       steps="2"
       helper_size="0"
       apply_no_weight="true"
       apply_with_weight="true"
       only_selected="false" />
    <inkscape:path-effect
       effect="bspline"
       id="path-effect453-6-3-9"
       is_visible="true"
       lpeversion="1"
       weight="33.333333"
       steps="2"
       helper_size="0"
       apply_no_weight="true"
       apply_with_weight="true"
       only_selected="false" />
    <inkscape:path-effect
       effect="bspline"
       id="path-effect2293-0-1"
       is_visible="true"
       lpeversion="1"
       weight="33.333333"
       steps="2"
       helper_size="0"
       apply_no_weight="true"
       apply_with_weight="true"
       only_selected="false" />
    <inkscape:path-effect
       effect="bspline"
       id="path-effect9164-1-34"
       is_visible="true"
       lpeversion="1"
       weight="33.333333"
       steps="2"
       helper_size="0"
       apply_no_weight="true"
       apply_with_weight="true"
       only_selected="false" />
    <inkscape:path-effect
       effect="bspline"
       id="path-effect382-5-3"
       is_visible="true"
       lpeversion="1"
       weight="33.333333"
       steps="2"
       helper_size="0"
       apply_no_weight="true"
       apply_with_weight="true"
       only_selected="false" />
    <inkscape:path-effect
       effect="bspline"
       id="path-effect386-0-9"
       is_visible="true"
       lpeversion="1"
       weight="33.333333"
       steps="2"
       helper_size="0"
       apply_no_weight="true"
       apply_with_weight="true"
       only_selected="false" />
    <inkscape:path-effect
       effect="bspline"
       id="path-effect453-05-5"
       is_visible="true"
       lpeversion="1"
       weight="33.333333"
       steps="2"
       helper_size="0"
       apply_no_weight="true"
       apply_with_weight="true"
       only_selected="false" />
    <inkscape:path-effect
       effect="bspline"
       id="path-effect1075-5-6"
       is_visible="true"
       lpeversion="1"
       weight="33.333333"
       steps="2"
       helper_size="0"
       apply_no_weight="true"
       apply_with_weight="true"
       only_selected="false" />
    <inkscape:path-effect
       effect="bspline"
       id="path-effect453-0-94-9"
       is_visible="true"
       lpeversion="1"
       weight="33.333333"
       steps="2"
       helper_size="0"
       apply_no_weight="true"
       apply_with_weight="true"
       only_selected="false" />
    <inkscape:path-effect
       effect="bspline"
       id="path-effect386-2-0-1"
       is_visible="true"
       lpeversion="1"
       weight="33.333333"
       steps="2"
       helper_size="0"
       apply_no_weight="true"
       apply_with_weight="true"
       only_selected="false" />
    <inkscape:path-effect
       effect="bspline"
       id="path-effect453-6-3-5"
       is_visible="true"
       lpeversion="1"
       weight="33.333333"
       steps="2"
       helper_size="0"
       apply_no_weight="true"
       apply_with_weight="true"
       only_selected="false" />
    <inkscape:path-effect
       effect="bspline"
       id="path-effect2293-0-4"
       is_visible="true"
       lpeversion="1"
       weight="33.333333"
       steps="2"
       helper_size="0"
       apply_no_weight="true"
       apply_with_weight="true"
       only_selected="false" />
  </defs>
  <g
     inkscape:label="Layer 1"
     inkscape:groupmode="layer"
     id="layer1">
    <path
       style="fill:#00b100;stroke:#131313;stroke-width:0.233223;stroke-linecap:round;paint-order:stroke fill markers"
       d="m 144.34807,182.14909 c -8.58126,1.5066 -18.8912,25.04395 -27.62602,39.38998 -8.73481,14.34603 -15.89386,19.4997 -16.16021,20.69168 -0.26634,1.19199 6.35983,-1.57769 9.67292,-0.58322 3.31309,0.99446 3.31309,5.75261 5.12029,5.61042 1.8072,-0.14219 5.42147,-5.18441 8.69711,-5.0777 3.27564,0.10671 6.21224,5.362 8.77232,5.25533 2.56008,-0.10666 4.74371,-5.57503 7.94408,-5.32632 3.20037,0.24871 7.41704,6.21419 9.71355,6.6047 2.29651,0.39052 2.673,-4.79375 5.7981,-4.93574 3.12511,-0.14199 8.99832,4.75823 11.6713,4.61615 2.67298,-0.14207 2.1459,-5.32634 5.83577,-5.75246 3.68987,-0.42613 11.59612,3.90593 13.89264,3.40881 2.29652,-0.49712 -1.01657,-5.82342 -5.45921,-10.68829 -4.44265,-4.86487 -10.01466,-9.26795 -16.22699,-21.73193 -6.21233,-12.46398 -13.06439,-32.98802 -21.64565,-31.48141 z"
       id="path380-9"
       sodipodi:nodetypes="cccccccccccccccc"
       inkscape:original-d="m 146.07702,160.11774 c -10.3099,23.53808 -20.61986,47.07543 -30.93047,70.6135 -7.1591,5.15415 -14.31816,10.30781 -21.47763,15.46135 6.62671,-2.76955 13.25288,-5.53923 19.87893,-8.30921 2.6e-4,4.75861 2.6e-4,9.51676 0,14.27479 3.6147,-5.0422 7.22897,-10.08442 10.84306,-15.12702 2.93699,5.25576 5.87358,10.51105 8.80999,15.7662 2.18397,-5.46831 4.3676,-10.93668 6.551,-16.40537 4.21709,5.96595 8.43375,11.93143 12.65023,17.89676 0.37676,-5.18424 0.75325,-10.36851 1.12949,-15.55312 5.87369,4.90062 11.7469,9.80084 17.61995,14.70089 -0.52684,-5.18423 -1.05392,-10.3685 -1.58128,-15.55313 7.90682,4.33247 15.81306,8.66455 23.71919,12.99644 -3.31297,-5.32626 -6.62605,-10.65257 -9.93947,-15.97923 -5.57197,-4.40301 -11.14398,-8.80609 -16.71637,-13.20951 -6.85208,-20.52462 -13.70415,-41.04865 -20.55662,-61.57334 z"
       inkscape:path-effect="#path-effect382-5" />
    <path
       style="fill:#008000;stroke:#131313;stroke-width:0.233223;stroke-linecap:round;paint-order:stroke fill markers"
       d="m 125.93071,211.43231 c -7.86734,7.88619 -14.62682,17.73098 -15.71149,19.7742 -1.08466,2.04323 3.50559,-3.71528 6.06434,-5.10303 2.55875,-1.38776 3.08583,1.59498 4.70476,1.59481 1.61893,-1.7e-4 4.32965,-2.98291 7.01707,-2.52602 2.68741,0.45689 5.35112,4.35296 7.83593,4.38835 2.4848,0.0354 4.79066,-3.78971 7.22386,-4.17527 2.43321,-0.38556 4.99331,2.66818 6.34857,2.49059 1.35527,-0.17759 1.50586,-3.58644 3.12495,-3.79946 1.61909,-0.21301 4.70629,2.76972 6.21215,3.05377 1.50586,0.28406 1.43056,-2.13055 3.12496,-2.16606 1.69441,-0.0355 5.15809,2.30807 6.70159,2.23707 1.5435,-0.071 1.16701,-2.55662 2.52655,-2.09932 1.35954,0.45729 4.45471,3.85735 4.88241,3.51894 0.4277,-0.33842 -1.81206,-4.41532 -6.29644,-11.19341 -4.48438,-6.77808 -11.21303,-16.25673 -19.06505,-18.03262 -7.85202,-1.77589 -16.82681,4.15127 -24.69416,12.03746 z"
       id="path384-7"
       sodipodi:nodetypes="ccccccccccccccccc"
       inkscape:original-d="m 124.82303,209.47345 c -6.75936,9.84526 -13.51885,19.69004 -20.27888,29.535 4.59068,-5.7585 9.18094,-11.51699 13.77101,-17.27586 0.52737,2.98309 1.05445,5.96583 1.58127,8.94838 2.7111,-2.9826 5.42181,-5.96534 8.13231,-8.94838 2.66411,3.89654 5.32783,7.7926 7.99145,11.68865 2.30623,-3.82504 4.61208,-7.65016 6.91775,-11.4756 2.56048,3.05412 5.12058,6.10787 7.68049,9.16144 0.15086,-3.40872 0.30145,-6.81757 0.45178,-10.22671 3.08759,2.98309 6.17479,5.96582 9.26179,8.94837 -0.0751,-2.41444 -0.15034,-4.82905 -0.2259,-7.24392 3.46408,2.34392 6.92777,4.68748 10.39126,7.03086 -0.37624,-2.48546 -0.75273,-4.97107 -1.12949,-7.45699 3.09563,3.40053 6.19081,6.80058 9.28592,10.20061 -2.23963,-4.07689 -4.47939,-8.15379 -6.71955,-12.23118 -6.72864,-9.47878 -13.45729,-18.95742 -20.18633,-28.43651 -8.97487,5.92764 -17.94966,11.8548 -26.92488,17.78184 z"
       inkscape:path-effect="#path-effect386-0" />
    <path
       style="fill:#00b100;fill-opacity:1;stroke:#131313;stroke-width:0.233223;stroke-linecap:round;paint-order:stroke fill markers"
       d="m 131.79457,189.48058 c -7.40517,9.14869 -16.8689,25.03094 -17.98821,30.31506 -1.1193,5.28412 6.10582,-0.0302 8.76702,-1.18918 2.6612,-1.15895 0.75843,1.83751 1.16247,2.02184 0.40404,0.18433 3.11475,-2.44331 4.6584,-2.26559 1.54364,0.17772 1.92012,3.16045 3.38846,3.26681 1.46834,0.10637 4.02846,-2.66331 6.43816,-2.62764 2.40971,0.0357 4.66863,2.87637 6.40038,2.84076 1.73175,-0.0356 2.93652,-2.94735 4.7062,-3.08928 1.76969,-0.14192 4.1039,2.48571 5.53445,2.52116 1.43056,0.0354 1.95764,-2.52119 3.50144,-2.59215 1.54381,-0.071 4.10393,2.34363 5.79801,2.37906 1.69408,0.0354 2.52235,-2.30815 3.67194,-2.22801 1.14959,0.0801 2.62017,2.58374 2.824,2.02677 0.20384,-0.55697 -0.859,-4.17443 1.43024,-3.56339 2.28924,0.61104 7.93022,5.45067 4.78964,-0.81016 -3.14058,-6.26082 -15.06273,-23.62224 -23.69702,-31.09579 -8.63428,-7.47355 -13.98041,-5.05896 -21.38558,4.08973 z"
       id="path451-95"
       sodipodi:nodetypes="cccccccccccccccccc"
       inkscape:original-d="m 133.85338,182.74659 c -9.46367,15.88286 -18.9274,31.76512 -28.3918,47.64779 7.22569,-5.31433 14.45081,-10.62868 21.67582,-15.9434 -1.90252,2.99672 -3.80528,5.99318 -5.70834,8.98942 2.71108,-2.62751 5.42178,-5.25516 8.1323,-7.88311 0.37675,2.98311 0.75323,5.96584 1.12947,8.94839 2.56048,-2.76955 5.1206,-5.53923 7.68051,-8.30921 2.25927,2.84106 4.51819,5.68176 6.77691,8.52226 1.20506,-2.91158 2.40983,-5.82331 3.61434,-8.73531 2.33458,2.62799 4.66879,5.25563 7.0028,7.88309 0.52737,-2.55648 1.05445,-5.11312 1.58128,-7.67004 2.56048,2.41493 5.1206,4.82953 7.6805,7.24393 0.82856,-2.34343 1.65684,-4.68701 2.48487,-7.03088 1.47093,2.50398 2.9415,5.00759 4.41191,7.51109 -1.06265,-3.61744 -2.12549,-7.2349 -3.18866,-10.85283 5.64147,4.84007 11.28244,9.67971 16.92327,14.51918 -11.9219,-17.36119 -23.84405,-34.72261 -35.76649,-52.08428 -5.34607,2.41492 -10.69219,4.82952 -16.03869,7.24391 z"
       inkscape:path-effect="#path-effect453-05" />
    <path
       style="fill:#008000;fill-opacity:1;stroke:#131313;stroke-width:0.290895;stroke-linecap:round;paint-order:stroke fill markers"
       d="m 138.68766,168.89806 c -3.0752,4.94674 -4.00533,10.73397 -6.4136,16.33355 -2.40828,5.59958 -6.29429,11.01084 -8.11882,15.13845 -1.82454,4.1276 -1.58721,6.97036 -0.33733,5.79183 1.24989,-1.17852 3.5123,-6.37822 5.3544,-6.29078 1.8421,0.0874 3.26358,5.46151 5.11836,5.61528 1.85478,0.15376 4.14281,-4.91264 6.36829,-4.71737 2.22548,0.19527 4.38793,5.65199 5.72508,5.31044 1.33716,-0.34155 1.84906,-6.4814 3.83277,-6.82097 1.98372,-0.33957 5.43879,5.12087 7.0333,5.68848 1.59452,0.56761 1.32853,-3.75763 3.21363,-4.27747 1.88511,-0.51983 5.92081,2.76588 6.89759,2.461 0.97678,-0.30488 -1.10527,-4.20038 -3.17011,-8.44134 -2.06483,-4.24096 -4.11208,-8.82669 -6.10725,-15.37584 -1.99516,-6.54916 -3.93797,-15.06113 -7.51953,-17.26444 -3.58157,-2.2033 -8.80158,1.90243 -11.87678,6.84918 z"
       id="path1073-0"
       sodipodi:nodetypes="cccccccccccccccc"
       inkscape:original-d="m 136.54265,168.05718 c -0.9299,5.78767 -1.86002,11.5749 -2.79046,17.36219 -3.88612,5.41203 -7.77213,10.82329 -11.65887,16.23496 0.23762,2.84331 0.47495,5.68607 0.71204,8.52878 2.26274,-5.19961 4.52516,-10.3993 6.78738,-15.5994 1.42186,5.37478 2.84334,10.74886 4.26462,16.12298 2.2884,-5.0664 4.57642,-10.1328 6.86436,-15.19982 2.16287,5.45736 4.32531,10.91408 6.48759,16.3708 0.51217,-6.13974 1.02407,-12.27959 1.53572,-18.41988 3.45558,5.46108 6.91064,10.92152 10.36559,16.38194 -0.26574,-4.32517 -0.53173,-8.65041 -0.79801,-12.9762 4.03623,3.28615 8.07193,6.57187 12.10747,9.85742 -2.08187,-3.89538 -4.16392,-7.79089 -6.2464,-11.68693 -2.04716,-4.58588 -4.09442,-9.1716 -6.14206,-13.75787 -1.94262,-8.51203 -3.88542,-17.02401 -5.82854,-25.53644 -5.21999,4.10615 -10.44001,8.21187 -15.66043,12.31747 z"
       inkscape:path-effect="#path-effect1075-5" />
    <path
       style="fill:#00b100;fill-opacity:1;stroke:#131313;stroke-width:0.233223;stroke-linecap:round;paint-order:stroke fill markers"
       d="m 134.32955,174.14128 c -2.94351,5.95498 -3.02673,8.50154 -3.57404,10.16019 -0.54732,1.65864 -1.55873,2.42949 -3.29049,4.7017 -1.73176,2.2722 -4.18355,6.04536 -3.50494,6.55339 0.67861,0.50803 4.48744,-2.24902 6.6031,-2.11447 2.11567,0.13456 2.5379,3.16037 3.38845,3.09419 0.85055,-0.0662 2.12942,-3.22428 3.89851,-3.38287 1.76909,-0.1586 4.02801,2.68209 5.75976,2.64647 1.73176,-0.0356 2.93652,-2.94733 4.70621,-3.08926 1.7697,-0.14193 4.10392,2.48571 5.53447,2.52115 1.43055,0.0354 1.95764,-2.52119 4.53103,-2.46274 2.57339,0.0585 7.19265,2.732 7.85726,2.18491 0.66461,-0.5471 -2.6254,-4.31489 -6.17757,-12.43396 -3.55218,-8.11908 -7.36625,-20.58916 -12.17539,-22.14291 -4.80914,-1.55374 -10.61285,7.80924 -13.55636,13.76421 z"
       id="path451-4-4"
       sodipodi:nodetypes="ccccccccccccccc"
       inkscape:original-d="m 131.46927,177.5494 c -0.0829,2.54687 -0.16618,5.09343 -0.24966,7.63985 -1.01121,0.77114 -2.02262,1.54199 -3.03436,2.31266 -2.45169,3.77365 -4.90347,7.54682 -7.35569,11.31995 3.80934,-2.75697 7.61817,-5.51403 11.42698,-8.27151 0.42252,3.02627 0.84476,6.05208 1.26677,9.07785 1.27918,-3.15798 2.55805,-6.31607 3.83668,-9.47448 2.25928,2.84106 4.5182,5.68175 6.77691,8.52226 1.20508,-2.91158 2.40983,-5.8233 3.61435,-8.73531 2.33458,2.628 4.6688,5.25564 7.00281,7.88309 0.52737,-2.55648 1.05446,-5.11312 1.58129,-7.67004 4.6196,2.67385 9.23887,5.34738 13.85803,8.02078 -3.28986,-3.76769 -6.57988,-7.53547 -9.87021,-11.30357 -3.81388,-12.47008 -7.62794,-24.94017 -11.44243,-37.41099 -5.80367,9.36358 -11.60737,18.72656 -17.41147,28.08946 z"
       inkscape:path-effect="#path-effect453-0-94" />
    <path
       style="fill:#008000;stroke:#131313;stroke-width:0.203661;stroke-linecap:round;paint-order:stroke fill markers"
       d="m 132.00199,179.54207 c -1.86741,4.40772 0.97542,1.983 2.97891,2.20279 2.0035,0.21979 3.16743,3.08377 4.12219,2.77397 0.95475,-0.30979 1.70043,-3.7932 3.04852,-4.00641 1.34809,-0.21321 3.29829,2.84365 4.33069,2.66588 1.0324,-0.17778 1.14712,-3.5901 2.3805,-3.80333 1.23338,-0.21323 3.58511,2.77254 4.73222,3.05688 1.14711,0.28434 1.08976,-2.13271 2.3805,-2.16826 1.29075,-0.0356 3.92927,2.31041 3.64079,0.94455 -0.28848,-1.36586 -3.50382,-6.44344 -6.09024,-11.82107 -2.58641,-5.37763 -4.54375,-11.05522 -8.81136,-8.27403 -4.2676,2.78119 -10.8453,14.02131 -12.71272,18.42903 z"
       id="path384-2-9"
       sodipodi:nodetypes="cccccccccccc"
       inkscape:original-d="m 127.29163,186.37461 c 2.84318,-2.42455 5.68601,-4.84927 8.52867,-7.27432 1.16424,2.8643 2.32817,5.72828 3.49188,8.59208 0.74591,-3.48328 1.49156,-6.96669 2.23707,-10.45041 1.95048,3.05723 3.90069,6.11409 5.85074,9.17079 0.11488,-3.41222 0.22964,-6.82454 0.34416,-10.23716 2.35204,2.98614 4.70376,5.97192 7.05534,8.9575 -0.0571,-2.41691 -0.1145,-4.83396 -0.17208,-7.25131 2.63882,2.3463 5.27735,4.69226 7.91573,7.03803 -3.21524,-5.07757 -6.43058,-10.15516 -9.64626,-15.23312 -1.95706,-5.67731 -3.9144,-11.3549 -5.872,-17.03271 -6.57746,11.24043 -13.15516,22.48055 -19.73325,33.72063 z"
       inkscape:path-effect="#path-effect386-2-0" />
    <path
       style="fill:#00b100;fill-opacity:1;stroke:#131313;stroke-width:0.233223;stroke-linecap:round;paint-order:stroke fill markers"
       d="m 144.37623,149.91515 c -1.47932,2.04912 -3.20984,5.71778 -5.702,9.66398 -2.49216,3.94619 -5.74569,8.16957 -7.56893,11.39131 -1.82325,3.22174 -2.21595,5.44126 -1.4001,5.38819 0.81586,-0.0531 2.84017,-2.37857 3.65165,-2.35198 0.81148,0.0266 0.41007,2.40511 1.48948,2.2094 1.07941,-0.19571 3.63951,-2.96538 6.04922,-2.9297 2.4097,0.0357 4.66862,2.87636 5.9199,3.12133 1.25129,0.24496 1.49511,-2.10565 2.4182,-1.85921 0.92309,0.24644 2.52514,3.08981 3.68117,3.49209 1.15604,0.40228 1.86616,-1.63645 3.02098,-1.94479 1.15483,-0.30835 2.75379,1.11342 4.35301,2.53542 -1.64681,-3.58701 -3.29345,-7.17365 -4.61393,-10.259 -1.32047,-3.08535 -2.31448,-5.66876 -3.48739,-9.14596 -1.17291,-3.4772 -2.52458,-7.84783 -3.81433,-9.81869 -1.28974,-1.97085 -2.51761,-1.54151 -3.99693,0.50761 z"
       id="path451-9-65"
       sodipodi:nodetypes="cccccccccccccccc"
       inkscape:original-d="m 144.62752,148.29543 c -1.73028,3.66899 -3.46082,7.33765 -5.19168,11.00621 -3.25349,4.22389 -6.50702,8.44727 -9.76103,12.67069 -0.39245,2.2199 -0.78517,4.43942 -1.17816,6.65886 2.02468,-2.32539 4.04898,-4.6509 6.07314,-6.97677 -0.40118,2.37886 -0.80259,4.75739 -1.20426,7.13571 2.56047,-2.76955 5.12058,-5.53921 7.68048,-8.3092 2.25928,2.84107 4.5182,5.68175 6.77691,8.52226 0.2441,-2.35052 0.48792,-4.70113 0.7315,-7.05214 1.60242,2.8438 3.20446,5.68718 4.80634,8.53048 0.71041,-2.03858 1.42053,-4.07731 2.1304,-6.11633 1.59946,1.42223 4.79765,4.26599 4.79765,4.26599 0,0 -3.29334,-7.1737 -4.94044,-10.76104 -0.99382,-2.58336 -1.98781,-5.16678 -2.98216,-7.75062 -1.35146,-4.37055 -2.70313,-8.74118 -4.05509,-13.11213 -1.2276,0.42958 -2.45547,0.85893 -3.6836,1.28803 z"
       inkscape:path-effect="#path-effect453-6-3" />
    <path
       style="fill:#7a4621;fill-opacity:1;stroke:#131313;stroke-width:0.233223;stroke-linecap:round;paint-order:stroke fill markers"
       d="m 135.65935,247.36037 c -0.31684,2.39078 -0.26403,6.47484 -0.71293,9.58762 -0.44889,3.11278 -1.3994,5.25438 -2.21792,7.09719 -0.81851,1.84282 -1.50497,3.38673 1.37323,4.23339 2.87821,0.84667 9.32042,0.99607 11.56473,-0.32366 2.24431,-1.31973 0.29049,-4.10877 -0.79215,-6.84811 -1.08264,-2.73934 -1.29386,-5.42878 -1.13546,-8.34246 0.15839,-2.91367 0.68646,-6.05136 0.34337,-7.99378 -0.34309,-1.94243 -1.55764,-2.6895 -2.82513,-2.68961 -1.26749,-1.2e-4 -2.58763,0.74695 -3.59102,1.46916 -1.00339,0.72221 -1.68989,1.41948 -2.00672,3.81026 z"
       id="path2291-0"
       sodipodi:nodetypes="ccccccccccc"
       inkscape:original-d="m 135.2897,245.66685 c 0.053,4.0843 0.10585,8.16836 0.15842,12.25215 -0.95028,2.14191 -1.90079,4.28351 -2.85158,6.42489 -0.68625,1.54424 -1.37271,3.08815 -2.05947,4.63193 6.44286,0.14965 12.88507,0.29906 19.3274,0.44823 -1.95364,-2.78891 -3.90747,-5.57795 -5.86159,-8.36731 -0.21097,-2.6893 -0.42219,-5.37874 -0.63368,-8.06848 0.52834,-3.13754 1.05639,-6.27523 1.58421,-9.41322 -1.21432,-0.74684 -2.42887,-1.49392 -3.6437,-2.24125 -1.31994,0.74734 -2.64008,1.49441 -3.96053,2.24125 -0.68624,0.69754 -1.37273,1.39481 -2.05948,2.09181 z"
       inkscape:path-effect="#path-effect2293-0" />
    <path
       style="fill:#00b100;stroke:#131313;stroke-width:0.138225;stroke-linecap:round;paint-order:stroke fill markers"
       d="m 134.55955,43.730579 c -5.23568,0.867369 -11.5261,14.418208 -16.85548,22.677447 -5.32937,8.259239 -9.69733,11.226294 -9.85984,11.912541 -0.1625,0.686247 3.88033,-0.908301 5.90175,-0.33577 2.02141,0.57253 2.02141,3.311875 3.12404,3.230008 1.10264,-0.08187 3.30781,-2.984758 5.30638,-2.923313 1.99856,0.06144 3.79027,3.086994 5.35226,3.02558 1.56198,-0.06141 2.89428,-3.209642 4.84693,-3.06645 1.95264,0.143192 4.52536,3.577616 5.92653,3.80244 1.40117,0.224825 1.63088,-2.759844 3.5376,-2.841588 1.90672,-0.08174 5.49015,2.739386 7.12102,2.657595 1.63086,-0.08179 1.30927,-3.066459 3.56058,-3.311788 2.2513,-0.245328 7.07514,2.248711 8.47633,1.962512 1.40118,-0.286198 -0.62025,-3.35264 -3.33084,-6.153427 -2.7106,-2.800787 -6.11025,-5.335709 -9.90058,-12.511424 -3.79033,-7.175714 -7.97099,-18.991731 -13.20668,-18.124363 z"
       id="path380-9-73"
       sodipodi:nodetypes="cccccccccccccccc"
       inkscape:original-d="m 135.61444,31.046779 c -6.29039,13.551254 -12.58082,27.102088 -18.87164,40.653337 -4.36798,2.967327 -8.73595,5.934373 -13.10416,8.901349 4.04316,-1.594474 8.08599,-3.189024 12.12875,-4.783746 1.6e-4,2.739608 1.6e-4,5.478953 0,8.218228 2.20544,-2.902877 4.41062,-5.805765 6.61568,-8.708871 1.79195,3.025826 3.58365,6.051382 5.37525,9.076857 1.33251,-3.148195 2.66481,-6.296424 3.99697,-9.444838 2.57297,3.434695 5.14569,6.869118 7.71829,10.303455 0.22987,-2.984651 0.45958,-5.969319 0.68914,-8.954183 3.58372,2.821366 7.16714,5.642502 10.75047,8.463541 -0.32144,-2.984646 -0.64303,-5.969314 -0.96479,-8.954189 4.8242,2.494273 9.64804,4.988321 14.47181,7.482261 -2.02134,-3.066414 -4.04276,-6.132857 -6.06438,-9.199502 -3.39963,-2.534884 -6.79928,-5.069809 -10.19917,-7.604929 -4.18066,-11.816357 -8.36132,-23.632373 -12.54222,-35.44877 z"
       inkscape:path-effect="#path-effect382-5-3" />
    <path
       style="fill:#008000;stroke:#131313;stroke-width:0.138225;stroke-linecap:round;paint-order:stroke fill markers"
       d="m 123.32256,60.589401 c -4.80011,4.540205 -8.92428,10.208007 -9.58606,11.384325 -0.66179,1.176318 2.13886,-2.138946 3.70003,-2.937893 1.56117,-0.798947 1.88276,0.918264 2.87052,0.918158 0.98777,-1.05e-4 2.64166,-1.717315 4.28133,-1.454267 1.63967,0.263047 3.26488,2.506076 4.78094,2.526446 1.51606,0.02037 2.92294,-2.181809 4.40751,-2.403777 1.48456,-0.221968 3.04656,1.536124 3.87345,1.433881 0.82689,-0.102243 0.91877,-2.064774 1.90663,-2.187411 0.98786,-0.122636 2.87145,1.594567 3.79022,1.758104 0.91877,0.163537 0.87283,-1.226592 1.90663,-1.247035 1.03381,-0.02044 3.14712,1.328792 4.08885,1.287916 0.94174,-0.04088 0.71203,-1.471883 1.54153,-1.208612 0.82949,0.263272 2.71795,2.220736 2.97891,2.025909 0.26095,-0.194828 -1.1056,-2.541965 -3.84166,-6.444221 -2.73606,-3.902256 -6.84141,-9.359263 -11.63216,-10.381679 -4.79076,-1.022415 -10.26656,2.389952 -15.06667,6.930156 z"
       id="path384-7-5"
       sodipodi:nodetypes="ccccccccccccccccc"
       inkscape:original-d="m 122.64672,59.461661 c -4.12409,5.668076 -8.24826,11.335876 -12.37277,17.003779 2.80092,-3.315262 5.60158,-6.630518 8.40212,-9.945993 0.32177,1.717413 0.64335,3.434625 0.96478,5.151727 1.65413,-1.717131 3.30802,-3.434343 4.96177,-5.151727 1.62546,2.243301 3.25068,4.486326 4.87583,6.729345 1.40711,-2.202137 2.81398,-4.404321 4.22074,-6.606689 1.56222,1.758307 3.12422,3.5164 4.6861,5.27439 0.092,-1.962456 0.18392,-3.924986 0.27565,-5.887683 1.88383,1.717413 3.76742,3.434619 5.6509,5.151722 -0.0458,-1.390033 -0.0917,-2.780163 -0.13783,-4.170442 2.11354,1.349432 4.22685,2.698658 6.34003,4.04778 -0.22956,-1.43092 -0.45927,-2.861926 -0.68914,-4.29311 1.88874,1.95774 3.7772,3.915204 5.66563,5.872656 -1.36647,-2.347132 -2.73302,-4.694269 -4.09981,-7.041688 -4.10535,-5.457088 -8.2107,-10.914095 -12.3163,-16.37136 -5.47584,3.412638 -10.95164,6.825 -16.4277,10.237293 z"
       inkscape:path-effect="#path-effect386-0-9" />
    <path
       style="fill:#00b100;fill-opacity:1;stroke:#131313;stroke-width:0.138225;stroke-linecap:round;paint-order:stroke fill markers"
       d="m 126.90028,47.951437 c -4.51812,5.267044 -10.29223,14.410716 -10.97516,17.452872 -0.68292,3.042155 3.72535,-0.01741 5.34903,-0.684632 1.62368,-0.667226 0.46274,1.057881 0.70926,1.164005 0.24652,0.106124 1.9004,-1.406654 2.84222,-1.304333 0.94183,0.10232 1.17153,1.819525 2.06741,1.880756 0.89589,0.06123 2.45789,-1.533317 3.92812,-1.512774 1.47023,0.02054 2.84847,1.65598 3.90507,1.63547 1.05659,-0.02051 1.79166,-1.696842 2.8714,-1.778549 1.07974,-0.08171 2.50391,1.43107 3.37674,1.451475 0.87282,0.02041 1.19441,-1.451493 2.13633,-1.492347 0.94192,-0.04085 2.50393,1.349271 3.53754,1.369666 1.03362,0.0204 1.53897,-1.328844 2.24037,-1.282702 0.70139,0.04614 1.59864,1.487507 1.72301,1.166852 0.12436,-0.320655 -0.52411,-2.403285 0.87263,-2.051501 1.39673,0.351783 4.83847,3.138037 2.9223,-0.466423 -1.91616,-3.604461 -9.19023,-13.59971 -14.45827,-17.902353 -5.26804,-4.302643 -8.52988,-2.912526 -13.048,2.354518 z"
       id="path451-95-3"
       sodipodi:nodetypes="cccccccccccccccccc"
       inkscape:original-d="m 128.15642,44.074575 c -5.77408,9.14402 -11.54819,18.287694 -17.32271,27.431605 4.40861,-3.059546 8.81688,-6.119104 13.22508,-9.178874 -1.16079,1.72526 -2.32172,3.450371 -3.48283,5.175355 1.65411,-1.5127 3.30799,-3.025481 4.96176,-4.538434 0.22987,1.717424 0.45957,3.43463 0.68913,5.151733 1.56223,-1.594475 3.12423,-3.189025 4.68611,-4.783747 1.37845,1.635644 2.75669,3.271081 4.1348,4.906403 0.73525,-1.676244 1.47032,-3.352574 2.20523,-5.029059 1.42439,1.512976 2.84857,3.025751 4.27262,4.538422 0.32176,-1.471807 0.64335,-2.943706 0.96479,-4.415766 1.56222,1.390314 3.12423,2.780439 4.68611,4.170448 0.50553,-1.349151 1.01089,-2.698388 1.51609,-4.047792 0.89746,1.441582 1.7947,2.882951 2.69184,4.324256 -0.64835,-2.082618 -1.29682,-4.165249 -1.9455,-6.24815 3.44204,2.786507 6.88377,5.572766 10.32541,8.358928 -7.27392,-9.995119 -14.54799,-19.99037 -21.82223,-29.985765 -3.26181,1.390309 -6.52364,2.780433 -9.7857,4.170437 z"
       inkscape:path-effect="#path-effect453-05-5" />
    <path
       style="fill:#008000;fill-opacity:1;stroke:#131313;stroke-width:0.172406;stroke-linecap:round;paint-order:stroke fill markers"
       d="m 131.10596,36.101744 c -1.87628,2.847925 -2.44377,6.179726 -3.91313,9.403491 -1.46936,3.223765 -3.84034,6.339118 -4.95355,8.715451 -1.11321,2.376334 -0.9684,4.012956 -0.20581,3.334455 0.7626,-0.678502 2.14296,-3.672049 3.26689,-3.621707 1.12392,0.05034 1.99121,3.144287 3.12287,3.232807 1.13166,0.08852 2.52765,-2.828288 3.88548,-2.715862 1.35784,0.112425 2.67721,3.253946 3.49305,3.057307 0.81584,-0.196639 1.12816,-3.731451 2.33849,-3.926943 1.21033,-0.195493 3.31837,2.94817 4.29124,3.27495 0.97286,0.326781 0.81057,-2.16333 1.96073,-2.462608 1.15016,-0.299278 3.61247,1.592362 4.20843,1.416837 0.59597,-0.175524 -0.67436,-2.418228 -1.93418,-4.859816 -1.25982,-2.441588 -2.50891,-5.081667 -3.72622,-8.85212 -1.21731,-3.770454 -2.40268,-8.670937 -4.5879,-9.939419 -2.18521,-1.268482 -5.37011,1.095252 -7.24639,3.943177 z"
       id="path1073-0-8"
       sodipodi:nodetypes="cccccccccccccccc"
       inkscape:original-d="m 129.79722,35.617643 c -0.56736,3.332056 -1.13485,6.663858 -1.70254,9.995694 -2.37104,3.115794 -4.74202,6.231144 -7.11344,9.34673 0.14498,1.63694 0.28978,3.273563 0.43444,4.910157 1.38057,-2.9935 2.76094,-5.987046 4.14119,-8.980827 0.86752,3.094348 1.73481,6.188292 2.60198,9.282261 1.39622,-2.916809 2.79221,-5.833618 4.18815,-8.750783 1.31964,3.14189 2.63901,6.283413 3.95828,9.424935 0.31249,-3.534748 0.62482,-7.069559 0.93699,-10.604624 2.10836,3.144032 4.2164,6.287696 6.32437,9.431349 -0.16214,-2.490071 -0.32443,-4.980182 -0.48689,-7.470609 2.46262,1.89189 4.92493,3.783532 7.38714,5.675076 -1.27022,-2.242633 -2.54054,-4.485341 -3.81112,-6.728355 -1.24904,-2.640165 -2.49814,-5.280239 -3.74746,-7.920629 -1.18526,-4.900513 -2.37062,-9.800998 -3.55618,-14.70174 -3.18487,2.363975 -6.36977,4.727705 -9.55491,7.091365 z"
       inkscape:path-effect="#path-effect1075-5-6" />
    <path
       style="fill:#00b100;fill-opacity:1;stroke:#131313;stroke-width:0.138225;stroke-linecap:round;paint-order:stroke fill markers"
       d="m 128.44695,39.120354 c -1.79593,3.428382 -1.84671,4.894478 -2.18064,5.849385 -0.33393,0.954907 -0.95102,1.398699 -2.00762,2.706841 -1.0566,1.308143 -2.55252,3.480408 -2.13847,3.772893 0.41404,0.292485 2.73792,-1.294793 4.02875,-1.217324 1.29083,0.07747 1.54845,1.819476 2.0674,1.781369 0.51894,-0.03811 1.29922,-1.856273 2.37859,-1.947575 1.07938,-0.0913 2.45762,1.544131 3.51422,1.523621 1.0566,-0.02051 1.79166,-1.69683 2.8714,-1.77854 1.07974,-0.08171 2.50392,1.431064 3.37675,1.45147 0.87282,0.02041 1.19441,-1.451493 2.76451,-1.417838 1.57011,0.03365 4.38846,1.572859 4.79396,1.257886 0.4055,-0.314972 -1.60183,-2.484148 -3.76913,-7.158429 -2.16729,-4.674281 -4.49437,-11.853513 -7.42857,-12.748033 -2.93421,-0.894519 -6.47523,4.495893 -8.27115,7.924274 z"
       id="path451-4-4-68"
       sodipodi:nodetypes="ccccccccccccccc"
       inkscape:original-d="m 126.7018,41.082468 c -0.0506,1.466274 -0.10139,2.93237 -0.15233,4.398386 -0.61697,0.443957 -1.23406,0.887748 -1.85135,1.331435 -1.49586,2.172552 -2.99176,4.344827 -4.48794,6.517079 2.3242,-1.587232 4.64808,-3.174516 6.97196,-4.762042 0.25779,1.742272 0.51541,3.48428 0.77289,5.226265 0.78047,-1.8181 1.56075,-3.636264 2.34088,-5.454612 1.37845,1.635645 2.75669,3.271076 4.1348,4.906404 0.73526,-1.676244 1.47031,-3.352569 2.20523,-5.02906 1.42439,1.512982 2.84857,3.025757 4.27263,4.538423 0.32176,-1.471807 0.64335,-2.943706 0.96479,-4.415767 2.81856,1.539379 5.63692,3.078574 8.45521,4.617694 -2.00725,-2.169121 -4.01459,-4.338293 -6.02212,-6.507649 -2.32696,-7.179227 -4.65404,-14.35846 -6.98138,-21.538112 -3.541,5.390764 -7.08201,10.781183 -10.62327,16.171556 z"
       inkscape:path-effect="#path-effect453-0-94-9" />
    <path
       style="fill:#008000;stroke:#131313;stroke-width:0.120705;stroke-linecap:round;paint-order:stroke fill markers"
       d="m 127.02684,42.229671 c -1.13937,2.537598 0.59513,1.141647 1.81752,1.268188 1.22239,0.126541 1.93254,1.775378 2.51507,1.597022 0.58252,-0.178355 1.03748,-2.183809 1.85999,-2.306555 0.82251,-0.122747 2.01239,1.637142 2.64229,1.534792 0.6299,-0.10235 0.69989,-2.066879 1.45242,-2.189637 0.75252,-0.122759 2.18738,1.596194 2.88727,1.759893 0.69989,0.163698 0.66489,-1.22784 1.45241,-1.248304 0.78753,-0.02046 2.39738,1.330146 2.22137,0.5438 -0.17601,-0.786347 -2.1378,-3.709597 -3.71585,-6.805586 -1.57805,-3.095988 -2.77229,-6.364666 -5.37608,-4.763498 -2.60379,1.601169 -6.61705,8.072286 -7.75641,10.609885 z"
       id="path384-2-9-9"
       sodipodi:nodetypes="cccccccccccc"
       inkscape:original-d="m 124.15289,46.163285 c 1.73471,-1.395853 3.46921,-2.791804 5.20361,-4.187944 0.71033,1.649024 1.42048,3.297863 2.1305,4.946599 0.4551,-2.00538 0.91005,-4.010836 1.3649,-6.01647 1.19005,1.760097 2.37994,3.519981 3.56972,5.279772 0.0701,-1.96447 0.14011,-3.928998 0.20998,-5.893699 1.43506,1.71917 2.86991,3.438132 4.30468,5.156978 -0.0348,-1.391454 -0.0699,-2.782989 -0.10499,-4.174696 1.61003,1.350803 3.21988,2.70141 4.82963,4.051908 -1.96171,-2.92324 -3.92349,-5.846491 -5.88548,-8.769954 -1.19406,-3.26852 -2.38829,-6.5372 -3.58269,-9.806006 -4.01311,6.471296 -8.02636,12.942415 -12.03986,19.413512 z"
       inkscape:path-effect="#path-effect386-2-0-1" />
    <path
       style="fill:#00b100;fill-opacity:1;stroke:#131313;stroke-width:0.138225;stroke-linecap:round;paint-order:stroke fill markers"
       d="m 134.57674,25.172979 c -0.90258,1.179707 -1.95843,3.291816 -3.47897,5.563703 -1.52054,2.271888 -3.50562,4.703354 -4.61804,6.558163 -1.11242,1.85481 -1.35202,3.132626 -0.85424,3.102072 0.49778,-0.03055 1.73288,-1.369385 2.22798,-1.354076 0.49511,0.01531 0.25019,1.384666 0.90878,1.271988 0.65859,-0.112677 2.22058,-1.70722 3.69081,-1.686672 1.47024,0.02055 2.84847,1.655973 3.61191,1.797001 0.76345,0.141028 0.91221,-1.212255 1.47542,-1.070374 0.56321,0.141882 1.54067,1.778857 2.246,2.010452 0.70534,0.231595 1.1386,-0.942137 1.84319,-1.119653 0.7046,-0.177516 1.68018,0.641023 2.65591,1.459689 -1.00477,-2.065102 -2.00944,-4.129982 -2.8151,-5.906267 -0.80567,-1.776285 -1.41214,-3.263596 -2.12777,-5.265476 -0.71563,-2.001879 -1.54032,-4.518123 -2.32723,-5.652781 -0.78692,-1.134657 -1.53608,-0.887477 -2.43865,0.292231 z"
       id="path451-9-65-1"
       sodipodi:nodetypes="cccccccccccccccc"
       inkscape:original-d="m 134.73005,24.240485 c -1.0557,2.112297 -2.11155,4.224404 -3.1676,6.336452 -1.98506,2.431762 -3.97014,4.86323 -5.95551,7.294721 -0.23944,1.278033 -0.47905,2.555847 -0.71883,3.833614 1.23532,-1.338765 2.47041,-2.677598 3.70541,-4.016639 -0.24477,1.369548 -0.48968,2.738906 -0.73476,4.108143 1.56223,-1.594474 3.12423,-3.189013 4.6861,-4.783741 1.37846,1.63565 2.75669,3.271076 4.1348,4.906404 0.14894,-1.353233 0.2977,-2.706517 0.44631,-4.060032 0.97769,1.637222 1.95514,3.274202 2.9325,4.911136 0.43344,-1.173644 0.86671,-2.347374 1.29982,-3.52127 0.97588,0.8188 2.9272,2.455999 2.9272,2.455999 0,0 -2.00937,-4.130015 -3.01432,-6.195305 -0.60636,-1.487282 -1.21282,-2.974599 -1.81951,-4.462158 -0.82456,-2.516194 -1.64926,-5.032437 -2.47413,-7.548864 -0.749,0.247316 -1.49816,0.4945 -2.24748,0.74154 z"
       inkscape:path-effect="#path-effect453-6-3-5" />
    <path
       style="fill:#7a4621;fill-opacity:1;stroke:#131313;stroke-width:0.138225;stroke-linecap:round;paint-order:stroke fill markers"
       d="m 129.04888,81.474487 c 0.0161,1.1757 0.0483,3.526961 -0.22553,5.319037 -0.27387,1.792076 -0.85381,3.025024 -1.35321,4.085961 -0.4994,1.060937 -0.91823,1.949786 0.83785,2.437232 1.75607,0.487445 5.68666,0.573462 7.05599,-0.186327 1.36933,-0.759789 0.17724,-2.36549 -0.48331,-3.94257 -0.66056,-1.577081 -0.78943,-3.12544 -0.69279,-4.802891 0.0966,-1.677451 0.41884,-3.483869 0.20951,-4.602154 -0.20934,-1.118285 -0.95037,-1.548385 -1.7237,-1.548453 -0.77332,-6.8e-5 -1.57879,0.43003 -2.19099,0.845816 -0.61219,0.415786 -1.03104,0.817215 -1.24047,1.017932 -0.20943,0.200718 -0.20947,0.200718 -0.19335,1.376417 z"
       id="path2291-0-1"
       sodipodi:nodetypes="ccccccccccc"
       inkscape:original-d="m 129.03276,80.298788 c 0.0323,2.351398 0.0646,4.702658 0.0967,7.053759 -0.5798,1.23314 -1.15973,2.46609 -1.73984,3.69892 -0.4187,0.88904 -0.83753,1.77789 -1.25655,2.66667 3.93099,0.0862 7.86158,0.17218 11.79225,0.25806 -1.19198,-1.60562 -2.38407,-3.21132 -3.57634,-4.8172 -0.12872,-1.54827 -0.25759,-3.09663 -0.38663,-4.645154 0.32236,-1.806333 0.64454,-3.612752 0.96658,-5.419344 -0.7409,-0.429967 -1.48193,-0.860073 -2.22314,-1.290323 -0.80533,0.430255 -1.61079,0.860356 -2.41644,1.290323 -0.41869,0.401586 -0.83754,0.803015 -1.25655,1.204289 z"
       inkscape:path-effect="#path-effect2293-0-4" />
    <path
       style="fill:#00b100;stroke:#131313;stroke-width:0.159864;stroke-linecap:round;paint-order:stroke fill markers"
       d="m 105.92298,94.383565 c -5.70253,1.065224 -12.553839,17.706915 -18.358424,27.850035 -5.804584,10.14313 -10.562016,13.78695 -10.739007,14.62972 -0.176992,0.84277 4.226324,-1.11549 6.427987,-0.41237 2.201663,0.70312 2.201663,4.06729 3.402607,3.96676 1.200944,-0.10053 3.602748,-3.66555 5.779524,-3.5901 2.176776,0.0754 4.128243,3.7911 5.8295,3.71569 1.701257,-0.0754 3.152353,-3.94173 5.279103,-3.76589 2.12676,0.17585 4.92888,4.39364 6.45499,4.66975 1.52611,0.27611 1.7763,-3.38934 3.85303,-3.48973 2.07674,-0.10039 5.97969,3.36422 7.75598,3.26377 1.77628,-0.10045 1.42602,-3.7659 3.87806,-4.06719 2.45205,-0.30129 7.70602,2.76163 9.23214,2.41015 1.52611,-0.35148 -0.67555,-4.11736 -3.62784,-7.55699 -2.95229,-3.43962 -6.65507,-6.55275 -10.78338,-15.3652 -4.1283,-8.81246 -8.68173,-23.323629 -14.38427,-22.258405 z"
       id="path380-9-7"
       sodipodi:nodetypes="cccccccccccccccc"
       inkscape:original-d="m 107.07193,78.806663 c -6.85128,16.64221 -13.702592,33.283897 -20.554341,49.926107 -4.757463,3.64416 -9.5149,7.28797 -14.272609,10.93169 4.403672,-1.95816 8.806986,-3.91642 13.210219,-5.87489 1.73e-4,3.3645 1.73e-4,6.72867 0,10.09276 2.40209,-3.56501 4.803895,-7.13003 7.205579,-10.69531 1.951729,3.716 3.903193,7.43166 5.854536,11.14723 1.451322,-3.86628 2.902416,-7.7326 4.353356,-11.59915 2.8024,4.21813 5.60452,8.43592 8.40651,12.65361 0.25037,-3.66543 0.50056,-7.33088 0.75058,-10.99658 3.90327,3.46491 7.80621,6.92953 11.70905,10.39403 -0.3501,-3.66543 -0.70036,-7.33088 -1.05081,-10.99659 5.25435,3.0632 10.50832,6.12613 15.76221,9.18892 -2.20158,-3.76584 -4.40324,-7.53172 -6.60512,-11.29785 -3.70276,-3.11308 -7.40555,-6.2262 -11.10859,-9.33957 -4.55344,-14.51159 -9.10687,-29.022764 -13.66057,-43.534407 z"
       inkscape:path-effect="#path-effect382-5-1" />
    <path
       style="fill:#008000;stroke:#131313;stroke-width:0.159864;stroke-linecap:round;paint-order:stroke fill markers"
       d="m 93.684019,115.08779 c -5.228115,5.5758 -9.720018,12.5364 -10.440813,13.98102 -0.720795,1.44463 2.329573,-2.62682 4.029957,-3.60802 1.700383,-0.9812 2.050644,1.12769 3.126475,1.12758 1.07583,-1.1e-4 2.877193,-2.109 4.663077,-1.78597 1.785884,0.32303 3.556009,3.07767 5.207245,3.10271 1.65123,0.025 3.18355,-2.67945 4.8005,-2.95206 1.61695,-0.27261 3.31823,1.88649 4.21884,1.76093 0.90062,-0.12557 1.00069,-2.53574 2.07663,-2.68635 1.07595,-0.15061 3.1275,1.95828 4.12819,2.15912 1.00069,0.20083 0.95065,-1.50637 2.07665,-1.53148 1.12599,-0.0251 3.42771,1.63188 4.45342,1.58168 1.02571,-0.0502 0.77552,-1.80761 1.67898,-1.48429 0.90346,0.32333 2.96031,2.72728 3.24453,2.48801 0.28422,-0.23927 -1.20418,-3.12177 -4.1842,-7.91411 -2.98003,-4.79234 -7.45144,-11.49406 -12.66938,-12.74966 -5.21794,-1.25561 -11.181985,2.93509 -16.410101,8.51089 z"
       id="path384-7-1"
       sodipodi:nodetypes="ccccccccccccccccc"
       inkscape:original-d="m 92.947937,113.7028 c -4.491823,6.96093 -8.983732,13.92152 -13.476,20.88223 3.050662,-4.07145 6.101044,-8.14289 9.1513,-12.21461 0.350456,2.10915 0.700718,4.21804 1.050808,6.32681 1.801617,-2.1088 3.602976,-4.2177 5.404194,-6.32681 1.770391,2.75499 3.540523,5.50963 5.310591,8.26427 1.53256,-2.70443 3.06488,-5.40892 4.59708,-8.11364 1.70152,2.15937 3.40279,4.31848 5.10394,6.47745 0.10025,-2.41008 0.20032,-4.82025 0.30022,-7.23063 2.05181,2.10915 4.10336,4.21804 6.15478,6.3268 -0.0499,-1.70709 -0.0999,-3.4143 -0.15012,-5.12169 2.302,1.65723 4.60373,3.3142 6.90534,4.97105 -0.25002,-1.7573 -0.50021,-3.51471 -0.75058,-5.27234 2.05715,2.40429 4.114,4.80824 6.1708,7.21217 -1.48831,-2.88249 -2.9767,-5.765 -4.46536,-8.64785 -4.47141,-6.70182 -8.94283,-13.40353 -13.4145,-20.10556 -5.96411,4.19104 -11.928157,8.38174 -17.892493,12.57235 z"
       inkscape:path-effect="#path-effect386-0-8" />
    <path
       style="fill:#00b100;fill-opacity:1;stroke:#131313;stroke-width:0.159864;stroke-linecap:round;paint-order:stroke fill markers"
       d="m 97.580753,99.567181 c -4.920984,6.468429 -11.209954,17.697719 -11.953772,21.433769 -0.743818,3.73605 4.057519,-0.0214 5.82598,-0.8408 1.76846,-0.81941 0.504005,1.29918 0.772502,1.42951 0.268496,0.13033 2.069849,-1.7275 3.095661,-1.60185 1.025812,0.12565 1.275997,2.23454 2.251753,2.30975 0.975757,0.0752 2.677043,-1.88305 4.278373,-1.85783 1.60133,0.0252 3.10247,2.03368 4.25327,2.0085 1.1508,-0.0252 1.95141,-2.08386 3.12743,-2.18422 1.17602,-0.10035 2.72718,1.75748 3.67783,1.78254 0.95065,0.0251 1.30091,-1.78256 2.32682,-1.83274 1.02591,-0.0502 2.7272,1.65703 3.85297,1.68209 1.12577,0.0251 1.67619,-1.63194 2.44013,-1.57529 0.76394,0.0567 1.74119,1.82679 1.87665,1.43299 0.13546,-0.3938 -0.57084,-2.95146 0.95044,-2.51943 1.52128,0.43202 5.2699,3.85381 3.18288,-0.57281 -2.08703,-4.42662 -10.0097,-16.70172 -15.74747,-21.985762 -5.73778,-5.284044 -9.29046,-3.576848 -14.211447,2.891583 z"
       id="path451-95-1"
       sodipodi:nodetypes="cccccccccccccccccc"
       inkscape:original-d="M 98.948909,94.806017 C 92.659981,106.03573 86.371013,117.26502 80.0816,128.4946 c 4.801715,-3.75741 9.603051,-7.51484 14.404314,-11.27252 -1.264289,2.11878 -2.528737,4.23738 -3.793385,6.35582 1.801604,-1.85774 3.602956,-3.71557 5.404188,-5.57362 0.250363,2.10916 0.500547,4.21805 0.750571,6.32681 1.701525,-1.95817 3.402812,-3.91642 5.103962,-5.87489 1.50136,2.00872 3.00249,4.01719 4.50348,6.02552 0.8008,-2.05858 1.60141,-4.11727 2.40185,-6.17616 1.55141,1.85808 3.10257,3.71591 4.6536,5.57362 0.35045,-1.80752 0.70072,-3.61515 1.05081,-5.42298 1.70153,1.70743 3.40281,3.41464 5.10395,5.1217 0.55061,-1.65688 1.10103,-3.31387 1.65128,-4.97107 0.97749,1.7704 1.95473,3.54054 2.93187,5.3106 -0.70617,-2.55766 -1.41246,-5.11532 -2.11897,-7.67332 3.74894,3.42209 7.49756,6.84388 11.24608,10.26555 -7.92251,-12.27495 -15.84518,-24.55005 -23.76804,-36.82533 -3.55264,1.70743 -7.10532,3.414633 -10.658251,5.121687 z"
       inkscape:path-effect="#path-effect453-05-7" />
    <path
       style="fill:#008000;fill-opacity:1;stroke:#131313;stroke-width:0.199395;stroke-linecap:round;paint-order:stroke fill markers"
       d="m 102.16144,85.014647 c -2.04356,3.497513 -2.661663,7.589277 -4.262049,11.548372 -1.600386,3.959091 -4.182769,7.785031 -5.39523,10.703381 -1.212461,2.91835 -1.054746,4.92827 -0.224159,4.09502 0.830587,-0.83325 2.334036,-4.50961 3.558177,-4.44779 1.22414,0.0618 2.168758,3.86146 3.40132,3.97019 1.232561,0.10872 2.753031,-3.4734 4.231941,-3.33534 1.47891,0.13806 2.91593,3.99614 3.80451,3.75465 0.88859,-0.24148 1.22876,-4.58256 2.54701,-4.82265 1.31825,-0.24009 3.61426,3.62062 4.67387,4.02194 1.05961,0.40132 0.88285,-2.65677 2.13556,-3.02431 1.25271,-0.36753 3.93458,1.95558 4.58369,1.74001 0.6491,-0.21556 -0.7345,-2.96981 -2.10665,-5.96831 -1.37216,-2.9985 -2.73262,-6.240764 -4.05847,-10.871235 -1.32586,-4.630471 -2.61692,-10.648725 -4.997,-12.206525 -2.38007,-1.557801 -5.84895,1.345085 -7.89252,4.842597 z"
       id="path1073-0-7"
       sodipodi:nodetypes="cccccccccccccccc"
       inkscape:original-d="m 100.73602,84.420113 c -0.61795,4.092076 -1.236046,8.183841 -1.854355,12.275649 -2.582458,3.826488 -5.164843,7.652428 -7.747713,11.478658 0.157907,2.01032 0.315621,4.02024 0.473175,6.03013 1.503667,-3.6763 3.007121,-7.35265 4.510443,-11.02929 0.944874,3.80015 1.889495,7.5998 2.833984,11.39948 1.520716,-3.58211 3.041186,-7.16423 4.561596,-10.74678 1.4373,3.85854 2.87432,7.71662 4.31122,11.5747 0.34036,-4.341 0.68053,-8.68208 1.02054,-13.02347 2.29635,3.86117 4.59236,7.72188 6.88829,11.58258 -0.1766,-3.05804 -0.35336,-6.11613 -0.53031,-9.1746 2.68221,2.32341 5.36407,4.64653 8.04583,6.96952 -1.38348,-2.75416 -2.76707,-5.50842 -4.15095,-8.26305 -1.36041,-3.24237 -2.72088,-6.484627 -4.0816,-9.727273 -1.29094,-6.01829 -2.582,-12.036545 -3.87327,-18.055118 -3.46886,2.903185 -6.93774,5.806067 -10.40688,8.708864 z"
       inkscape:path-effect="#path-effect1075-5-2" />
    <path
       style="fill:#00b100;fill-opacity:1;stroke:#131313;stroke-width:0.159864;stroke-linecap:round;paint-order:stroke fill markers"
       d="m 99.265337,88.721783 c -1.956057,4.210362 -2.011358,6.010867 -2.375075,7.183589 -0.363717,1.172722 -1.035831,1.71774 -2.186641,3.324262 -1.150809,1.606526 -2.780112,4.274276 -2.329155,4.633466 0.450957,0.3592 2.982054,-1.59013 4.387989,-1.495 1.405935,0.0951 1.686526,2.23448 2.251744,2.18769 0.565218,-0.0468 1.415071,-2.27966 2.590691,-2.3918 1.17562,-0.11214 2.67674,1.89633 3.82755,1.87115 1.15081,-0.0252 1.95142,-2.08386 3.12744,-2.18422 1.17603,-0.10035 2.7272,1.75748 3.67785,1.78254 0.95064,0.0251 1.30091,-1.78257 3.01102,-1.74124 1.7101,0.0413 4.77976,1.93162 5.22141,1.5448 0.44166,-0.38682 -1.74466,-3.05077 -4.10521,-8.791227 -2.36054,-5.74046 -4.89511,-14.557231 -8.09095,-15.655769 -3.19584,-1.098537 -7.05261,5.521396 -9.008663,9.731759 z"
       id="path451-4-4-6"
       sodipodi:nodetypes="ccccccccccccccc"
       inkscape:original-d="m 97.364588,91.13143 c -0.05509,1.800722 -0.110433,3.601225 -0.165908,5.40163 -0.671983,0.545221 -1.344099,1.090238 -2.016435,1.635128 -1.62923,2.668092 -3.258521,5.335852 -4.888104,8.003582 2.531435,-1.94927 5.062531,-3.8986 7.593614,-5.84823 0.280779,2.13967 0.561372,4.27902 0.841811,6.41834 0.850059,-2.2328 1.699914,-4.46567 2.549604,-6.69877 1.50137,2.00872 3.0025,4.01718 4.50348,6.02552 0.80082,-2.05859 1.60142,-4.11727 2.40186,-6.176157 1.55141,1.858087 3.10258,3.715917 4.65361,5.573607 0.35045,-1.80752 0.70072,-3.61515 1.05082,-5.42297 3.06988,1.8905 6.13954,3.78077 9.20913,5.67096 -2.18623,-2.66389 -4.37256,-5.32783 -6.55909,-7.992006 -2.53445,-8.816764 -5.06903,-17.633535 -7.60388,-26.450823 -3.85674,6.620365 -7.71349,13.240305 -11.570512,19.860189 z"
       inkscape:path-effect="#path-effect453-0-94-0" />
    <path
       style="fill:#008000;stroke:#131313;stroke-width:0.1396;stroke-linecap:round;paint-order:stroke fill markers"
       d="m 97.718592,92.540324 c -1.240964,3.116404 0.64819,1.402044 1.979585,1.557437 1.331393,0.155394 2.104873,2.18032 2.739343,1.96129 0.63446,-0.219031 1.12999,-2.681916 2.02584,-2.832666 0.89585,-0.15075 2.19183,2.010554 2.87789,1.884864 0.68607,-0.12569 0.7623,-2.538316 1.58192,-2.68908 0.81962,-0.150763 2.38243,1.960278 3.14473,2.161315 0.76229,0.201037 0.72417,-1.5079 1.58192,-1.533031 0.85774,-0.02513 2.61113,1.633543 2.41943,0.667832 -0.19171,-0.965711 -2.32841,-4.555736 -4.04717,-8.357903 -1.71876,-3.802167 -3.01948,-7.81641 -5.85545,-5.850006 -2.83597,1.966403 -7.207073,9.913544 -8.448038,13.029948 z"
       id="path384-2-9-3"
       sodipodi:nodetypes="cccccccccccc"
       inkscape:original-d="m 94.588405,97.371149 c 1.889389,-1.714238 3.778545,-3.428596 5.667585,-5.143188 0.77368,2.025156 1.54715,4.050086 2.32048,6.074888 0.49568,-2.462795 0.99119,-4.925683 1.4866,-7.388789 1.29616,2.161563 2.59214,4.322866 3.88802,6.484055 0.0763,-2.412554 0.1526,-4.825178 0.2287,-7.238015 1.56301,2.111301 3.12581,4.222348 4.68852,6.333253 -0.0379,-1.708837 -0.0761,-3.417772 -0.11436,-5.126919 1.75359,1.658912 3.50698,3.317585 5.26027,4.976122 -2.13663,-3.590011 -4.27333,-7.180038 -6.41026,-10.770325 -1.30054,-4.014049 -2.60125,-8.028295 -3.90214,-12.042696 -4.37095,7.94736 -8.742052,15.894501 -13.113415,23.841614 z"
       inkscape:path-effect="#path-effect386-2-0-9" />
    <path
       style="fill:#00b100;fill-opacity:1;stroke:#131313;stroke-width:0.159864;stroke-linecap:round;paint-order:stroke fill markers"
       d="m 105.94169,71.593096 c -0.98305,1.448798 -2.13305,4.042666 -3.78917,6.832757 -1.65612,2.790091 -3.818206,5.776162 -5.02981,8.054036 -1.211605,2.277875 -1.472569,3.847152 -0.930409,3.809636 0.54216,-0.03752 1.88738,-1.681726 2.426641,-1.662933 0.539261,0.01879 0.272508,1.700494 0.989808,1.562124 0.7173,-0.138369 2.41857,-2.096618 4.01991,-2.071399 1.60133,0.02522 3.10246,2.033677 3.93398,2.206877 0.83153,0.1732 0.99355,-1.48876 1.60698,-1.314523 0.61342,0.174237 1.67803,2.1846 2.44626,2.469031 0.76822,0.28443 1.24012,-1.157022 2.00754,-1.375035 0.76742,-0.218013 1.82999,0.787226 2.89272,1.792625 -1.09436,-2.536139 -2.18861,-5.072013 -3.06611,-7.253458 -0.87749,-2.181446 -1.53805,-4.008006 -2.31749,-6.466501 -0.77944,-2.458496 -1.67767,-5.548677 -2.53475,-6.942137 -0.85709,-1.39346 -1.67305,-1.089898 -2.6561,0.3589 z"
       id="path451-9-65-3"
       sodipodi:nodetypes="cccccccccccccccc"
       inkscape:original-d="m 106.10869,70.447894 c -1.14983,2.594099 -2.29983,5.187964 -3.45005,7.781759 -2.16205,2.986431 -4.324132,5.972502 -6.486532,8.958602 -0.260796,1.569543 -0.521772,3.138818 -0.782927,4.708037 1.345468,-1.644129 2.690684,-3.288342 4.035807,-4.93281 -0.266598,1.681933 -0.533348,3.363634 -0.800272,5.045186 1.701514,-1.958165 3.402794,-3.916407 5.103934,-5.874883 1.50137,2.008732 3.0025,4.017187 4.50349,6.025523 0.16221,-1.661896 0.32424,-3.323856 0.48611,-4.986099 1.06486,2.010662 2.12947,4.021027 3.19397,6.031335 0.47209,-1.441344 0.94399,-2.882795 1.41572,-4.32445 1.0629,1.005564 3.1882,3.016198 3.1882,3.016198 0,0 -2.18853,-5.072046 -3.28308,-7.608416 -0.66043,-1.826522 -1.32097,-3.653086 -1.98175,-5.479948 -0.89809,-3.090125 -1.79632,-6.180307 -2.69475,-9.270715 -0.81578,0.303728 -1.63174,0.607293 -2.44787,0.910681 z"
       inkscape:path-effect="#path-effect453-6-3-9" />
    <path
       style="fill:#7a4621;fill-opacity:1;stroke:#131313;stroke-width:0.159864;stroke-linecap:round;paint-order:stroke fill markers"
       d="m 100.14903,140.49013 c -0.210543,1.69035 -0.17545,4.57792 -0.473757,6.77877 -0.298306,2.20084 -0.929954,3.71502 -1.473884,5.01795 -0.543931,1.30294 -1.000105,2.39453 0.91256,2.99314 1.912661,0.59862 6.193721,0.70426 7.685151,-0.22884 1.49142,-0.93309 0.19303,-2.90505 -0.52642,-4.84185 -0.71945,-1.9368 -0.85981,-3.83833 -0.75455,-5.89839 0.10526,-2.06006 0.45618,-4.27851 0.22819,-5.65187 -0.22799,-1.37335 -1.03511,-1.90156 -1.8774,-1.90164 -0.84229,-8e-5 -1.71957,0.52812 -2.38636,1.03875 -0.66678,0.51063 -1.12298,1.00362 -1.33353,2.69398 z"
       id="path2291-0-0"
       sodipodi:nodetypes="ccccccccccc"
       inkscape:original-d="m 99.903392,139.29275 c 0.03522,2.88773 0.07034,5.7753 0.105278,8.66268 -0.631495,1.5144 -1.263141,3.02858 -1.894973,4.54261 -0.456037,1.09183 -0.912213,2.18342 -1.368588,3.27493 4.281501,0.10581 8.562561,0.21144 12.843711,0.31691 -1.29826,-1.97185 -2.59665,-3.9438 -3.89523,-5.91597 -0.14019,-1.90142 -0.28056,-3.80295 -0.4211,-5.70468 0.3511,-2.21835 0.70201,-4.4368 1.05276,-6.65546 -0.80695,-0.52804 -1.61406,-1.05626 -2.42136,-1.58464 -0.87714,0.52839 -1.75442,1.0566 -2.6319,1.58464 -0.45603,0.49318 -0.91223,0.98617 -1.368598,1.47898 z"
       inkscape:path-effect="#path-effect2293-0-1" />
    <path
       id="path7010-51"
       style="fill:#009500;fill-opacity:1;stroke:#131313;stroke-width:0.22639;stroke-linecap:round;paint-order:stroke fill markers"
       d="m 61.911945,139.08274 c -1.069,0.008 -2.12457,0.12226 -3.04995,0.36225 -2.46767,0.64 -4.0095,2.17585 -4.88342,4.15996 -0.87392,1.98409 -1.0798,4.41645 -1.02836,6.72052 0.0514,2.30391 0.36015,4.48001 -0.41083,5.3759 -0.77099,0.89577 -2.62205,0.51167 -5.08961,0.57567 -2.46757,0.064 -5.55198,0.57594 -7.81399,1.66398 -2.262,1.08804 -3.70126,2.75175 -4.52376,4.92787 -0.82251,2.17598 -1.02785,4.86427 -0.92501,7.80831 0.10284,2.94391 0.51366,6.14391 -0.36018,7.80779 -0.87384,1.66388 -3.03251,1.79201 -4.26641,2.944 -1.23388,1.15212 -1.54236,3.32806 -1.90221,7.10396 -0.35984,3.77602 -0.77131,9.15225 0.97669,12.80026 1.74801,3.64789 5.65474,5.56774 9.45885,7.35975 3.8041,1.792 7.50548,3.45625 10.74405,4.35219 3.23856,0.89594 6.01464,1.02401 9.8702,1.72806 3.85556,0.70404 8.79081,1.98385 15.01097,2.36782 6.22012,0.38396 13.72533,-0.12814 19.63704,-0.96015 5.91184,-0.83202 10.230085,-1.98412 13.314445,-3.84008 3.08424,-1.85595 4.93473,-4.41595 5.8601,-7.03988 0.92539,-2.62393 0.92523,-5.31145 0.0517,-7.55148 -0.87379,-2.23991 -2.62132,-4.0325 -5.14026,-5.12061 -2.51881,-1.08811 -5.80928,-1.47208 -6.88898,-2.1761 -1.079695,-0.70402 0.0517,-1.72803 1.4397,-2.87992 1.38801,-1.15201 3.03289,-2.43172 4.11242,-3.90364 1.0794,-1.47192 1.59342,-3.13627 1.74769,-5.1201 0.15427,-1.98396 -0.0512,-4.28793 -0.92501,-6.27197 -0.87381,-1.98404 -2.41594,-3.648 -5.08909,-5.1201 -2.673165,-1.4721 -6.477575,-2.75188 -7.762835,-4.41575 -1.28539,-1.664 -0.0516,-3.7121 0.4625,-5.88802 0.51415,-2.17579 0.30915,-4.47991 -0.0512,-6.65592 -0.35982,-2.17599 -0.87392,-4.22408 -3.13573,-5.63222 -2.26169,-1.40812 -6.27137,-2.17615 -9.25318,-0.96014 -2.98181,1.216 -4.93558,4.41597 -6.68331,4.67206 -1.74771,0.2561 -3.28972,-2.43175 -4.47208,-4.41575 -1.18234,-1.984 -2.00477,-3.26366 -4.11241,-4.0318 -1.31728,-0.48009 -3.1369,-0.76046 -4.91856,-0.74672 z" />
    <path
       id="path7010-5-8"
       style="fill:#36b40f;fill-opacity:1;stroke:#131313;stroke-width:0.178769;stroke-linecap:round;paint-order:stroke fill markers"
       d="m 65.301405,149.64437 c -0.6722,-0.002 -1.39074,0.0442 -2.10169,0.0496 0,0 -1.69545,0.0961 -2.43395,0.2837 -1.96937,0.50005 -3.2,1.69983 -3.89744,3.24993 -0.69744,1.55027 -0.86168,3.45063 -0.82062,5.25085 0.041,1.80009 0.28766,3.50026 -0.32763,4.20026 -0.61529,0.69999 -2.09264,0.39962 -4.06177,0.44958 -1.96929,0.05 -4.43109,0.45006 -6.23631,1.30018 -1.80523,0.85012 -2.95371,2.1508 -3.61012,3.85093 -0.65641,1.70028 -0.82001,3.80012 -0.73794,6.1004 0.0821,2.30013 0.40955,4.80102 -0.28783,6.10092 -0.69724,1.30005 -2.41972,2.48202 -3.40445,3.38222 -0.98473,0.90019 -1.42796,2.30516 -1.71514,5.2555 -0.28718,2.95031 -0.4187,6.36361 0.97617,9.2139 0.56017,1.14447 3.85351,2.18371 4.97489,1.8371 1.05578,-0.34138 4.0635,-0.72463 5.11493,-1.07848 0.29289,-0.10446 0.58662,-0.21151 0.87902,-0.32143 0.10873,-0.0707 0.21677,-0.14275 0.32814,-0.20981 0.70478,-0.43591 2.8916,-1.57337 3.20188,-1.84175 0.74148,-0.67352 1.44786,-1.38164 2.18591,-2.05879 0.68023,-0.6131 1.41988,-1.16473 2.04173,-1.83761 0.47997,-0.47062 0.90221,-0.98692 1.34721,-1.48828 0.40555,-0.42887 0.76544,-0.89401 1.18391,-1.31052 0.54896,-0.59676 1.11078,-1.18124 1.66139,-1.77663 0.72095,-0.77058 1.51646,-1.46899 2.23604,-2.24069 0.53242,-0.5993 1.01502,-1.23747 1.50844,-1.86759 0.43568,-0.63386 0.88685,-1.25435 1.26555,-1.92391 0.40131,-0.63896 0.65569,-1.35731 0.88987,-2.06809 0.2239,-0.69126 0.51165,-1.35392 0.78083,-2.02779 0.29876,-0.82261 2.27277,-5.51811 2.3735,-5.81101 0.14325,-0.41656 0.21122,-0.86065 0.37569,-1.27176 0.20178,-0.67455 0.43326,-1.341 0.62115,-2.01848 0.1498,-0.79568 0.2978,-1.59024 0.44442,-2.38642 0.1742,-0.82224 0.34612,-1.64592 0.48059,-2.4753 0.12453,-0.66424 0.23119,-1.33098 0.37052,-1.99264 0.16187,-0.75311 0.2185,-1.52833 0.43511,-2.2717 0.18486,-0.81736 -0.13945,-2.43723 -0.0357,-3.26698 0.0755,-0.58768 -0.56268,-2.47939 -0.9989,-3.19619 -0.9436,-1.55018 -1.50175,-2.94379 -3.18379,-3.54397 -0.52556,-0.18755 -1.15146,-0.2374 -1.82366,-0.23926 z m 38.698925,47.12994 c -0.0106,0.008 -0.0208,0.0156 -0.0315,0.0232 0.0225,0.0463 0.043,0.0935 0.0651,0.14005 -0.01,-0.055 -0.0227,-0.10872 -0.0336,-0.1633 z m -17.884185,12.01167 c -0.0243,0.006 -0.0487,0.0131 -0.0729,0.0196 0.0169,0.0378 0.0313,0.0758 0.0444,0.11369 0.008,-2.6e-4 0.0159,-0.001 0.0238,-0.001 0.002,-0.0441 0.003,-0.0882 0.005,-0.13229 z" />
    <path
       id="path7010-0-4"
       style="fill:#007700;fill-opacity:1;stroke:#131313;stroke-width:0.22639;stroke-linecap:round;paint-order:stroke fill markers"
       d="m 85.807565,142.73751 v 5.1e-4 c -1.10164,0.0192 -2.19039,0.20407 -3.1688,0.60307 -2.28866,0.93334 -4.02358,2.92643 -5.47268,3.96896 0.0648,0.0712 1.4124,-0.3695 2.37985,-0.4281 0.16598,-0.0101 0.3309,-0.0159 0.49506,-0.0176 1.14912,-0.0116 2.25583,0.18249 3.34553,0.57878 1.15975,0.50751 2.08395,1.34851 2.9099,2.28617 0.61495,0.83933 1.20637,1.69678 1.68775,2.62051 0.46973,0.98922 0.86091,2.01318 1.14722,3.0701 0.24882,1.00334 0.35923,2.03217 0.43563,3.0608 0.0551,0.83182 0.0714,1.66623 0.0827,2.49958 0.0126,0.20638 0.0129,0.41213 0.006,0.61754 0.10336,0.0368 0.20516,0.0786 0.30592,0.1235 0.21046,0.10224 0.40755,0.22836 0.59015,0.37414 0.10777,0.0783 0.20365,0.16994 0.29765,0.26355 0.0179,0.0129 0.0358,0.0259 0.0538,0.0388 0.22748,0.16208 0.44386,0.33975 0.6568,0.52038 0.17973,0.14588 0.35571,0.29489 0.52142,0.45682 0.18007,0.17643 0.36059,0.35269 0.53123,0.53847 0.0711,0.079 0.14195,0.15843 0.21291,0.23771 0.20338,0.15685 0.40031,0.32196 0.58911,0.49609 0.18368,0.15921 0.362,0.32307 0.53123,0.49765 0.14279,0.14333 0.28436,0.28809 0.4129,0.44442 0.11251,0.12195 0.21934,0.24875 0.32918,0.3731 0.0199,0.0232 0.0394,0.0469 0.0584,0.0708 0.0744,0.0666 0.14884,0.13374 0.22169,0.20205 0.15489,0.15715 0.30645,0.31792 0.45269,0.48318 0.17349,0.17337 0.31072,0.37604 0.4532,0.57412 0.12125,0.15645 0.2271,0.32411 0.33952,0.48679 0.10293,0.15646 0.22087,0.30207 0.31987,0.46096 0.078,0.13546 0.16158,0.2685 0.25528,0.39377 0.11681,0.16229 0.22636,0.32918 0.32815,0.50126 0.16546,0.26085 0.32174,0.52648 0.4625,0.8015 0.0988,0.19749 0.19683,0.39498 0.29249,0.59377 0.13126,0.1824 0.22912,0.38561 0.33797,0.58136 0.11334,0.18996 0.22173,0.3821 0.32969,0.57515 0.10766,0.19163 0.19997,0.39118 0.29507,0.58912 0.083,0.16939 0.16463,0.33905 0.24443,0.51004 0.0738,0.1835 0.17525,0.35358 0.26355,0.5302 0.0997,0.20703 0.19581,0.41603 0.28371,0.62839 0.0597,0.15039 0.118,0.30026 0.17105,0.45268 0.294515,0.56534 0.531505,1.16226 0.754475,1.75804 0.28469,0.80027 0.39151,1.64327 0.46561,2.4846 0.0616,0.8063 0.0732,1.6154 0.0842,2.42362 6.3e-4,0.061 0.20767,1.61757 0.01,2.08308 4.6e-4,0.18053 -0.25769,2.38032 -0.5742,3.36148 -0.37788,0.90017 -0.798495,1.85073 -1.448935,2.56529 -0.45757,0.5085 -0.97436,0.95718 -1.44436,1.45366 -0.14322,0.13585 -1.50798,0.91331 -1.55701,0.95963 0.0446,0.30954 3.22034,1.54891 4.005445,2.1978 0.91194,0.78382 2.17854,1.96781 2.86546,2.94245 0.51785,0.8397 1.4804,3.6454 1.711,4.4943 0.26219,0.9445 0.46369,1.89772 0.60203,2.86805 0.13926,1.03529 0.18866,2.0792 0.22686,3.12229 0.10155,1.27907 -0.15629,2.34491 -0.79065,3.45457 -0.66183,1.11336 -1.90453,2.41473 -3.01118,3.0117 -0.8335,0.36452 -4.354995,1.90951 -4.356995,1.97455 3.270285,-0.72596 7.811995,-2.23568 9.872935,-3.47575 3.08433,-1.85595 4.93535,-4.41624 5.86062,-7.03988 0.92539,-2.62393 0.92452,-5.31145 0.0517,-7.55148 -0.87364,-2.23995 -2.62187,-4.03199 -5.14077,-5.1201 -2.51879,-1.08811 -5.80877,-1.47208 -6.88847,-2.1761 -1.07954,-0.70389 0.0512,-1.72842 1.43919,-2.88044 1.38801,-1.15192 3.03303,-2.43172 4.11241,-3.90364 1.07953,-1.47192 1.59343,-3.13623 1.7477,-5.1201 0.15427,-1.98396 -0.0512,-4.28793 -0.92501,-6.27197 -0.87381,-1.98391 -2.41601,-3.648 -5.0891,-5.1201 -2.673035,-1.4721 -6.476955,-2.75184 -7.762315,-4.41575 -1.28535,-1.664 -0.0521,-3.71225 0.46198,-5.88801 0.51415,-2.17593 0.30947,-4.47995 -0.0517,-6.65593 -0.35979,-2.17598 -0.87455,-4.22408 -3.13624,-5.63222 -1.41363,-0.88008 -3.50966,-1.50978 -5.61103,-1.56166 h -0.001 c -0.15743,-0.004 -0.31511,-0.004 -0.47232,-0.002 z"
       sodipodi:nodetypes="ccsccccccccccccccccccccccccccccccccccccccccccccccccccccccccsccsccscscsccsssc" />
    <path
       style="fill:#2b1100;fill-opacity:1;stroke:#131313;stroke-width:0.243;stroke-linecap:round;paint-order:stroke fill markers"
       d="m 61.257445,215.36617 c 0,5.91071 0,11.82116 -0.18472,16.25401 -0.184719,4.43284 -0.554115,7.388 -1.539217,10.65105 -0.985102,3.26304 -2.585815,6.83387 0.677488,8.68082 3.263303,1.84696 11.390003,1.97009 14.837687,0.61574 3.447684,-1.35434 2.216366,-4.18638 1.354371,-7.38792 -0.861995,-3.20154 -1.354521,-6.77236 -1.723934,-10.03545 -0.369413,-3.2631 -0.615675,-6.21827 -0.73882,-8.98882 -0.123145,-2.77056 -0.123145,-5.35633 -0.123145,-7.94242"
       id="path9162-62"
       inkscape:path-effect="#path-effect9164-1"
       inkscape:original-d="m 61.257445,215.36617 c 2.7e-4,5.91071 2.7e-4,11.82116 0,17.73134 -0.36914,2.95555 -0.73854,5.91071 -1.10821,8.86567 -1.60051,3.57123 -3.20122,7.14206 -4.80223,10.71269 8.12729,0.1234 16.25399,0.24653 24.38059,0.3694 -1.2311,-2.83188 -2.46242,-5.66391 -3.69403,-8.49627 -0.49228,-3.5707 -0.98481,-7.14152 -1.47761,-10.71268 -0.24601,-2.95502 -0.49227,-5.91019 -0.7388,-8.86567 2.6e-4,-2.58561 2.6e-4,-5.17138 0,-7.75747" />
    <path
       id="path7010-51-9"
       style="fill:#009500;fill-opacity:1;stroke:#131313;stroke-width:0.157051;stroke-linecap:round;paint-order:stroke fill markers"
       d="m 54.147751,55.193406 c -0.727204,0.0057 -1.445272,0.08649 -2.074776,0.256271 -1.678671,0.452763 -2.727524,1.539288 -3.322022,2.942931 -0.594498,1.403628 -0.734551,3.124382 -0.699558,4.754378 0.03497,1.629883 0.244998,3.169347 -0.279473,3.803138 -0.524478,0.633705 -1.78369,0.361976 -3.462286,0.407253 -1.678603,0.04528 -3.776821,0.407444 -5.315588,1.177169 -1.538761,0.769725 -2.51784,1.946704 -3.077358,3.486182 -0.559525,1.53938 -0.699211,3.441189 -0.629252,5.523927 0.06996,2.082645 0.349425,4.34646 -0.245018,5.523559 -0.594444,1.177098 -2.062912,1.267743 -2.902292,2.082709 -0.839366,0.815058 -1.049214,2.354409 -1.294008,5.02564 -0.244786,2.671315 -0.524695,6.474686 0.664409,9.055438 1.189111,2.580669 3.846724,3.938859 6.434529,5.206599 2.587798,1.26774 5.105719,2.4451 7.308807,3.07892 2.20308,0.63383 4.091552,0.72443 6.714356,1.2225 2.622805,0.49807 5.980085,1.40347 10.211445,1.6751 4.231333,0.27163 9.336868,-0.0906 13.358401,-0.67925 4.021621,-0.58861 6.959174,-1.40365 9.057357,-2.71664 2.098102,-1.31297 3.356927,-3.12402 3.986424,-4.9803 0.629511,-1.85628 0.629402,-3.757544 0.03517,-5.342235 -0.594409,-1.584607 -1.783194,-2.85276 -3.496742,-3.622535 -1.713459,-0.769775 -3.951852,-1.041411 -4.686335,-1.539464 -0.734479,-0.498054 0.03517,-1.222481 0.979378,-2.037377 0.944216,-0.81498 2.063171,-1.720301 2.797538,-2.761599 0.734278,-1.041298 1.083948,-2.218729 1.188893,-3.622174 0.104944,-1.403536 -0.03483,-3.033461 -0.629252,-4.437055 -0.594423,-1.403593 -1.643481,-2.580748 -3.461933,-3.622174 -1.818462,-1.041425 -4.406471,-1.946795 -5.280789,-3.123887 -0.874406,-1.177183 -0.0351,-2.626095 0.314623,-4.165432 0.349759,-1.539246 0.210304,-3.169277 -0.03483,-4.708678 -0.244774,-1.539387 -0.594498,-2.988291 -2.133129,-3.984469 -1.53855,-0.996163 -4.266197,-1.5395 -6.294619,-0.679243 -2.028423,0.860249 -3.357505,3.124042 -4.546426,3.305211 -1.188906,0.181176 -2.237883,-1.720322 -3.042201,-3.123887 -0.804305,-1.403565 -1.363776,-2.30885 -2.797531,-2.852264 -0.8961,-0.339636 -2.133925,-0.537982 -3.345927,-0.528262 z" />
    <path
       id="path7010-5-8-8"
       style="fill:#36b40f;fill-opacity:1;stroke:#131313;stroke-width:0.124016;stroke-linecap:round;paint-order:stroke fill markers"
       d="m 56.453484,62.665147 c -0.457275,-0.0014 -0.946073,0.03127 -1.429708,0.03509 0,0 -1.153356,0.06799 -1.655732,0.200702 -1.339694,0.353756 -2.176849,1.202531 -2.651294,2.299137 -0.474444,1.096726 -0.586171,2.44112 -0.558239,3.714672 0.02789,1.273459 0.195685,2.476231 -0.222876,2.97144 -0.41856,0.495202 -1.42355,0.282708 -2.763082,0.318052 -1.33964,0.03537 -3.014317,0.318391 -4.242346,0.919802 -1.228036,0.60141 -2.009307,1.521566 -2.45584,2.724309 -0.446533,1.20285 -0.557825,2.688365 -0.501995,4.31568 0.05585,1.627208 0.278602,3.396443 -0.195801,4.316047 -0.474308,0.91971 -1.646052,1.755885 -2.31593,2.392724 -0.669878,0.636833 -0.971392,1.630767 -1.166751,3.717962 -0.195358,2.087173 -0.284827,4.501885 0.664055,6.5183 0.381065,0.809646 2.62141,1.544848 3.384246,1.299642 0.718211,-0.241507 2.764259,-0.512634 3.479511,-0.762963 0.199243,-0.0739 0.399057,-0.149631 0.597967,-0.227393 0.07397,-0.05002 0.147461,-0.100987 0.223222,-0.148428 0.479437,-0.308381 1.967056,-1.113068 2.178128,-1.302931 0.504404,-0.476477 0.98493,-0.977431 1.487,-1.456475 0.462737,-0.433733 0.965895,-0.823979 1.388918,-1.300002 0.326507,-0.332937 0.613742,-0.698189 0.916461,-1.052872 0.275881,-0.303401 0.520702,-0.63246 0.805373,-0.927117 0.373438,-0.422173 0.755625,-0.835659 1.130186,-1.256863 0.490437,-0.545141 1.031595,-1.039225 1.521101,-1.585158 0.362187,-0.42397 0.690483,-0.875438 1.026139,-1.321212 0.296379,-0.448419 0.603294,-0.88738 0.86091,-1.361054 0.272998,-0.452028 0.446044,-0.960219 0.605348,-1.463054 0.152312,-0.489027 0.348058,-0.95782 0.531172,-1.434544 0.203236,-0.581949 1.546087,-3.903743 1.61461,-4.110953 0.09745,-0.294692 0.143686,-0.60886 0.255569,-0.899696 0.137264,-0.477205 0.294732,-0.94868 0.422547,-1.427958 0.101904,-0.562897 0.202583,-1.125002 0.302324,-1.688253 0.118502,-0.581688 0.235453,-1.164393 0.326928,-1.751132 0.08471,-0.469911 0.157271,-0.941591 0.252052,-1.409677 0.110115,-0.532782 0.148638,-1.081205 0.295991,-1.607096 0.125754,-0.578235 -0.09486,-1.724199 -0.02429,-2.311199 0.05136,-0.415749 -0.382772,-1.754025 -0.679517,-2.261119 -0.641898,-1.096662 -1.021589,-2.082561 -2.165822,-2.507153 -0.357521,-0.132681 -0.783299,-0.167947 -1.240573,-0.169263 z m 26.325543,33.3417 c -0.0072,0.0057 -0.01415,0.01104 -0.02143,0.01641 0.01531,0.03275 0.02925,0.06615 0.04429,0.09908 -0.0068,-0.03891 -0.01544,-0.07691 -0.02286,-0.115525 z m -12.165994,8.497563 c -0.01653,0.004 -0.03313,0.009 -0.04959,0.0139 0.0115,0.0267 0.02129,0.0536 0.0302,0.0804 0.0054,-1.8e-4 0.01082,-7.1e-4 0.01619,-7.1e-4 0.0014,-0.0312 0.002,-0.0624 0.0034,-0.0936 z" />
    <path
       id="path7010-0-4-1"
       style="fill:#007700;fill-opacity:1;stroke:#131313;stroke-width:0.157051;stroke-linecap:round;paint-order:stroke fill markers"
       d="m 70.403117,57.778944 v 3.61e-4 c -0.749408,0.01358 -1.490047,0.144368 -2.155626,0.426637 -1.556896,0.660284 -2.737102,2.07028 -3.722875,2.807809 0.04408,0.05037 0.960807,-0.2614 1.61893,-0.302856 0.11291,-0.0071 0.2251,-0.01125 0.336772,-0.01245 0.781707,-0.0082 1.534563,0.129101 2.275849,0.409454 0.788938,0.359033 1.417639,0.953992 1.979504,1.617332 0.41833,0.593778 0.820652,1.200374 1.148118,1.853859 0.319542,0.699816 0.585648,1.424208 0.780415,2.171918 0.169263,0.709805 0.244371,1.437642 0.296344,2.165338 0.03748,0.588465 0.04857,1.178762 0.05626,1.768308 0.0086,0.146002 0.0088,0.291558 0.0041,0.436874 0.07031,0.02603 0.139563,0.0556 0.208107,0.08737 0.143169,0.07233 0.277242,0.161552 0.401459,0.264682 0.07331,0.05539 0.138536,0.120223 0.202481,0.186447 0.01218,0.0091 0.02435,0.01832 0.0366,0.02745 0.154747,0.114662 0.301943,0.240353 0.446798,0.368138 0.122265,0.103202 0.241978,0.208618 0.354704,0.323174 0.122496,0.124814 0.245297,0.249508 0.361378,0.380936 0.04837,0.05589 0.09656,0.11208 0.144835,0.168166 0.138353,0.110963 0.272317,0.227768 0.400751,0.350955 0.124952,0.112632 0.246257,0.228553 0.361378,0.352059 0.09714,0.101397 0.19344,0.203807 0.280881,0.314401 0.07654,0.08627 0.14921,0.175976 0.22393,0.263947 0.01354,0.01641 0.0268,0.03318 0.03973,0.05009 0.05061,0.04711 0.101251,0.09461 0.150808,0.142938 0.105366,0.111175 0.208467,0.22491 0.307949,0.341822 0.118019,0.122649 0.211372,0.266027 0.308297,0.406157 0.08248,0.110679 0.154488,0.229289 0.230963,0.344375 0.07002,0.110687 0.150251,0.213697 0.217597,0.326103 0.05306,0.09583 0.109917,0.189948 0.173658,0.278569 0.07946,0.114811 0.153985,0.232876 0.223229,0.354613 0.112557,0.184536 0.218869,0.372454 0.314623,0.567014 0.06721,0.139713 0.133897,0.279426 0.198971,0.420058 0.08929,0.129038 0.155862,0.272797 0.229909,0.411279 0.0771,0.134385 0.150835,0.270313 0.224277,0.406885 0.07324,0.135567 0.136033,0.276737 0.200726,0.416768 0.05646,0.119834 0.111992,0.239859 0.166277,0.360824 0.0502,0.129816 0.119217,0.250137 0.179284,0.375086 0.06782,0.146461 0.133203,0.294317 0.192998,0.444549 0.04061,0.106392 0.08027,0.212417 0.11636,0.320245 0.200348,0.399945 0.361564,0.822232 0.513243,1.243711 0.193665,0.566145 0.266331,1.162519 0.316738,1.757711 0.0419,0.57041 0.0498,1.142802 0.05728,1.714571 4.28e-4,0.04315 0.14127,1.144336 0.0068,1.473658 3.13e-4,0.127714 -0.175297,1.683938 -0.390608,2.378052 -0.257059,0.636818 -0.543189,1.309284 -0.985661,1.814794 -0.311269,0.359734 -0.662823,0.677149 -0.982548,1.02838 -0.09743,0.09611 -1.025827,0.646114 -1.05918,0.678883 0.03034,0.218981 2.190686,1.095764 2.724766,1.554816 0.620361,0.554507 1.481986,1.392111 1.949274,2.081612 0.352275,0.59404 1.007065,2.57891 1.163934,3.179465 0.178359,0.66818 0.315432,1.342519 0.40954,2.028979 0.09473,0.7324 0.128339,1.47091 0.154325,2.20883 0.06908,0.90487 -0.106319,1.65889 -0.537852,2.44391 -0.45022,0.78764 -1.295586,1.70828 -2.048402,2.13061 -0.567001,0.25787 -2.962553,1.35086 -2.963913,1.39688 2.224662,-0.51358 5.314231,-1.58162 6.716217,-2.4589 2.098163,-1.31297 3.357348,-3.12423 3.986778,-4.9803 0.62951,-1.856279 0.628919,-3.757549 0.03517,-5.342241 C 88.39146,94.925415 87.2022,93.65765 85.488679,92.887875 83.775233,92.118101 81.537173,91.846464 80.80269,91.348411 c -0.734373,-0.497961 0.03483,-1.222757 0.979032,-2.037744 0.944215,-0.814917 2.063265,-1.720301 2.79753,-2.761599 0.734367,-1.041298 1.083956,-2.218701 1.1889,-3.622174 0.104945,-1.403537 -0.03483,-3.033462 -0.629252,-4.437055 -0.594423,-1.403502 -1.643528,-2.580749 -3.461939,-3.622174 -1.818374,-1.041425 -4.406049,-1.946767 -5.280435,-3.123887 -0.87438,-1.177184 -0.03544,-2.626202 0.314269,-4.165426 0.349758,-1.539344 0.210521,-3.169305 -0.03517,-4.708684 -0.244753,-1.53938 -0.594926,-2.988292 -2.133476,-3.984469 -0.961644,-0.622606 -2.3875,-1.068082 -3.81699,-1.104784 h -6.8e-4 c -0.107094,-0.0028 -0.214359,-0.0028 -0.321303,-0.0014 z"
       sodipodi:nodetypes="ccsccccccccccccccccccccccccccccccccccccccccccccccccccccccccsccsccscscsccsssc" />
    <path
       style="fill:#2b1100;fill-opacity:1;stroke:#131313;stroke-width:0.168574;stroke-linecap:round;paint-order:stroke fill markers"
       d="m 53.702517,109.15951 c 0,4.18149 0,8.36279 -0.125659,11.49877 -0.125658,3.13599 -0.376945,5.22659 -1.047077,7.535 -0.670133,2.30842 -1.759043,4.83457 0.460871,6.14118 2.219915,1.30661 7.748228,1.39372 10.093568,0.4356 2.345341,-0.95812 1.507717,-2.96162 0.921332,-5.22653 -0.586384,-2.2649 -0.921433,-4.79105 -1.172732,-7.0995 -0.251299,-2.30845 -0.418822,-4.39906 -0.502594,-6.35906 -0.08377,-1.96001 -0.08377,-3.7893 -0.08377,-5.61881"
       id="path9162-62-4"
       inkscape:path-effect="#path-effect9164-1-34"
       inkscape:original-d="m 53.702517,109.15951 c 1.84e-4,4.18149 1.84e-4,8.36279 0,12.5439 -0.251113,2.09088 -0.502403,4.18148 -0.753877,6.27194 -1.088772,2.52644 -2.177679,5.0526 -3.266791,7.57861 5.528715,0.0873 11.057028,0.17441 16.585274,0.26133 -0.837475,-2.00339 -1.675099,-4.00689 -2.512921,-6.01062 -0.334881,-2.52606 -0.669932,-5.05221 -1.005167,-7.5786 -0.167352,-2.0905 -0.334875,-4.18111 -0.50258,-6.27195 1.76e-4,-1.82916 1.76e-4,-3.65845 0,-5.48796" />
    <path
       id="path7010-51-7"
       style="fill:#009500;fill-opacity:1;stroke:#131313;stroke-width:0.185402;stroke-linecap:round;paint-order:stroke fill markers"
       d="m 163.4199,74.786032 c -0.87305,0.0066 -1.73513,0.1004 -2.49089,0.297481 -2.01535,0.525569 -3.27456,1.786812 -3.98829,3.416167 -0.71373,1.629339 -0.88187,3.626798 -0.83986,5.518905 0.042,1.891976 0.29413,3.678994 -0.33553,4.4147 -0.62967,0.735608 -2.14143,0.420185 -4.15668,0.472742 -2.01527,0.05256 -4.53431,0.472963 -6.38169,1.366463 -1.84738,0.893501 -3.02282,2.259743 -3.69456,4.046777 -0.67174,1.78692 -0.83944,3.994549 -0.75545,6.412203 0.084,2.41754 0.4195,5.04539 -0.29416,6.41177 -0.71367,1.36638 -2.47665,1.4716 -3.48438,2.41762 -1.00771,0.94612 -1.25965,2.73301 -1.55354,5.83379 -0.29388,3.10087 -0.62993,7.51584 0.79767,10.5116 1.4276,2.99565 4.61822,4.57224 7.72504,6.04384 3.10681,1.47159 6.12973,2.83828 8.77467,3.57403 2.64493,0.73575 4.91216,0.84092 8.061,1.41908 3.14883,0.57816 7.17945,1.62915 12.25946,1.94446 5.07996,0.31531 11.20947,-0.10522 16.03756,-0.78847 4.8282,-0.68326 8.35491,-1.62937 10.87391,-3.15349 2.5189,-1.52411 4.03019,-3.62639 4.78594,-5.78116 0.75577,-2.15478 0.75564,-4.36178 0.0422,-6.20129 -0.71363,-1.83942 -2.14084,-3.3115 -4.19805,-4.20506 -2.05712,-0.89356 -4.74444,-1.20887 -5.62624,-1.78702 -0.88178,-0.57814 0.0422,-1.41906 1.17581,-2.36499 1.13359,-0.94604 2.47696,-1.99694 3.35861,-3.20568 0.88155,-1.20874 1.30135,-2.57551 1.42734,-4.20464 0.12599,-1.62923 -0.0418,-3.52125 -0.75546,-5.15055 -0.71364,-1.6293 -1.97309,-2.995746 -4.15625,-4.204638 -2.18317,-1.208891 -5.29023,-2.259849 -6.3399,-3.626223 -1.04979,-1.36648 -0.0421,-3.048384 0.37772,-4.835254 0.41991,-1.786763 0.25248,-3.678911 -0.0418,-5.465855 -0.29387,-1.786928 -0.71373,-3.468823 -2.56096,-4.625191 -1.84712,-1.156351 -5.12182,-1.787059 -7.55707,-0.788469 -2.43524,0.998582 -4.03089,3.626404 -5.45826,3.836706 -1.42735,0.210309 -2.68671,-1.996959 -3.65235,-3.626223 -0.96562,-1.629265 -1.63729,-2.680125 -3.3586,-3.310923 -1.07583,-0.394251 -2.56191,-0.624491 -4.01699,-0.613208 z" />
    <path
       id="path7010-5-8-3"
       style="fill:#36b40f;fill-opacity:1;stroke:#131313;stroke-width:0.146403;stroke-linecap:round;paint-order:stroke fill markers"
       d="m 166.18808,83.459264 c -0.54899,-0.0016 -1.13582,0.0363 -1.71645,0.04073 0,0 -1.38468,0.07892 -1.98781,0.232975 -1.60839,0.410642 -2.61344,1.395904 -3.18304,2.668849 -0.5696,1.273085 -0.70374,2.833665 -0.6702,4.312009 0.0335,1.478238 0.23493,2.874421 -0.26758,3.449262 -0.5025,0.574833 -1.70906,0.328169 -3.31725,0.369196 -1.60832,0.04106 -3.61887,0.36959 -5.09319,1.067711 -1.47433,0.69812 -2.4123,1.766241 -2.94839,3.162391 -0.53609,1.396273 -0.6697,3.120663 -0.60267,5.009663 0.0671,1.88887 0.33448,3.94261 -0.23507,5.01009 -0.56944,1.0676 -1.97619,2.03824 -2.78042,2.77748 -0.80423,0.73924 -1.16621,1.893 -1.40075,4.31583 -0.23454,2.4228 -0.34196,5.22581 0.79723,7.56647 0.4575,0.93984 3.14717,1.79327 4.063,1.50863 0.86225,-0.28034 3.31866,-0.59506 4.17736,-0.88565 0.23921,-0.0858 0.4791,-0.17369 0.7179,-0.26396 0.0888,-0.0581 0.17703,-0.11722 0.26799,-0.17229 0.57559,-0.35797 2.36157,-1.29206 2.61498,-1.51245 0.60556,-0.5531 1.18246,-1.13461 1.78523,-1.69068 0.55554,-0.50348 1.15962,-0.95648 1.66748,-1.50905 0.39199,-0.38648 0.73684,-0.81046 1.10027,-1.22218 0.33121,-0.35219 0.62513,-0.73416 0.9669,-1.0762 0.44833,-0.49006 0.90717,-0.97004 1.35685,-1.45898 0.5888,-0.6328 1.2385,-1.20633 1.82618,-1.84005 0.43483,-0.49215 0.82897,-1.01622 1.23194,-1.53367 0.35582,-0.52053 0.72429,-1.03008 1.03358,-1.57992 0.32775,-0.52472 0.5355,-1.11463 0.72675,-1.69832 0.18286,-0.56767 0.41787,-1.11184 0.63771,-1.66523 0.24399,-0.67553 1.85617,-4.53148 1.93844,-4.77201 0.11699,-0.34208 0.1725,-0.70677 0.30682,-1.04437 0.1648,-0.55394 0.35385,-1.101234 0.50729,-1.657582 0.12235,-0.653414 0.24322,-1.305908 0.36296,-1.959733 0.14227,-0.675225 0.28268,-1.351633 0.3925,-2.032721 0.1017,-0.545476 0.18881,-1.093004 0.3026,-1.63636 0.1322,-0.618456 0.17845,-1.255068 0.35536,-1.865525 0.15097,-0.671218 -0.11389,-2.001458 -0.0292,-2.682851 0.0617,-0.482604 -0.45954,-2.03608 -0.8158,-2.624718 -0.77064,-1.273011 -1.22648,-2.417446 -2.6002,-2.910315 -0.42923,-0.154016 -0.9404,-0.194953 -1.48938,-0.196481 z m 31.60541,38.703206 c -0.009,0.007 -0.017,0.0128 -0.0257,0.0191 0.0184,0.038 0.0351,0.0768 0.0532,0.11501 -0.008,-0.0452 -0.0185,-0.0893 -0.0274,-0.13411 z m -14.60601,9.86401 c -0.0198,0.005 -0.0398,0.0108 -0.0595,0.0161 0.0138,0.031 0.0256,0.0623 0.0363,0.0934 0.007,-2.2e-4 0.013,-8.2e-4 0.0194,-8.2e-4 0.002,-0.0362 0.002,-0.0724 0.004,-0.10864 z" />
    <path
       id="path7010-0-4-7"
       style="fill:#007700;fill-opacity:1;stroke:#131313;stroke-width:0.185402;stroke-linecap:round;paint-order:stroke fill markers"
       d="m 182.93546,77.787337 v 4.19e-4 c -0.89972,0.01577 -1.78889,0.167582 -2.58796,0.495242 -1.86915,0.766461 -3.28606,2.40319 -4.46954,3.259318 0.0529,0.05847 1.15351,-0.303434 1.94362,-0.351557 0.13555,-0.0083 0.27025,-0.01306 0.40431,-0.01445 0.93849,-0.0095 1.84235,0.149861 2.7323,0.475296 0.94717,0.416768 1.70196,1.107399 2.37652,1.877407 0.50222,0.68926 0.98524,1.393399 1.37838,2.151968 0.38363,0.81235 0.70311,1.653228 0.93694,2.521173 0.20321,0.823945 0.29338,1.668822 0.35578,2.513535 0.045,0.683092 0.0583,1.368311 0.0675,2.05266 0.0103,0.16948 0.0105,0.338442 0.005,0.507125 0.0844,0.03022 0.16756,0.06455 0.24986,0.101419 0.17187,0.08396 0.33283,0.187529 0.48197,0.307244 0.088,0.0643 0.16632,0.139555 0.24309,0.216428 0.0146,0.01059 0.0292,0.02127 0.0439,0.03186 0.18578,0.1331 0.3625,0.279003 0.53641,0.427337 0.14679,0.119797 0.29051,0.242164 0.42584,0.375141 0.14707,0.144885 0.2945,0.28963 0.43386,0.442193 0.0581,0.06488 0.11593,0.130103 0.17388,0.195208 0.1661,0.128806 0.32694,0.264394 0.48113,0.40739 0.15001,0.130744 0.29564,0.265306 0.43385,0.408671 0.11662,0.117703 0.23224,0.23658 0.33721,0.364959 0.0919,0.100146 0.17914,0.204274 0.26884,0.30639 0.0163,0.01905 0.0322,0.03852 0.0477,0.05814 0.0608,0.05469 0.12156,0.109827 0.18105,0.165923 0.1265,0.129052 0.25028,0.261077 0.36972,0.396789 0.14168,0.142372 0.25376,0.308805 0.37012,0.471468 0.099,0.128477 0.18548,0.26616 0.27729,0.399753 0.0841,0.128486 0.18038,0.248061 0.26124,0.378542 0.0637,0.11124 0.13196,0.220492 0.20849,0.323364 0.0954,0.133273 0.18486,0.270324 0.268,0.411636 0.13513,0.214211 0.26276,0.432347 0.37772,0.658192 0.0807,0.16218 0.16075,0.32436 0.23888,0.48761 0.1072,0.14978 0.18712,0.31666 0.27602,0.47741 0.0926,0.156 0.18108,0.31378 0.26925,0.47231 0.0879,0.15737 0.16332,0.32124 0.24099,0.48379 0.0678,0.1391 0.13445,0.27843 0.19962,0.41885 0.0603,0.15069 0.14313,0.29036 0.21524,0.4354 0.0814,0.17001 0.15992,0.34164 0.23171,0.51603 0.0488,0.1235 0.0964,0.24658 0.1397,0.37175 0.24052,0.46425 0.43407,0.95445 0.61617,1.4437 0.23251,0.65718 0.31975,1.34946 0.38027,2.04036 0.0503,0.66214 0.0598,1.32657 0.0688,1.99028 5.2e-4,0.0501 0.16961,1.32835 0.008,1.71063 3.8e-4,0.14825 -0.21046,1.95472 -0.46895,2.76046 -0.30861,0.73922 -0.65213,1.51982 -1.18334,2.10662 -0.3737,0.41758 -0.79576,0.78604 -1.17961,1.19375 -0.11697,0.11156 -1.23157,0.75001 -1.27161,0.78805 0.0364,0.25419 2.63005,1.27196 3.27124,1.80483 0.74479,0.64368 1.77922,1.61597 2.34023,2.41635 0.42292,0.68956 1.20904,2.99361 1.39737,3.69073 0.21413,0.77562 0.37869,1.55841 0.49168,2.35525 0.11373,0.85018 0.15408,1.70744 0.18527,2.56403 0.0829,1.05037 -0.12764,1.92565 -0.64572,2.8369 -0.54052,0.9143 -1.55543,1.98298 -2.45923,2.47322 -0.68072,0.29934 -3.55672,1.56809 -3.55836,1.6215 2.67084,-0.59616 6.38006,-1.83594 8.06323,-2.85429 2.51897,-1.52411 4.0307,-3.62663 4.78637,-5.78117 0.75576,-2.15478 0.75505,-4.36177 0.0422,-6.20129 -0.7135,-1.83945 -2.14128,-3.31108 -4.19847,-4.20464 -2.05709,-0.89356 -4.74402,-1.20887 -5.62581,-1.78702 -0.88166,-0.57803 0.0418,-1.41938 1.17538,-2.36542 1.13359,-0.94596 2.47708,-1.99693 3.35861,-3.20568 0.88165,-1.20874 1.30136,-2.57548 1.42735,-4.20463 0.12599,-1.62924 -0.0418,-3.52126 -0.75546,-5.15056 -0.71364,-1.62919 -1.97315,-2.995742 -4.15627,-4.204634 -2.18306,-1.208892 -5.28972,-2.259817 -6.33948,-3.626223 -1.04974,-1.36648 -0.0426,-3.048507 0.3773,-4.835246 0.41991,-1.786878 0.25275,-3.678944 -0.0422,-5.465863 -0.29384,-1.78692 -0.71425,-3.468823 -2.56137,-4.625191 -1.15451,-0.722723 -2.86634,-1.239834 -4.58253,-1.282438 h -8.1e-4 c -0.12858,-0.0033 -0.25735,-0.0033 -0.38575,-0.0016 z"
       sodipodi:nodetypes="ccsccccccccccccccccccccccccccccccccccccccccccccccccccccccccsccsccscscsccsssc" />
    <path
       style="fill:#2b1100;fill-opacity:1;stroke:#131313;stroke-width:0.199004;stroke-linecap:round;paint-order:stroke fill markers"
       d="m 162.88537,137.43014 c 0,4.85389 0,9.70757 -0.15086,13.34783 -0.15086,3.64026 -0.45254,6.06705 -1.25708,8.74667 -0.80453,2.67962 -2.11183,5.61198 0.55331,7.12871 2.66514,1.51672 9.30221,1.61784 12.11793,0.50564 2.81573,-1.11219 1.81011,-3.43785 1.10612,-6.06697 -0.70399,-2.62911 -1.10623,-5.56147 -1.40793,-8.24114 -0.3017,-2.67966 -0.50282,-5.10645 -0.6034,-7.38164 -0.10057,-2.27518 -0.10057,-4.39862 -0.10057,-6.52233"
       id="path9162-62-5"
       inkscape:path-effect="#path-effect9164-1-3"
       inkscape:original-d="m 162.88537,137.43014 c 2.2e-4,4.85389 2.2e-4,9.70757 0,14.56102 -0.30147,2.4271 -0.60316,4.85389 -0.90507,7.28051 -1.30714,2.9327 -2.61444,5.86507 -3.92198,8.79728 6.63756,0.10133 13.27463,0.20245 19.91162,0.30335 -1.00543,-2.32555 -2.01105,-4.65121 -3.01691,-6.97715 -0.40204,-2.93227 -0.80429,-5.86463 -1.20676,-8.79728 -0.20092,-2.42667 -0.40204,-4.85346 -0.60338,-7.2805 2.1e-4,-2.12331 2.1e-4,-4.24675 0,-6.37046" />
  </g>
</svg>
