<?xml version="1.0" encoding="UTF-8" standalone="no"?>
<!-- Created with Inkscape (http://www.inkscape.org/) -->

<svg
   width="210mm"
   height="297mm"
   viewBox="0 0 210 297"
   version="1.1"
   id="svg5"
   inkscape:version="1.2.2 (732a01da63, 2022-12-09)"
   sodipodi:docname="prirodna bogatstva.svg"
   inkscape:export-filename="restoran.png"
   inkscape:export-xdpi="103.05143"
   inkscape:export-ydpi="103.05143"
   xmlns:inkscape="http://www.inkscape.org/namespaces/inkscape"
   xmlns:sodipodi="http://sodipodi.sourceforge.net/DTD/sodipodi-0.dtd"
   xmlns="http://www.w3.org/2000/svg"
   xmlns:svg="http://www.w3.org/2000/svg">
  <sodipodi:namedview
     id="namedview7"
     pagecolor="#ffffff"
     bordercolor="#000000"
     borderopacity="0.25"
     inkscape:showpageshadow="2"
     inkscape:pageopacity="0.0"
     inkscape:pagecheckerboard="0"
     inkscape:deskcolor="#d1d1d1"
     inkscape:document-units="mm"
     showgrid="false"
     inkscape:zoom="0.99907045"
     inkscape:cx="374.84844"
     inkscape:cy="486.95265"
     inkscape:window-width="1920"
     inkscape:window-height="991"
     inkscape:window-x="-9"
     inkscape:window-y="-9"
     inkscape:window-maximized="1"
     inkscape:current-layer="layer1" />
  <defs
     id="defs2" />
  <g
     inkscape:label="Layer 1"
     inkscape:groupmode="layer"
     id="layer1">
    <g
       id="g325"
       transform="translate(3.2728898,-7.0449003)">
      <path
         id="path796-9-4"
         style="fill:#666666;fill-opacity:0.336864;stroke:#000000;stroke-width:0.241228;stroke-opacity:0"
         d="m 182.98054,222.46652 c -17.09149,9.37104 -78.41552,7.84221 -78.41552,7.84221 0,0 15.49562,-42.64691 32.58711,-52.01796 17.09149,-9.37104 40.96654,-7.30947 53.96457,5.21984 12.99803,12.52928 8.95533,29.58485 -8.13616,38.95591 z"
         sodipodi:nodetypes="scsss" />
    </g>
    <path
       id="path796-9"
       style="fill:#009a00;fill-opacity:1;stroke:#000000;stroke-width:0.536659"
       d="m 181.41403,92.322218 c 0,40.606832 -73.22736,131.076362 -73.22736,131.076362 0,0 -71.14178,-90.46953 -71.14178,-131.076362 0,-40.606839 31.56399,-73.52519 72.51053,-73.525188 40.94651,4e-6 71.85861,32.918349 71.85861,73.525188 z"
       sodipodi:nodetypes="scsss" />
    <ellipse
       style="fill:#ffffff;stroke:#000000;stroke-width:0.67811"
       id="path3193-8"
       cx="109.05181"
       cy="92.045479"
       rx="63.131382"
       ry="65.261703" />
    <path
       id="rect1791"
       style="stroke:#000000;stroke-width:0.261402;stroke-linecap:round;paint-order:stroke fill markers"
       d="m 103.08719,42.121316 c -0.81289,-4.812478 6.07619,5.084987 6.07619,5.084987 l -3.29175,95.831687 -7.29895,-8.30767 c 0,0 11.1995,-53.032453 4.51451,-92.609004 z"
       sodipodi:nodetypes="scccs" />
    <path
       id="path1846"
       style="stroke:#000000;stroke-width:0.213215;stroke-linecap:round;paint-order:stroke fill markers"
       inkscape:transform-center-x="-3.920612"
       inkscape:transform-center-y="0.063009676"
       d="m 107.13876,112.8637 c 9.47727,-10.66885 32.26125,-19.811921 32.26125,-19.811921 l -0.21363,0.285175 C 126.61232,130.46789 101.69526,118.99162 107.13876,112.8637 Z"
       sodipodi:nodetypes="sccs" />
    <path
       id="path1846-0"
       style="stroke:#000000;stroke-width:0.213215;stroke-linecap:round;paint-order:stroke fill markers"
       inkscape:transform-center-x="-3.920612"
       inkscape:transform-center-y="0.063009676"
       d="m 106.71191,89.596081 c 9.47727,-10.668856 32.26125,-19.811923 32.26125,-19.811923 l -0.21363,0.285175 c -12.57406,37.130937 -37.49112,25.654664 -32.04762,19.526748 z"
       sodipodi:nodetypes="sccs" />
    <path
       id="path1846-4"
       style="stroke:#000000;stroke-width:0.213215;stroke-linecap:round;paint-order:stroke fill markers"
       inkscape:transform-center-x="3.9206156"
       inkscape:transform-center-y="0.063009109"
       d="M 104.81009,77.252834 C 95.332821,66.583974 72.548841,57.440904 72.548841,57.440904 l 0.21363,0.28518 c 12.57406,37.13094 37.491119,25.65467 32.047619,19.52675 z"
       sodipodi:nodetypes="sccs" />
    <path
       id="path1846-4-76"
       style="stroke:#000000;stroke-width:0.163131;stroke-linecap:round;paint-order:stroke fill markers"
       inkscape:transform-center-x="-2.4309617"
       inkscape:transform-center-y="0.059486605"
       d="M 108.04078,66.188237 C 113.91712,56.115829 128.04423,47.48391 128.04423,47.48391 l -0.13246,0.269237 c -7.79649,35.055103 -23.24621,24.220424 -19.87099,18.43509 z"
       sodipodi:nodetypes="sccs" />
    <path
       id="path1846-4-7"
       style="stroke:#000000;stroke-width:0.213215;stroke-linecap:round;paint-order:stroke fill markers"
       inkscape:transform-center-x="3.9206156"
       inkscape:transform-center-y="0.063009109"
       d="M 103.99257,108.54558 C 94.515295,97.876718 71.731316,88.733648 71.731316,88.733648 l 0.21363,0.28518 C 84.519005,126.14977 109.43607,114.6735 103.99257,108.54558 Z"
       sodipodi:nodetypes="sccs" />
  </g>
</svg>
